<?xml version="1.0" encoding="UTF-8" standalone="no"?><!DOCTYPE svg PUBLIC "-//W3C//DTD SVG 1.1//EN" "http://www.w3.org/Graphics/SVG/1.1/DTD/svg11.dtd"><svg width="100%" height="100%" viewBox="0 0 216 207" version="1.1" xmlns="http://www.w3.org/2000/svg" xmlns:xlink="http://www.w3.org/1999/xlink" xml:space="preserve" xmlns:serif="http://www.serif.com/" style="fill-rule:evenodd;clip-rule:evenodd;stroke-linejoin:round;stroke-miterlimit:2;"><rect x="0" y="0" width="215.355" height="206.142" style="fill:none;"/><path d="M53.98,54.639c9.342,-5.561 27.737,-13.517 47.327,-5.362c26.786,11.144 36.319,33.208 76.944,4.023c3.483,-2.505 6.209,-1.196 6.209,3.095l0,76.042c0,4.291 -2.361,10.325 -5.608,13.129c-7.075,6.112 -19.997,15.206 -33.861,14.775c-20.782,-0.652 -40.915,-22.731 -59.752,-22.731c-12.027,0 -24.048,5.82 -31.17,10.034c-3.693,2.182 -6.497,0.772 -6.497,-3.514l0,-77.348c0.005,-4.287 2.723,-9.949 6.408,-12.143Z" style="fill:#fff;fill-rule:nonzero;"/><clipPath id="_clip1"><path d="M53.98,54.639c9.342,-5.561 27.737,-13.517 47.327,-5.362c26.786,11.144 36.319,33.208 76.944,4.023c3.483,-2.505 6.209,-1.196 6.209,3.095l0,76.042c0,4.291 -2.361,10.325 -5.608,13.129c-7.075,6.112 -19.997,15.206 -33.861,14.775c-20.782,-0.652 -40.915,-22.731 -59.752,-22.731c-12.027,0 -24.048,5.82 -31.17,10.034c-3.693,2.182 -6.497,0.772 -6.497,-3.514l0,-77.348c0.005,-4.287 2.723,-9.949 6.408,-12.143Z" clip-rule="nonzero"/></clipPath><g clip-path="url(#_clip1)"><rect x="92.242" y="-23.506" width="47.548" height="234.39" style="fill:#bd8d46;"/></g><path d="M53.98,54.639c9.342,-5.561 27.737,-13.517 47.327,-5.362c26.786,11.144 36.319,33.208 76.944,4.023c3.483,-2.505 6.209,-1.196 6.209,3.095l0,76.042c0,4.291 -2.361,10.325 -5.608,13.129c-7.075,6.112 -19.997,15.206 -33.861,14.775c-20.782,-0.652 -40.915,-22.731 -59.752,-22.731c-12.027,0 -24.048,5.82 -31.17,10.034c-3.693,2.182 -6.497,0.772 -6.497,-3.514l0,-77.348c0.005,-4.287 2.723,-9.949 6.408,-12.143Z" style="fill:none;fill-rule:nonzero;stroke:#000;stroke-width:5px;"/></svg>