<?xml version="1.0" encoding="UTF-8" standalone="no"?><!DOCTYPE svg PUBLIC "-//W3C//DTD SVG 1.1//EN" "http://www.w3.org/Graphics/SVG/1.1/DTD/svg11.dtd"><svg width="100%" height="100%" viewBox="0 0 216 207" version="1.1" xmlns="http://www.w3.org/2000/svg" xmlns:xlink="http://www.w3.org/1999/xlink" xml:space="preserve" xmlns:serif="http://www.serif.com/" style="fill-rule:evenodd;clip-rule:evenodd;stroke-linejoin:round;stroke-miterlimit:2;"><rect x="0" y="0" width="215.355" height="206.142" style="fill:none;"/><g><path d="M107.677,38.453c-10.055,-0.003 -15.195,11.689 -8.031,18.853l2.677,2.677l-5.354,5.354l-2.676,-2.677c-4.434,-4.433 -11.64,-4.426 -16.065,0c-4.43,4.43 -4.43,11.633 0,16.062l2.676,2.681l-5.354,5.354l-2.676,-2.677c-4.293,-4.293 -11.785,-4.281 -16.063,-0.004c-4.433,4.433 -4.446,11.619 0,16.066l2.677,2.677l-2.677,2.677c-4.446,4.446 -4.432,11.632 -0.003,16.062c4.285,4.285 11.773,4.293 16.065,0l2.677,-2.677l5.354,5.354l-2.677,2.681c-4.429,4.429 -4.429,11.631 0,16.061c4.426,4.427 11.632,4.433 16.066,0l2.676,-2.677l5.354,5.354l-2.677,2.677c-7.134,7.134 -2.062,19.358 8.031,19.358c10.057,0 15.197,-12.192 8.031,-19.358l-2.677,-2.677l5.354,-5.354l2.677,2.677c4.433,4.433 11.64,4.427 16.066,0c4.429,-4.43 4.429,-11.632 0,-16.061l-2.677,-2.681l5.354,-5.354l2.677,2.677c4.292,4.293 11.784,4.281 16.062,0.004c4.433,-4.434 4.447,-11.619 0,-16.066l-2.677,-2.677l2.677,-2.677c4.446,-4.446 4.433,-11.633 0.004,-16.062c-4.286,-4.285 -11.774,-4.293 -16.066,0l-2.677,2.677l-5.354,-5.354l2.677,-2.681c4.429,-4.429 4.429,-11.632 0,-16.062c-4.426,-4.426 -11.633,-4.433 -16.066,0l-2.677,2.677l-5.354,-5.354l2.677,-2.677c7.139,-7.139 2.064,-18.85 -8.031,-18.853Zm0,7.564c2.095,0 3.787,1.69 3.787,3.787c0,1.008 -0.396,1.431 -1.11,2.148l-2.677,2.677l-2.677,-2.677c-0.713,-0.717 -1.109,-1.14 -1.109,-2.148c0,-2.102 1.703,-3.787 3.786,-3.787Zm0,19.32l5.354,5.354l-5.354,5.354l-5.354,-5.354l5.354,-5.354Zm0,32.128l-5.354,-5.354l5.354,-5.358l5.354,5.358l-5.354,5.354Zm10.708,0l5.358,5.354l-5.358,5.354l-5.354,-5.354l5.354,-5.354Zm-10.708,10.708l5.354,5.354l-5.354,5.358l-5.354,-5.358l5.354,-5.354Zm-10.708,0l-5.357,-5.354l5.357,-5.354l5.354,5.354l-5.354,5.354Zm0,-32.128l5.354,5.354l-5.354,5.354l-5.353,-5.354l5.353,-5.354Zm-13.388,-8.031c1.483,-1.482 3.882,-1.476 5.358,0l2.677,2.677l-5.354,5.354l-2.681,-2.677c-1.475,-1.475 -1.475,-3.878 0,-5.354Zm2.677,18.743l5.354,5.354l-5.354,5.354l-5.354,-5.354l5.354,-5.354Zm-24.089,2.677c3.66,-3.679 7.269,2.325 8.027,2.677l-5.354,5.354l-2.677,-2.677c-1.49,-1.499 -1.47,-3.888 0.004,-5.354Zm5.35,26.77c-1.435,1.434 -3.92,1.438 -5.354,-0.004c-1.475,-1.467 -1.486,-3.858 0,-5.35l2.677,-2.677l5.354,5.354l-2.677,2.677Zm8.031,-8.031l-5.354,-5.354l5.354,-5.354l5.354,5.354l-5.354,5.354Zm10.708,0l5.354,5.354l-5.354,5.354l-5.354,-5.354l5.354,-5.354Zm2.681,29.45c-1.479,1.475 -3.879,1.483 -5.358,0c-1.475,-1.476 -1.475,-3.878 0,-5.354l2.681,-2.677l5.354,5.354l-2.677,2.677Zm8.03,-8.031l-5.353,-5.353l5.353,-5.354l5.354,5.354l-5.354,5.353Zm10.708,30.532c-2.103,0 -3.786,-2.203 -3.786,-4.29c0,-1.01 0.396,-1.432 1.109,-2.149l2.677,-2.677l2.677,2.677c0.714,0.717 1.11,1.139 1.11,2.148c0,2.093 -1.694,4.291 -3.787,4.291Zm0,-19.824l-5.354,-5.354l5.354,-5.354l5.354,5.354l-5.354,5.354Zm10.708,-10.708l-5.354,-5.353l5.354,-5.354l5.354,5.354l-5.354,5.353Zm13.389,8.031c-1.479,1.486 -3.879,1.479 -5.358,0l-2.677,-2.677l5.354,-5.354l2.681,2.677c1.475,1.476 1.475,3.878 0,5.354Zm-2.677,-18.742l-5.354,-5.354l5.354,-5.354l5.354,5.354l-5.354,5.354Zm24.089,-2.677c-1.427,1.43 -3.915,1.43 -5.35,0l-2.677,-2.677l5.354,-5.354l2.677,2.677c1.491,1.498 1.47,3.887 -0.004,5.354Zm-5.35,-26.77c1.439,-1.427 3.923,-1.431 5.354,0.004c1.475,1.467 1.486,3.857 0,5.35l-2.677,2.677l-5.354,-5.354l2.677,-2.677Zm-8.031,8.031l5.354,5.354l-5.354,5.354l-5.354,-5.354l5.354,-5.354Zm-10.708,0l-5.354,-5.354l5.354,-5.354l5.354,5.354l-5.354,5.354Zm-2.681,-29.451c1.475,-1.479 3.875,-1.479 5.358,0c1.475,1.476 1.475,3.879 0,5.354l-2.681,2.677l-5.354,-5.354l2.677,-2.677Zm-8.031,8.031l5.354,5.354l-5.354,5.354l-5.354,-5.354l5.354,-5.354Z" style="fill-rule:nonzero;stroke:#fff;stroke-width:4px;"/><path d="M107.678,46.017c2.094,0 3.786,1.69 3.786,3.787c0,1.008 -0.395,1.431 -1.109,2.148l-2.677,2.677l-2.677,-2.677c-0.714,-0.717 -1.11,-1.14 -1.11,-2.148c0,-2.102 1.703,-3.787 3.787,-3.787Z" style="fill:#bd8d46;"/><path d="M83.581,68.014c1.483,-1.482 3.882,-1.476 5.358,0l2.677,2.677l-5.354,5.354l-2.681,-2.677c-1.475,-1.475 -1.475,-3.878 0,-5.354Z" style="fill:#bd8d46;"/><path d="M62.169,89.434c3.66,-3.679 7.27,2.325 8.027,2.677l-5.354,5.354l-2.677,-2.677c-1.49,-1.499 -1.47,-3.888 0.004,-5.354Z" style="fill:#bd8d46;"/><path d="M67.519,116.204c-1.435,1.434 -3.919,1.438 -5.354,-0.004c-1.475,-1.467 -1.486,-3.858 0,-5.35l2.677,-2.677l5.354,5.354l-2.677,2.677Z" style="fill:#bd8d46;"/><path d="M88.939,137.623c-1.479,1.475 -3.879,1.483 -5.358,0c-1.475,-1.476 -1.475,-3.878 0,-5.354l2.681,-2.677l5.354,5.354l-2.677,2.677Z" style="fill:#bd8d46;"/><path d="M107.678,160.124c-2.103,0 -3.787,-2.203 -3.787,-4.29c0,-1.01 0.396,-1.432 1.11,-2.149l2.677,-2.677l2.677,2.677c0.714,0.717 1.109,1.139 1.109,2.148c0,2.093 -1.694,4.291 -3.786,4.291Z" style="fill:#bd8d46;"/><path d="M131.774,137.623c-1.479,1.486 -3.878,1.479 -5.357,0l-2.677,-2.677l5.354,-5.354l2.68,2.677c1.476,1.476 1.476,3.878 0,5.354Z" style="fill:#bd8d46;"/><path d="M153.186,116.204c-1.426,1.43 -3.915,1.43 -5.35,0l-2.677,-2.677l5.354,-5.354l2.677,2.677c1.491,1.498 1.47,3.887 -0.004,5.354Z" style="fill:#bd8d46;"/><path d="M147.836,89.434c1.439,-1.427 3.924,-1.431 5.354,0.004c1.475,1.467 1.486,3.857 0,5.35l-2.677,2.677l-5.354,-5.354l2.677,-2.677Z" style="fill:#bd8d46;"/><path d="M126.417,68.014c1.475,-1.479 3.875,-1.479 5.357,0c1.476,1.476 1.476,3.879 0,5.354l-2.68,2.677l-5.354,-5.354l2.677,-2.677Z" style="fill:#bd8d46;"/></g></svg>