<?xml version="1.0" encoding="UTF-8" standalone="no"?><!DOCTYPE svg PUBLIC "-//W3C//DTD SVG 1.1//EN" "http://www.w3.org/Graphics/SVG/1.1/DTD/svg11.dtd"><svg width="100%" height="100%" viewBox="0 0 216 207" version="1.1" xmlns="http://www.w3.org/2000/svg" xmlns:xlink="http://www.w3.org/1999/xlink" xml:space="preserve" xmlns:serif="http://www.serif.com/" style="fill-rule:evenodd;clip-rule:evenodd;stroke-linecap:round;stroke-linejoin:round;stroke-miterlimit:1.5;"><rect x="0" y="0" width="215.355" height="206.142" style="fill:none;"/><g><path d="M109.37,178.265l-3.385,0c-39.727,-9.598 -60.694,-36.766 -65.955,-78.642l0,-61.093c22.535,-7.037 45.07,-10.615 67.605,-10.652l0,0l0.043,0l0.042,0l0,0c22.536,0.037 45.071,3.615 67.606,10.652l0,61.093c-5.262,41.876 -26.229,69.044 -65.956,78.642Z" style="fill:#fff;stroke:#000;stroke-width:5px;"/><path d="M109.127,167.458l-2.898,0c-34.018,-8.218 -51.972,-31.481 -56.477,-67.34l0,-52.313c19.296,-6.025 38.593,-9.089 57.889,-9.121l0,0l0.037,0l0.036,0l0,0c19.297,0.032 38.593,3.096 57.89,9.121l0,52.313c-4.506,35.858 -22.459,59.121 -56.477,67.34Z" style="fill:#fff;"/><path d="M104.483,164.46l0.35,0.067l0.058,0.015l0.382,0.1l0.384,0.098l0.385,0.098l0.386,0.095l0.101,0.025l2.598,0l0.356,0.026l0.348,0.075l0.334,0.125l0.313,0.171l0.286,0.214l0.252,0.252l0.214,0.285l0.171,0.314l0.125,0.334l0.075,0.348l0.026,0.356l-0.026,0.356l-0.075,0.348l-0.125,0.335l-0.171,0.313l-0.214,0.285l-0.252,0.252l-0.286,0.214l-0.313,0.171l-0.334,0.125l-0.348,0.076l-0.356,0.025l-3.199,0l-0.694,-0.169l-0.407,-0.101l-0.405,-0.103l-0.404,-0.103l-0.401,-0.105l-0.068,-0.018l-0.338,-0.116l-0.317,-0.163l-0.291,-0.206l-0.259,-0.246l-0.221,-0.28l-0.179,-0.309l-0.133,-0.33l-0.085,-0.347l-0.034,-0.355l0.016,-0.356l0.067,-0.351l0.116,-0.337l0.163,-0.317l0.206,-0.291l0.246,-0.259l0.28,-0.221l0.308,-0.179l0.331,-0.133l0.347,-0.085l0.355,-0.035l0.356,0.017Zm18.488,-3.816l0.345,0.087l0.33,0.136l0.307,0.181l0.279,0.224l0.243,0.26l0.204,0.293l0.161,0.318l0.113,0.338l0.064,0.351l0.014,0.357l-0.038,0.354l-0.087,0.346l-0.136,0.33l-0.181,0.307l-0.223,0.279l-0.261,0.243l-0.292,0.204l-0.319,0.161l-0.352,0.147l-0.36,0.147l-0.361,0.147l-0.362,0.145l-0.363,0.143l-0.366,0.143l-0.366,0.14l-0.369,0.14l-0.369,0.138l-0.371,0.136l-0.372,0.135l-0.373,0.134l-0.376,0.132l-0.05,0.017l-0.344,0.093l-0.354,0.043l-0.357,-0.008l-0.352,-0.059l-0.339,-0.109l-0.321,-0.155l-0.296,-0.2l-0.264,-0.24l-0.228,-0.274l-0.185,-0.305l-0.141,-0.328l-0.093,-0.344l-0.042,-0.354l0.008,-0.357l0.059,-0.352l0.108,-0.339l0.155,-0.321l0.2,-0.296l0.24,-0.264l0.275,-0.228l0.304,-0.185l0.328,-0.141l0.038,-0.013l0.353,-0.125l0.352,-0.126l0.351,-0.127l0.35,-0.129l0.347,-0.129l0.346,-0.131l0.345,-0.133l0.343,-0.133l0.342,-0.136l0.341,-0.136l0.338,-0.137l0.338,-0.139l0.341,-0.142l0.338,-0.114l0.351,-0.064l0.357,-0.013l0.355,0.037Zm-37.151,-3.509l0.353,0.053l0.341,0.101l0.324,0.15l0.23,0.127l0.306,0.166l0.307,0.166l0.309,0.164l0.31,0.163l0.311,0.161l0.313,0.16l0.314,0.16l0.316,0.158l0.317,0.156l0.319,0.155l0.32,0.154l0.321,0.153l0.318,0.149l0.311,0.174l0.284,0.217l0.249,0.254l0.211,0.288l0.168,0.315l0.121,0.335l0.072,0.35l0.022,0.356l-0.029,0.355l-0.079,0.348l-0.129,0.333l-0.174,0.311l-0.216,0.284l-0.255,0.249l-0.288,0.211l-0.315,0.168l-0.335,0.121l-0.349,0.072l-0.357,0.022l-0.355,-0.029l-0.348,-0.079l-0.333,-0.129l-0.328,-0.153l-0.344,-0.164l-0.342,-0.165l-0.341,-0.166l-0.34,-0.168l-0.338,-0.168l-0.337,-0.171l-0.335,-0.171l-0.334,-0.174l-0.333,-0.175l-0.331,-0.175l-0.33,-0.178l-0.328,-0.179l-0.24,-0.132l-0.299,-0.195l-0.269,-0.234l-0.232,-0.271l-0.192,-0.301l-0.147,-0.325l-0.099,-0.342l-0.049,-0.354l0.001,-0.356l0.052,-0.353l0.102,-0.342l0.15,-0.324l0.194,-0.299l0.235,-0.269l0.27,-0.232l0.301,-0.192l0.325,-0.147l0.343,-0.099l0.353,-0.049l0.357,0.001Zm54.269,-6.683l0.346,0.086l0.33,0.134l0.308,0.18l0.279,0.222l0.245,0.26l0.205,0.292l0.162,0.318l0.114,0.337l0.066,0.351l0.015,0.356l-0.036,0.355l-0.086,0.346l-0.135,0.331l-0.18,0.308l-0.222,0.279l-0.259,0.244l-0.234,0.191l-0.28,0.226l-0.282,0.225l-0.282,0.223l-0.284,0.221l-0.286,0.221l-0.287,0.219l-0.289,0.218l-0.289,0.216l-0.292,0.215l-0.293,0.213l-0.294,0.213l-0.296,0.211l-0.296,0.209l-0.154,0.107l-0.306,0.183l-0.33,0.137l-0.345,0.089l-0.355,0.039l-0.356,-0.012l-0.351,-0.062l-0.339,-0.112l-0.319,-0.159l-0.294,-0.203l-0.261,-0.242l-0.225,-0.277l-0.183,-0.307l-0.137,-0.329l-0.089,-0.345l-0.039,-0.355l0.012,-0.356l0.063,-0.352l0.111,-0.338l0.159,-0.32l0.203,-0.293l0.242,-0.262l0.278,-0.224l0.144,-0.101l0.275,-0.194l0.274,-0.195l0.272,-0.197l0.271,-0.197l0.27,-0.199l0.269,-0.201l0.266,-0.201l0.265,-0.202l0.265,-0.204l0.263,-0.206l0.261,-0.206l0.261,-0.208l0.258,-0.209l0.223,-0.181l0.292,-0.206l0.318,-0.161l0.338,-0.115l0.35,-0.065l0.357,-0.015l0.355,0.036Zm-69.987,-5.467l0.352,0.062l0.339,0.11l0.32,0.158l0.294,0.202l0.262,0.241l0.019,0.02l0.227,0.238l0.228,0.237l0.23,0.236l0.23,0.235l0.232,0.233l0.234,0.233l0.235,0.231l0.236,0.23l0.237,0.228l0.239,0.227l0.241,0.226l0.241,0.226l0.243,0.223l0.244,0.222l0.115,0.104l0.247,0.257l0.208,0.289l0.165,0.317l0.118,0.336l0.069,0.35l0.019,0.356l-0.032,0.355l-0.083,0.347l-0.131,0.332l-0.177,0.31l-0.219,0.281l-0.257,0.248l-0.289,0.208l-0.317,0.165l-0.336,0.118l-0.35,0.069l-0.356,0.019l-0.356,-0.032l-0.347,-0.083l-0.331,-0.131l-0.31,-0.177l-0.282,-0.219l-0.125,-0.113l-0.265,-0.241l-0.263,-0.243l-0.261,-0.243l-0.26,-0.245l-0.259,-0.246l-0.257,-0.248l-0.256,-0.249l-0.254,-0.25l-0.253,-0.251l-0.251,-0.253l-0.25,-0.254l-0.249,-0.256l-0.247,-0.257l-0.246,-0.257l-0.027,-0.029l-0.226,-0.277l-0.183,-0.306l-0.139,-0.328l-0.09,-0.345l-0.04,-0.355l0.01,-0.356l0.062,-0.352l0.11,-0.339l0.158,-0.32l0.202,-0.294l0.242,-0.262l0.276,-0.226l0.306,-0.184l0.328,-0.138l0.345,-0.09l0.355,-0.04l0.356,0.01Zm83.154,-9.431l0.348,0.077l0.334,0.126l0.313,0.172l0.285,0.214l0.251,0.253l0.213,0.287l0.17,0.313l0.123,0.335l0.075,0.349l0.024,0.355l-0.026,0.356l-0.077,0.348l-0.126,0.334l-0.172,0.313l-0.18,0.279l-0.198,0.302l-0.199,0.301l-0.201,0.299l-0.201,0.298l-0.204,0.297l-0.204,0.296l-0.207,0.294l-0.207,0.293l-0.209,0.292l-0.21,0.291l-0.212,0.289l-0.213,0.288l-0.215,0.287l-0.107,0.142l-0.235,0.268l-0.271,0.233l-0.301,0.191l-0.325,0.147l-0.343,0.098l-0.353,0.049l-0.357,-0.002l-0.353,-0.052l-0.341,-0.102l-0.324,-0.15l-0.299,-0.195l-0.269,-0.235l-0.232,-0.27l-0.191,-0.301l-0.147,-0.326l-0.098,-0.342l-0.049,-0.354l0.002,-0.356l0.052,-0.353l0.102,-0.342l0.15,-0.324l0.195,-0.299l0.099,-0.131l0.199,-0.265l0.197,-0.267l0.196,-0.268l0.195,-0.269l0.193,-0.271l0.193,-0.272l0.191,-0.273l0.19,-0.274l0.188,-0.275l0.187,-0.277l0.187,-0.278l0.184,-0.279l0.184,-0.28l0.174,-0.269l0.214,-0.285l0.253,-0.251l0.287,-0.213l0.313,-0.17l0.335,-0.124l0.349,-0.074l0.355,-0.025l0.356,0.027Zm-94.448,-6.964l0.351,0.065l0.338,0.114l0.318,0.161l0.292,0.205l0.26,0.244l0.223,0.279l0.181,0.307l0.09,0.182l0.155,0.309l0.156,0.307l0.157,0.307l0.158,0.305l0.16,0.304l0.161,0.303l0.162,0.301l0.164,0.3l0.164,0.299l0.166,0.298l0.168,0.296l0.168,0.296l0.17,0.294l0.088,0.15l0.157,0.32l0.11,0.34l0.061,0.351l0.01,0.357l-0.04,0.354l-0.091,0.345l-0.139,0.329l-0.184,0.305l-0.226,0.276l-0.262,0.241l-0.295,0.202l-0.32,0.157l-0.339,0.11l-0.352,0.061l-0.356,0.011l-0.354,-0.041l-0.345,-0.091l-0.329,-0.139l-0.305,-0.184l-0.277,-0.225l-0.241,-0.263l-0.201,-0.295l-0.094,-0.161l-0.183,-0.316l-0.18,-0.317l-0.18,-0.318l-0.178,-0.319l-0.176,-0.32l-0.176,-0.323l-0.174,-0.323l-0.172,-0.324l-0.171,-0.326l-0.17,-0.326l-0.168,-0.328l-0.167,-0.33l-0.166,-0.33l-0.095,-0.192l-0.135,-0.33l-0.087,-0.346l-0.036,-0.355l0.014,-0.357l0.065,-0.35l0.114,-0.338l0.161,-0.319l0.205,-0.292l0.244,-0.26l0.278,-0.222l0.308,-0.181l0.33,-0.135l0.346,-0.087l0.355,-0.036l0.356,0.014Zm102.927,-11.105l0.346,0.085l0.331,0.133l0.309,0.179l0.279,0.221l0.246,0.259l0.206,0.291l0.163,0.317l0.116,0.337l0.067,0.351l0.016,0.356l-0.034,0.355l-0.085,0.347l-0.028,0.085l-0.121,0.37l-0.122,0.368l-0.123,0.367l-0.125,0.367l-0.126,0.365l-0.127,0.363l-0.129,0.363l-0.13,0.362l-0.131,0.36l-0.133,0.359l-0.134,0.358l-0.136,0.357l-0.137,0.355l-0.021,0.054l-0.153,0.322l-0.197,0.297l-0.237,0.267l-0.273,0.229l-0.303,0.189l-0.327,0.143l-0.344,0.095l-0.353,0.046l-0.357,-0.005l-0.352,-0.056l-0.341,-0.106l-0.322,-0.153l-0.298,-0.197l-0.266,-0.238l-0.229,-0.273l-0.189,-0.303l-0.143,-0.326l-0.095,-0.344l-0.046,-0.354l0.005,-0.356l0.056,-0.353l0.106,-0.34l0.017,-0.044l0.129,-0.335l0.128,-0.336l0.126,-0.337l0.125,-0.339l0.124,-0.34l0.123,-0.341l0.121,-0.342l0.121,-0.344l0.119,-0.345l0.118,-0.345l0.116,-0.348l0.116,-0.348l0.114,-0.35l0.024,-0.076l0.134,-0.331l0.179,-0.308l0.221,-0.28l0.258,-0.246l0.291,-0.206l0.318,-0.163l0.337,-0.116l0.35,-0.067l0.357,-0.016l0.355,0.035Zm-109.341,-7.687l0.344,0.095l0.327,0.142l0.303,0.188l0.274,0.228l0.238,0.266l0.198,0.296l0.154,0.322l0.106,0.341l0.079,0.332l0.09,0.374l0.091,0.373l0.092,0.372l0.093,0.37l0.095,0.369l0.096,0.368l0.097,0.367l0.098,0.366l0.1,0.365l0.101,0.363l0.102,0.362l0.098,0.343l0.073,0.349l0.023,0.356l-0.028,0.356l-0.078,0.348l-0.127,0.333l-0.173,0.312l-0.216,0.284l-0.254,0.25l-0.287,0.212l-0.314,0.169l-0.335,0.122l-0.349,0.074l-0.356,0.023l-0.355,-0.028l-0.349,-0.078l-0.333,-0.127l-0.312,-0.173l-0.284,-0.216l-0.25,-0.254l-0.212,-0.287l-0.169,-0.314l-0.122,-0.335l-0.101,-0.354l-0.108,-0.381l-0.106,-0.382l-0.104,-0.384l-0.104,-0.385l-0.102,-0.386l-0.101,-0.386l-0.099,-0.388l-0.099,-0.39l-0.096,-0.39l-0.096,-0.392l-0.094,-0.393l-0.081,-0.341l-0.057,-0.352l-0.006,-0.357l0.045,-0.353l0.094,-0.344l0.142,-0.327l0.188,-0.304l0.229,-0.273l0.265,-0.239l0.297,-0.198l0.322,-0.154l0.34,-0.106l0.352,-0.057l0.357,-0.006l0.354,0.044Zm113.485,-11.843l0.35,0.07l0.336,0.119l0.316,0.166l0.289,0.209l0.256,0.248l0.218,0.282l0.176,0.311l0.13,0.332l0.082,0.347l0.031,0.355l-0.02,0.357l-0.013,0.107l-0.056,0.426l-0.057,0.426l-0.058,0.424l-0.06,0.423l-0.061,0.422l-0.062,0.421l-0.063,0.42l-0.064,0.419l-0.066,0.417l-0.067,0.417l-0.069,0.415l-0.052,0.307l-0.084,0.347l-0.132,0.331l-0.179,0.309l-0.22,0.28l-0.258,0.247l-0.291,0.206l-0.317,0.164l-0.337,0.116l-0.35,0.068l-0.357,0.017l-0.355,-0.034l-0.346,-0.084l-0.332,-0.133l-0.308,-0.178l-0.281,-0.221l-0.246,-0.258l-0.207,-0.29l-0.163,-0.318l-0.117,-0.337l-0.067,-0.35l-0.017,-0.356l0.034,-0.355l0.05,-0.299l0.066,-0.398l0.064,-0.4l0.063,-0.401l0.062,-0.402l0.061,-0.403l0.06,-0.405l0.058,-0.405l0.057,-0.407l0.056,-0.408l0.055,-0.409l0.054,-0.411l0.012,-0.099l0.07,-0.349l0.12,-0.337l0.165,-0.315l0.21,-0.289l0.248,-0.257l0.282,-0.218l0.31,-0.176l0.332,-0.13l0.347,-0.081l0.356,-0.032l0.356,0.02Zm-115.771,-7.984l0.348,0.076l0.334,0.124l0.313,0.171l0.286,0.214l0.252,0.252l0.214,0.286l0.171,0.313l0.125,0.334l0.075,0.349l0.026,0.355l0,5l-0.026,0.356l-0.075,0.349l-0.125,0.334l-0.171,0.313l-0.214,0.285l-0.252,0.253l-0.286,0.213l-0.313,0.171l-0.334,0.125l-0.348,0.076l-0.356,0.025l-0.356,-0.025l-0.349,-0.076l-0.334,-0.125l-0.313,-0.171l-0.285,-0.213l-0.253,-0.253l-0.213,-0.285l-0.171,-0.313l-0.125,-0.334l-0.076,-0.349l-0.025,-0.356l0,-5l0.025,-0.355l0.076,-0.349l0.125,-0.334l0.171,-0.313l0.213,-0.286l0.253,-0.252l0.285,-0.214l0.313,-0.171l0.334,-0.124l0.349,-0.076l0.356,-0.026l0.356,0.026Zm115.851,-12.008l0.349,0.076l0.334,0.124l0.313,0.171l0.286,0.214l0.252,0.252l0.214,0.286l0.171,0.313l0.124,0.334l0.076,0.349l0.026,0.356l0,5l-0.026,0.355l-0.076,0.349l-0.124,0.334l-0.171,0.313l-0.214,0.286l-0.252,0.252l-0.286,0.214l-0.313,0.171l-0.334,0.124l-0.349,0.076l-0.355,0.026l-0.356,-0.026l-0.349,-0.076l-0.334,-0.124l-0.313,-0.171l-0.286,-0.214l-0.252,-0.252l-0.214,-0.286l-0.171,-0.313l-0.124,-0.334l-0.076,-0.349l-0.025,-0.355l0,-5l0.025,-0.356l0.076,-0.349l0.124,-0.334l0.171,-0.313l0.214,-0.286l0.252,-0.252l0.286,-0.214l0.313,-0.171l0.334,-0.124l0.349,-0.076l0.356,-0.025l0.355,0.025Zm-115.851,-7.992l0.348,0.076l0.334,0.124l0.313,0.171l0.286,0.214l0.252,0.252l0.214,0.286l0.171,0.313l0.125,0.334l0.075,0.349l0.026,0.355l0,5l-0.026,0.356l-0.075,0.349l-0.125,0.334l-0.171,0.313l-0.214,0.285l-0.252,0.253l-0.286,0.213l-0.313,0.171l-0.334,0.125l-0.348,0.076l-0.356,0.025l-0.356,-0.025l-0.349,-0.076l-0.334,-0.125l-0.313,-0.171l-0.285,-0.213l-0.253,-0.253l-0.213,-0.285l-0.171,-0.313l-0.125,-0.334l-0.076,-0.349l-0.025,-0.356l0,-5l0.025,-0.355l0.076,-0.349l0.125,-0.334l0.171,-0.313l0.213,-0.286l0.253,-0.252l0.285,-0.214l0.313,-0.171l0.334,-0.124l0.349,-0.076l0.356,-0.026l0.356,0.026Zm115.851,-12.008l0.349,0.076l0.334,0.124l0.313,0.171l0.286,0.214l0.252,0.252l0.214,0.286l0.171,0.313l0.124,0.334l0.076,0.349l0.026,0.356l0,5l-0.026,0.355l-0.076,0.349l-0.124,0.334l-0.171,0.313l-0.214,0.286l-0.252,0.252l-0.286,0.214l-0.313,0.171l-0.334,0.124l-0.349,0.076l-0.355,0.026l-0.356,-0.026l-0.349,-0.076l-0.334,-0.124l-0.313,-0.171l-0.286,-0.214l-0.252,-0.252l-0.214,-0.286l-0.171,-0.313l-0.124,-0.334l-0.076,-0.349l-0.025,-0.355l0,-5l0.025,-0.356l0.076,-0.349l0.124,-0.334l0.171,-0.313l0.214,-0.286l0.252,-0.252l0.286,-0.214l0.313,-0.171l0.334,-0.124l0.349,-0.076l0.356,-0.025l0.355,0.025Zm-115.851,-7.992l0.348,0.076l0.334,0.124l0.313,0.171l0.286,0.214l0.252,0.252l0.214,0.286l0.171,0.313l0.125,0.334l0.075,0.349l0.026,0.355l0,5l-0.026,0.356l-0.075,0.349l-0.125,0.334l-0.171,0.313l-0.214,0.285l-0.252,0.253l-0.286,0.213l-0.313,0.171l-0.334,0.125l-0.348,0.076l-0.356,0.025l-0.356,-0.025l-0.349,-0.076l-0.334,-0.125l-0.313,-0.171l-0.285,-0.213l-0.253,-0.253l-0.213,-0.285l-0.171,-0.313l-0.125,-0.334l-0.076,-0.349l-0.025,-0.356l0,-5l0.025,-0.355l0.076,-0.349l0.125,-0.334l0.171,-0.313l0.213,-0.286l0.253,-0.252l0.285,-0.214l0.313,-0.171l0.334,-0.124l0.349,-0.076l0.356,-0.026l0.356,0.026Zm108.739,-6.721l0.35,0.07l0.288,0.079l0.458,0.127l0.457,0.128l0.458,0.13l0.458,0.13l0.457,0.131l0.458,0.133l0.457,0.133l0.458,0.135l0.458,0.136l0.452,0.135l0.333,0.126l0.312,0.172l0.285,0.216l0.251,0.253l0.212,0.287l0.17,0.314l0.123,0.334l0.074,0.349l0.024,0.356l-0.028,0.356l-0.077,0.348l-0.126,0.334l-0.173,0.312l-0.215,0.284l-0.254,0.251l-0.286,0.213l-0.314,0.169l-0.335,0.123l-0.349,0.074l-0.356,0.024l-0.355,-0.027l-0.349,-0.078l-0.447,-0.133l-0.447,-0.133l-0.446,-0.132l-0.448,-0.13l-0.447,-0.129l-0.446,-0.129l-0.447,-0.127l-0.447,-0.126l-0.447,-0.125l-0.447,-0.124l-0.282,-0.078l-0.337,-0.119l-0.316,-0.165l-0.289,-0.209l-0.256,-0.248l-0.219,-0.282l-0.176,-0.31l-0.131,-0.332l-0.082,-0.347l-0.031,-0.355l0.019,-0.356l0.07,-0.35l0.119,-0.336l0.165,-0.316l0.209,-0.29l0.248,-0.256l0.282,-0.219l0.31,-0.176l0.332,-0.131l0.347,-0.081l0.355,-0.032l0.356,0.019Zm-93.787,-1.939l0.343,0.096l0.327,0.143l0.303,0.188l0.273,0.229l0.238,0.266l0.198,0.297l0.153,0.322l0.106,0.341l0.056,0.352l0.006,0.357l-0.046,0.353l-0.095,0.344l-0.143,0.327l-0.188,0.303l-0.229,0.273l-0.266,0.238l-0.297,0.197l-0.322,0.154l-0.341,0.106l-0.339,0.079l-0.447,0.106l-0.447,0.107l-0.447,0.107l-0.446,0.109l-0.447,0.11l-0.447,0.111l-0.446,0.112l-0.447,0.113l-0.447,0.115l-0.439,0.113l-0.351,0.064l-0.357,0.014l-0.355,-0.037l-0.345,-0.087l-0.33,-0.136l-0.308,-0.181l-0.278,-0.223l-0.244,-0.261l-0.204,-0.292l-0.16,-0.319l-0.114,-0.338l-0.064,-0.351l-0.014,-0.356l0.037,-0.355l0.088,-0.346l0.135,-0.33l0.182,-0.307l0.223,-0.278l0.26,-0.244l0.293,-0.204l0.318,-0.161l0.338,-0.113l0.445,-0.115l0.457,-0.117l0.458,-0.116l0.458,-0.115l0.457,-0.113l0.458,-0.113l0.458,-0.112l0.458,-0.11l0.457,-0.11l0.458,-0.108l0.346,-0.081l0.352,-0.056l0.357,-0.006l0.354,0.045Zm74.382,-2.39l0.355,0.06l0.458,0.08l0.458,0.081l0.459,0.082l0.457,0.082l0.459,0.084l0.458,0.085l0.457,0.087l0.458,0.087l0.458,0.088l0.458,0.09l0.047,0.009l0.344,0.094l0.327,0.142l0.304,0.187l0.273,0.229l0.239,0.265l0.198,0.296l0.155,0.322l0.107,0.34l0.057,0.352l0.007,0.357l-0.044,0.354l-0.095,0.344l-0.142,0.327l-0.187,0.304l-0.228,0.274l-0.265,0.238l-0.297,0.199l-0.321,0.154l-0.341,0.107l-0.352,0.057l-0.356,0.007l-0.354,-0.044l-0.04,-0.008l-0.447,-0.087l-0.446,-0.087l-0.447,-0.085l-0.447,-0.084l-0.446,-0.083l-0.446,-0.082l-0.447,-0.08l-0.446,-0.08l-0.447,-0.079l-0.446,-0.077l-0.348,-0.06l-0.347,-0.085l-0.331,-0.133l-0.308,-0.179l-0.28,-0.222l-0.245,-0.258l-0.207,-0.291l-0.162,-0.318l-0.116,-0.337l-0.067,-0.351l-0.016,-0.356l0.035,-0.355l0.085,-0.346l0.134,-0.331l0.179,-0.309l0.221,-0.28l0.259,-0.245l0.291,-0.206l0.317,-0.163l0.338,-0.116l0.35,-0.066l0.357,-0.016l0.355,0.035Zm-54.807,-1.185l0.347,0.082l0.332,0.13l0.31,0.176l0.282,0.218l0.248,0.256l0.21,0.289l0.165,0.316l0.12,0.336l0.07,0.35l0.019,0.356l-0.031,0.356l-0.081,0.347l-0.13,0.332l-0.176,0.31l-0.219,0.282l-0.256,0.248l-0.289,0.209l-0.316,0.166l-0.336,0.12l-0.35,0.07l-0.112,0.014l-0.445,0.058l-0.447,0.059l-0.447,0.06l-0.446,0.061l-0.446,0.063l-0.447,0.063l-0.445,0.065l-0.447,0.065l-0.447,0.067l-0.446,0.068l-0.309,0.047l-0.356,0.029l-0.356,-0.021l-0.349,-0.072l-0.336,-0.122l-0.315,-0.167l-0.287,-0.211l-0.255,-0.25l-0.217,-0.283l-0.174,-0.311l-0.128,-0.333l-0.08,-0.348l-0.029,-0.355l0.022,-0.356l0.072,-0.35l0.121,-0.335l0.168,-0.315l0.211,-0.288l0.25,-0.255l0.283,-0.216l0.311,-0.175l0.333,-0.128l0.348,-0.079l0.316,-0.049l0.458,-0.069l0.458,-0.069l0.458,-0.067l0.458,-0.066l0.459,-0.065l0.458,-0.064l0.458,-0.063l0.458,-0.062l0.458,-0.061l0.459,-0.059l0.118,-0.015l0.356,-0.02l0.356,0.031Zm35.001,-1.152l0.459,0.03l0.457,0.032l0.459,0.032l0.459,0.034l0.458,0.035l0.458,0.036l0.458,0.037l0.459,0.039l0.458,0.039l0.458,0.041l0.158,0.014l0.352,0.058l0.34,0.107l0.322,0.154l0.296,0.199l0.265,0.238l0.228,0.274l0.187,0.304l0.142,0.327l0.094,0.344l0.044,0.354l-0.007,0.357l-0.057,0.352l-0.107,0.34l-0.154,0.322l-0.199,0.296l-0.239,0.265l-0.274,0.229l-0.303,0.187l-0.328,0.142l-0.344,0.094l-0.354,0.044l-0.356,-0.007l-0.153,-0.014l-0.446,-0.04l-0.447,-0.038l-0.445,-0.037l-0.446,-0.036l-0.447,-0.036l-0.446,-0.034l-0.446,-0.033l-0.446,-0.031l-0.447,-0.031l-0.446,-0.03l-0.304,-0.02l-0.354,-0.048l-0.343,-0.098l-0.325,-0.145l-0.302,-0.191l-0.271,-0.232l-0.236,-0.267l-0.195,-0.299l-0.15,-0.323l-0.103,-0.342l-0.054,-0.353l-0.002,-0.356l0.048,-0.354l0.098,-0.343l0.146,-0.325l0.19,-0.302l0.232,-0.271l0.268,-0.236l0.298,-0.195l0.324,-0.15l0.341,-0.103l0.353,-0.054l0.356,-0.002l0.311,0.02Zm-15.156,-0.342l0.35,0.068l0.337,0.118l0.316,0.165l0.29,0.208l0.257,0.247l0.22,0.281l0.177,0.31l0.131,0.332l0.083,0.346l0.033,0.356l-0.019,0.356l-0.068,0.35l-0.118,0.337l-0.165,0.316l-0.208,0.29l-0.247,0.257l-0.281,0.219l-0.31,0.178l-0.332,0.131l-0.347,0.083l-0.355,0.032l-0.148,0.003l-0.446,0.01l-0.446,0.011l-0.446,0.013l-0.446,0.013l-0.447,0.014l-0.446,0.016l-0.446,0.016l-0.446,0.018l-0.447,0.019l-0.445,0.02l-0.32,0.015l-0.357,-0.009l-0.351,-0.059l-0.34,-0.109l-0.321,-0.156l-0.295,-0.2l-0.264,-0.24l-0.227,-0.275l-0.185,-0.305l-0.141,-0.328l-0.092,-0.345l-0.042,-0.354l0.009,-0.356l0.059,-0.352l0.109,-0.34l0.156,-0.321l0.2,-0.295l0.24,-0.264l0.275,-0.227l0.305,-0.185l0.328,-0.14l0.344,-0.093l0.355,-0.042l0.326,-0.015l0.459,-0.021l0.458,-0.019l0.458,-0.018l0.458,-0.017l0.459,-0.016l0.458,-0.015l0.459,-0.013l0.458,-0.013l0.458,-0.011l0.459,-0.011l0.154,-0.003l0.356,0.019Z" style="fill:#bd8d46;"/></g></svg>