<?xml version="1.0" encoding="UTF-8" standalone="no"?><!DOCTYPE svg PUBLIC "-//W3C//DTD SVG 1.1//EN" "http://www.w3.org/Graphics/SVG/1.1/DTD/svg11.dtd"><svg width="100%" height="100%" viewBox="0 0 86 75" version="1.1" xmlns="http://www.w3.org/2000/svg" xmlns:xlink="http://www.w3.org/1999/xlink" xml:space="preserve" xmlns:serif="http://www.serif.com/" style="fill-rule:evenodd;clip-rule:evenodd;stroke-linejoin:round;stroke-miterlimit:1.41421;"><g><rect x="39.901" y="0" width="5.7" height="5.7" style="fill:#b9121b;fill-rule:nonzero;"/><rect x="39.901" y="5.7" width="5.7" height="5.7" style="fill:#b9121b;fill-rule:nonzero;"/><rect x="45.601" y="11.4" width="5.7" height="5.7" style="fill:#b9121b;fill-rule:nonzero;"/><rect x="51.301" y="17.1" width="5.7" height="5.7" style="fill:#b9121b;fill-rule:nonzero;"/><rect x="57.001" y="22.801" width="5.7" height="5.7" style="fill:#b9121b;fill-rule:nonzero;"/><rect x="62.701" y="22.801" width="5.7" height="5.7" style="fill:#b9121b;fill-rule:nonzero;"/><rect x="45.601" y="5.7" width="5.7" height="5.7" style="fill:#b9121b;fill-rule:nonzero;"/><rect x="51.301" y="11.4" width="5.7" height="5.7" style="fill:#b9121b;fill-rule:nonzero;"/><rect x="57.001" y="17.1" width="5.7" height="5.7" style="fill:#b9121b;fill-rule:nonzero;"/><rect x="51.301" y="28.501" width="5.7" height="5.7" style="fill:#b9121b;fill-rule:nonzero;"/><rect x="45.601" y="34.201" width="5.7" height="5.7" style="fill:#b9121b;fill-rule:nonzero;"/><rect x="57.001" y="28.501" width="5.7" height="5.7" style="fill:#b9121b;fill-rule:nonzero;"/><rect x="51.301" y="34.201" width="5.7" height="5.7" style="fill:#b9121b;fill-rule:nonzero;"/><rect x="45.601" y="39.901" width="5.7" height="5.7" style="fill:#b9121b;fill-rule:nonzero;"/><rect x="34.201" y="5.7" width="5.7" height="5.7" style="fill:#b9121b;fill-rule:nonzero;"/><rect x="34.201" y="11.4" width="5.7" height="5.7" style="fill:#b9121b;fill-rule:nonzero;"/><rect x="28.501" y="11.4" width="5.7" height="5.7" style="fill:#b9121b;fill-rule:nonzero;"/><rect x="28.501" y="17.1" width="5.7" height="5.7" style="fill:#b9121b;fill-rule:nonzero;"/><rect x="22.801" y="17.1" width="5.7" height="5.7" style="fill:#b9121b;fill-rule:nonzero;"/><rect x="22.801" y="22.801" width="5.7" height="5.7" style="fill:#b9121b;fill-rule:nonzero;"/><rect x="17.1" y="22.801" width="5.7" height="5.7" style="fill:#b9121b;fill-rule:nonzero;"/><rect x="39.901" y="39.901" width="5.7" height="5.7" style="fill:#b9121b;fill-rule:nonzero;"/><rect x="34.201" y="39.901" width="5.7" height="5.7" style="fill:#b9121b;fill-rule:nonzero;"/><rect x="34.201" y="34.201" width="5.7" height="5.7" style="fill:#b9121b;fill-rule:nonzero;"/><rect x="28.501" y="34.201" width="5.7" height="5.7" style="fill:#b9121b;fill-rule:nonzero;"/><rect x="28.501" y="28.501" width="5.7" height="5.7" style="fill:#b9121b;fill-rule:nonzero;"/><rect x="22.801" y="28.501" width="5.7" height="5.7" style="fill:#b9121b;fill-rule:nonzero;"/><rect x="39.901" y="22.801" width="5.7" height="5.7" style="fill:#f6e497;fill-rule:nonzero;"/><rect x="45.601" y="22.801" width="5.7" height="5.7" style="fill:#f6e497;fill-rule:nonzero;"/><rect x="39.901" y="17.1" width="5.7" height="5.7" style="fill:#f6e497;fill-rule:nonzero;"/><rect x="39.901" y="28.501" width="5.7" height="5.7" style="fill:#f6e497;fill-rule:nonzero;"/><rect x="34.201" y="22.801" width="5.7" height="5.7" style="fill:#f6e497;fill-rule:nonzero;"/><rect x="45.601" y="68.402" width="5.7" height="5.7" style="fill:#bd8d46;fill-rule:nonzero;"/><rect x="39.901" y="45.601" width="5.7" height="5.7" style="fill:#bd8d46;fill-rule:nonzero;"/><rect x="0" y="57.001" width="5.7" height="5.7" style="fill:#bd8d46;fill-rule:nonzero;"/><rect x="5.7" y="62.701" width="5.7" height="5.7" style="fill:#bd8d46;fill-rule:nonzero;"/><rect x="5.7" y="57.001" width="5.7" height="5.7" style="fill:#bd8d46;fill-rule:nonzero;"/><rect x="5.7" y="51.301" width="5.7" height="5.7" style="fill:#bd8d46;fill-rule:nonzero;"/><rect x="11.4" y="57.001" width="5.7" height="5.7" style="fill:#bd8d46;fill-rule:nonzero;"/><rect x="11.4" y="51.301" width="5.7" height="5.7" style="fill:#bd8d46;fill-rule:nonzero;"/><rect x="11.4" y="45.601" width="5.7" height="5.7" style="fill:#bd8d46;fill-rule:nonzero;"/><rect x="17.1" y="51.301" width="5.7" height="5.7" style="fill:#bd8d46;fill-rule:nonzero;"/><rect x="17.1" y="45.601" width="5.7" height="5.7" style="fill:#bd8d46;fill-rule:nonzero;"/><rect x="79.802" y="57.001" width="5.7" height="5.7" style="fill:#bd8d46;fill-rule:nonzero;"/><rect x="74.102" y="62.701" width="5.7" height="5.7" style="fill:#bd8d46;fill-rule:nonzero;"/><rect x="74.102" y="57.001" width="5.7" height="5.7" style="fill:#bd8d46;fill-rule:nonzero;"/><rect x="74.102" y="51.301" width="5.7" height="5.7" style="fill:#bd8d46;fill-rule:nonzero;"/><rect x="68.402" y="57.001" width="5.7" height="5.7" style="fill:#bd8d46;fill-rule:nonzero;"/><rect x="68.402" y="51.301" width="5.7" height="5.7" style="fill:#bd8d46;fill-rule:nonzero;"/><rect x="68.402" y="45.601" width="5.7" height="5.7" style="fill:#bd8d46;fill-rule:nonzero;"/><rect x="62.701" y="51.301" width="5.7" height="5.7" style="fill:#bd8d46;fill-rule:nonzero;"/><rect x="62.701" y="45.601" width="5.7" height="5.7" style="fill:#bd8d46;fill-rule:nonzero;"/><rect x="39.901" y="68.402" width="5.7" height="5.7" style="fill:#bd8d46;fill-rule:nonzero;"/><rect x="34.201" y="62.701" width="5.7" height="5.7" style="fill:#bd8d46;fill-rule:nonzero;"/><rect x="34.201" y="68.402" width="5.7" height="5.7" style="fill:#bd8d46;fill-rule:nonzero;"/><rect x="28.501" y="57.001" width="5.7" height="5.7" style="fill:#bd8d46;fill-rule:nonzero;"/><rect x="28.501" y="51.301" width="5.7" height="5.7" style="fill:#bd8d46;fill-rule:nonzero;"/><rect x="28.501" y="62.701" width="5.7" height="5.7" style="fill:#bd8d46;fill-rule:nonzero;"/><rect x="22.801" y="51.301" width="5.7" height="5.7" style="fill:#bd8d46;fill-rule:nonzero;"/><rect x="22.801" y="45.601" width="5.7" height="5.7" style="fill:#bd8d46;fill-rule:nonzero;"/><rect x="17.1" y="39.901" width="5.7" height="5.7" style="fill:#bd8d46;fill-rule:nonzero;"/><rect x="62.701" y="39.901" width="5.7" height="5.7" style="fill:#bd8d46;fill-rule:nonzero;"/><rect x="22.801" y="57.001" width="5.7" height="5.7" style="fill:#bd8d46;fill-rule:nonzero;"/><rect x="39.901" y="62.701" width="5.7" height="5.7" style="fill:#bd8d46;fill-rule:nonzero;"/><rect x="39.901" y="57.001" width="5.7" height="5.7" style="fill:#bd8d46;fill-rule:nonzero;"/><rect x="39.901" y="51.301" width="5.7" height="5.7" style="fill:#bd8d46;fill-rule:nonzero;"/><rect x="51.301" y="57.001" width="5.7" height="5.7" style="fill:#bd8d46;fill-rule:nonzero;"/><rect x="51.301" y="51.301" width="5.7" height="5.7" style="fill:#bd8d46;fill-rule:nonzero;"/><rect x="51.301" y="62.701" width="5.7" height="5.7" style="fill:#bd8d46;fill-rule:nonzero;"/><rect x="45.601" y="62.701" width="5.7" height="5.7" style="fill:#bd8d46;fill-rule:nonzero;"/><rect x="57.001" y="51.301" width="5.7" height="5.7" style="fill:#bd8d46;fill-rule:nonzero;"/><rect x="57.001" y="45.601" width="5.7" height="5.7" style="fill:#bd8d46;fill-rule:nonzero;"/><rect x="57.001" y="57.001" width="5.7" height="5.7" style="fill:#bd8d46;fill-rule:nonzero;"/><rect x="28.501" y="22.801" width="5.7" height="5.7" style="fill:#4c1b1b;fill-rule:nonzero;"/><rect x="34.201" y="17.1" width="5.7" height="5.7" style="fill:#4c1b1b;fill-rule:nonzero;"/><rect x="39.901" y="11.4" width="5.7" height="5.7" style="fill:#4c1b1b;fill-rule:nonzero;"/><rect x="45.601" y="17.1" width="5.7" height="5.7" style="fill:#4c1b1b;fill-rule:nonzero;"/><rect x="51.301" y="22.801" width="5.7" height="5.7" style="fill:#4c1b1b;fill-rule:nonzero;"/><rect x="34.201" y="28.501" width="5.7" height="5.7" style="fill:#4c1b1b;fill-rule:nonzero;"/><rect x="39.901" y="34.201" width="5.7" height="5.7" style="fill:#4c1b1b;fill-rule:nonzero;"/><rect x="45.601" y="28.501" width="5.7" height="5.7" style="fill:#4c1b1b;fill-rule:nonzero;"/></g></svg>