<?xml version="1.0" encoding="UTF-8" standalone="no"?><!DOCTYPE svg PUBLIC "-//W3C//DTD SVG 1.1//EN" "http://www.w3.org/Graphics/SVG/1.1/DTD/svg11.dtd"><svg width="100%" height="100%" viewBox="0 0 120 75" version="1.1" xmlns="http://www.w3.org/2000/svg" xmlns:xlink="http://www.w3.org/1999/xlink" xml:space="preserve" xmlns:serif="http://www.serif.com/" style="fill-rule:evenodd;clip-rule:evenodd;stroke-linejoin:round;stroke-miterlimit:1.41421;"><rect x="45.717" y="68.571" width="5.712" height="5.714" style="fill:#bd8d46;fill-rule:nonzero;"/><rect x="40.001" y="68.571" width="5.715" height="5.714" style="fill:#bd8d46;fill-rule:nonzero;"/><rect x="34.286" y="68.571" width="5.715" height="5.714" style="fill:#bd8d46;fill-rule:nonzero;"/><rect x="45.717" y="62.857" width="5.712" height="5.714" style="fill:#bd8d46;fill-rule:nonzero;"/><rect x="34.286" y="62.857" width="5.715" height="5.714" style="fill:#bd8d46;fill-rule:nonzero;"/><rect x="45.717" y="57.143" width="5.712" height="5.714" style="fill:#bd8d46;fill-rule:nonzero;"/><rect x="45.717" y="51.429" width="5.712" height="5.714" style="fill:#bd8d46;fill-rule:nonzero;"/><rect x="45.717" y="45.715" width="5.712" height="5.714" style="fill:#bd8d46;fill-rule:nonzero;"/><rect x="45.717" y="40" width="5.712" height="5.714" style="fill:#bd8d46;fill-rule:nonzero;"/><rect x="57.144" y="51.429" width="5.715" height="5.714" style="fill:#bd8d46;fill-rule:nonzero;"/><rect x="57.144" y="45.715" width="5.715" height="5.714" style="fill:#bd8d46;fill-rule:nonzero;"/><rect x="57.144" y="40" width="5.715" height="5.714" style="fill:#bd8d46;fill-rule:nonzero;"/><rect x="57.144" y="68.571" width="5.715" height="5.714" style="fill:#bd8d46;fill-rule:nonzero;"/><rect x="57.144" y="62.857" width="5.715" height="5.714" style="fill:#bd8d46;fill-rule:nonzero;"/><rect x="57.144" y="57.143" width="5.715" height="5.714" style="fill:#bd8d46;fill-rule:nonzero;"/><rect x="22.858" y="68.571" width="5.715" height="5.714" style="fill:#bd8d46;fill-rule:nonzero;"/><rect x="17.143" y="68.571" width="5.715" height="5.714" style="fill:#bd8d46;fill-rule:nonzero;"/><rect x="28.574" y="68.571" width="5.712" height="5.714" style="fill:#bd8d46;fill-rule:nonzero;"/><rect x="40.001" y="57.143" width="5.715" height="5.714" style="fill:#bd8d46;fill-rule:nonzero;"/><rect x="34.286" y="57.143" width="5.715" height="5.714" style="fill:#bd8d46;fill-rule:nonzero;"/><rect x="28.574" y="51.429" width="5.712" height="5.714" style="fill:#bd8d46;fill-rule:nonzero;"/><rect x="22.858" y="45.715" width="5.715" height="5.714" style="fill:#bd8d46;fill-rule:nonzero;"/><rect x="22.858" y="40" width="5.715" height="5.714" style="fill:#bd8d46;fill-rule:nonzero;"/><rect x="22.858" y="34.286" width="5.715" height="5.714" style="fill:#bd8d46;fill-rule:nonzero;"/><rect x="22.858" y="28.572" width="5.715" height="5.714" style="fill:#bd8d46;fill-rule:nonzero;"/><rect x="17.143" y="45.715" width="5.715" height="5.714" style="fill:#bd8d46;fill-rule:nonzero;"/><rect x="11.431" y="45.715" width="5.712" height="5.714" style="fill:#bd8d46;fill-rule:nonzero;"/><rect x="5.715" y="45.715" width="5.715" height="5.714" style="fill:#bd8d46;fill-rule:nonzero;"/><rect x="17.143" y="40" width="5.715" height="5.714" style="fill:#bd8d46;fill-rule:nonzero;"/><rect x="17.143" y="34.286" width="5.715" height="5.714" style="fill:#bd8d46;fill-rule:nonzero;"/><rect x="11.431" y="40" width="5.712" height="5.714" style="fill:#bd8d46;fill-rule:nonzero;"/><rect x="68.571" y="68.571" width="5.715" height="5.714" style="fill:#bd8d46;fill-rule:nonzero;"/><rect x="74.287" y="68.571" width="5.715" height="5.714" style="fill:#bd8d46;fill-rule:nonzero;"/><rect x="80.002" y="68.571" width="5.712" height="5.714" style="fill:#bd8d46;fill-rule:nonzero;"/><rect x="68.571" y="62.857" width="5.715" height="5.714" style="fill:#bd8d46;fill-rule:nonzero;"/><rect x="80.002" y="62.857" width="5.712" height="5.714" style="fill:#bd8d46;fill-rule:nonzero;"/><rect x="68.571" y="57.143" width="5.715" height="5.714" style="fill:#bd8d46;fill-rule:nonzero;"/><rect x="68.571" y="51.429" width="5.715" height="5.714" style="fill:#bd8d46;fill-rule:nonzero;"/><rect x="68.571" y="45.715" width="5.715" height="5.714" style="fill:#bd8d46;fill-rule:nonzero;"/><rect x="68.571" y="40" width="5.715" height="5.714" style="fill:#bd8d46;fill-rule:nonzero;"/><rect x="91.43" y="68.571" width="5.715" height="5.714" style="fill:#bd8d46;fill-rule:nonzero;"/><rect x="97.145" y="68.571" width="5.712" height="5.714" style="fill:#bd8d46;fill-rule:nonzero;"/><rect x="85.714" y="68.571" width="5.715" height="5.714" style="fill:#bd8d46;fill-rule:nonzero;"/><rect x="74.287" y="57.143" width="5.715" height="5.714" style="fill:#bd8d46;fill-rule:nonzero;"/><rect x="80.002" y="57.143" width="5.712" height="5.714" style="fill:#bd8d46;fill-rule:nonzero;"/><rect x="85.714" y="51.429" width="5.715" height="5.714" style="fill:#bd8d46;fill-rule:nonzero;"/><rect x="91.43" y="45.715" width="5.715" height="5.714" style="fill:#bd8d46;fill-rule:nonzero;"/><rect x="91.43" y="40" width="5.715" height="5.714" style="fill:#bd8d46;fill-rule:nonzero;"/><rect x="91.43" y="34.286" width="5.715" height="5.714" style="fill:#bd8d46;fill-rule:nonzero;"/><rect x="91.43" y="28.572" width="5.715" height="5.714" style="fill:#bd8d46;fill-rule:nonzero;"/><rect x="97.145" y="45.715" width="5.712" height="5.714" style="fill:#bd8d46;fill-rule:nonzero;"/><rect x="102.857" y="45.715" width="5.715" height="5.714" style="fill:#bd8d46;fill-rule:nonzero;"/><rect x="108.573" y="45.715" width="5.715" height="5.714" style="fill:#bd8d46;fill-rule:nonzero;"/><rect x="97.145" y="40" width="5.712" height="5.714" style="fill:#bd8d46;fill-rule:nonzero;"/><rect x="97.145" y="34.286" width="5.712" height="5.714" style="fill:#bd8d46;fill-rule:nonzero;"/><rect x="102.857" y="40" width="5.715" height="5.714" style="fill:#bd8d46;fill-rule:nonzero;"/><rect x="0" y="34.286" width="5.715" height="5.714" style="fill:#9e0000;fill-rule:nonzero;"/><rect x="11.431" y="22.857" width="5.712" height="5.714" style="fill:#9e0000;fill-rule:nonzero;"/><rect x="102.857" y="22.857" width="5.715" height="5.714" style="fill:#9e0000;fill-rule:nonzero;"/><rect x="114.288" y="34.286" width="5.712" height="5.714" style="fill:#9e0000;fill-rule:nonzero;"/><rect x="114.288" y="22.857" width="5.712" height="5.714" style="fill:#9e0000;fill-rule:nonzero;"/><rect x="0" y="22.857" width="5.715" height="5.714" style="fill:#9e0000;fill-rule:nonzero;"/><rect x="57.144" y="28.572" width="5.715" height="5.714" style="fill:#9e0000;fill-rule:nonzero;"/><rect x="57.144" y="34.286" width="5.715" height="5.714" style="fill:#9e0000;fill-rule:nonzero;"/><rect x="57.144" y="17.143" width="5.715" height="5.714" style="fill:#540000;fill-rule:nonzero;"/><rect x="57.144" y="5.714" width="5.715" height="5.714" style="fill:#9e0000;fill-rule:nonzero;"/><rect x="62.859" y="5.714" width="5.712" height="5.714" style="fill:#9e0000;fill-rule:nonzero;"/><rect x="68.571" y="11.429" width="5.715" height="5.714" style="fill:#9e0000;fill-rule:nonzero;"/><rect x="68.571" y="22.857" width="5.715" height="5.714" style="fill:#9e0000;fill-rule:nonzero;"/><rect x="74.287" y="17.143" width="5.715" height="5.714" style="fill:#9e0000;fill-rule:nonzero;"/><rect x="57.144" y="0" width="5.715" height="5.714" style="fill:#9e0000;fill-rule:nonzero;"/><rect x="51.429" y="5.714" width="5.715" height="5.714" style="fill:#9e0000;fill-rule:nonzero;"/><rect x="45.717" y="11.429" width="5.712" height="5.714" style="fill:#9e0000;fill-rule:nonzero;"/><rect x="40.001" y="17.143" width="5.715" height="5.714" style="fill:#9e0000;fill-rule:nonzero;"/><rect x="45.717" y="22.857" width="5.712" height="5.714" style="fill:#9e0000;fill-rule:nonzero;"/><rect x="51.429" y="28.572" width="5.715" height="5.714" style="fill:#9e0000;fill-rule:nonzero;"/><rect x="62.859" y="28.572" width="5.712" height="5.714" style="fill:#9e0000;fill-rule:nonzero;"/><rect x="62.859" y="11.429" width="5.712" height="5.714" style="fill:#9e0000;fill-rule:nonzero;"/><rect x="68.571" y="17.143" width="5.715" height="5.714" style="fill:#9e0000;fill-rule:nonzero;"/><rect x="62.859" y="22.857" width="5.712" height="5.714" style="fill:#9e0000;fill-rule:nonzero;"/><rect x="51.429" y="11.429" width="5.715" height="5.714" style="fill:#9e0000;fill-rule:nonzero;"/><rect x="45.717" y="17.143" width="5.712" height="5.714" style="fill:#9e0000;fill-rule:nonzero;"/><rect x="51.429" y="22.857" width="5.715" height="5.714" style="fill:#9e0000;fill-rule:nonzero;"/></svg>