<?xml version="1.0" encoding="UTF-8" standalone="no"?><!DOCTYPE svg PUBLIC "-//W3C//DTD SVG 1.1//EN" "http://www.w3.org/Graphics/SVG/1.1/DTD/svg11.dtd"><svg width="100%" height="100%" viewBox="0 0 225 62" version="1.1" xmlns="http://www.w3.org/2000/svg" xmlns:xlink="http://www.w3.org/1999/xlink" xml:space="preserve" xmlns:serif="http://www.serif.com/" style="fill-rule:evenodd;clip-rule:evenodd;stroke-linejoin:round;stroke-miterlimit:2;"><g><path d="M88.483,3.83l0,0.947l1.894,0.577l0,53.115l-1.894,0.576l0,0.947l9.141,0l0,-0.947l-1.194,-0.576l0,-53.115l5.311,0l0,53.115l-1.194,0.576l0,0.947l9.1,0l0,-0.947l-1.853,-0.576l0,-53.115l1.853,-0.577l0,-0.947l-21.164,0Z" style="fill:#b9121b;fill-rule:nonzero;"/><path d="M131.758,31.746c-0.055,-2.745 -0.563,-6.038 -1.524,-9.881l-3.376,-12.97c-0.384,-1.236 -0.577,-2.416 -0.577,-3.541c0,-0.906 0.302,-1.414 0.906,-1.524l0,-0.823c-5.325,1.29 -9.141,4.68 -11.446,10.17c-2.306,5.517 -3.432,11.899 -3.377,19.146c0,2.306 0.453,5.202 1.359,8.688l3.788,14.781c0.33,1.29 0.494,2.21 0.494,2.759c0,0.467 -0.082,0.837 -0.247,1.112c-0.164,0.329 -0.411,0.521 -0.741,0.576l0,0.865c2.69,-0.577 4.996,-1.784 6.917,-3.624c1.84,-1.811 3.349,-4.09 4.53,-6.834c2.196,-5.792 3.294,-12.092 3.294,-18.9Zm-9.882,-24.869c-0.385,1.18 -0.577,2.58 -0.577,4.2c0,0.631 0.055,1.221 0.165,1.77c0.055,0.632 0.165,1.428 0.329,2.388l3.994,17.253c0.714,4.227 1.071,7.795 1.071,10.705c0,2.608 -0.33,5.174 -0.988,7.7c-0.742,2.58 -1.922,4.68 -3.541,6.299c0.384,-0.988 0.576,-2.251 0.576,-3.788c0,-1.784 -0.316,-3.884 -0.947,-6.299l-3.541,-15.523c-0.714,-3.157 -1.098,-6.698 -1.153,-10.623c0,-2.69 0.357,-5.284 1.071,-7.782c0.686,-2.416 1.866,-4.516 3.541,-6.3Z" style="fill:#b9121b;fill-rule:nonzero;"/><path d="M142.298,23.47l0,-18.116l1.194,-0.577l0,-0.947l-9.14,0l0,0.947l1.894,0.577l0,53.115l-1.894,0.576l0,0.947l9.14,0l0,-0.947l-1.194,-0.576l0,-25.034c1.235,2.031 3.006,3.486 5.312,4.364l0,20.67l-1.194,0.576l0,0.947l9.099,0l0,-0.947l-1.853,-0.576l0,-20.217c0.522,-0.11 1.03,-0.288 1.524,-0.535l-0.577,-1.153c-1.015,0.329 -2.086,0.494 -3.211,0.494c-2.416,0 -4.516,-0.81 -6.3,-2.429c-1.812,-1.483 -2.745,-3.432 -2.8,-5.847c0.055,-2.8 0.988,-4.982 2.8,-6.547c1.784,-1.592 3.884,-2.388 6.3,-2.388c1.18,0 2.251,0.206 3.211,0.618l0.577,-1.112c-0.439,-0.275 -0.947,-0.439 -1.524,-0.494l0,-13.505l1.853,-0.577l0,-0.947l-9.099,0l0,0.947l1.194,0.577l0,13.834c-2.306,0.906 -4.077,2.333 -5.312,4.282Z" style="fill:#b9121b;fill-rule:nonzero;"/><path d="M165.232,33.435c0.11,0.439 0.536,0.919 1.277,1.441c0.659,0.549 1.606,0.823 2.841,0.823c1.345,0 2.649,-0.508 3.911,-1.523c1.181,-0.934 1.798,-2.443 1.853,-4.529c0,-1.126 -0.315,-2.032 -0.947,-2.718c-0.604,-0.714 -1.413,-1.07 -2.429,-1.07c-2.086,0.054 -3.129,1.056 -3.129,3.005c0.055,1.977 1.015,2.965 2.882,2.965c1.043,-0.055 1.661,-0.508 1.853,-1.359l0.247,0.082c-0.412,2.471 -1.88,3.734 -4.406,3.788c-2.525,-0.054 -3.843,-1.907 -3.953,-5.558c0,-2.141 0.563,-3.884 1.689,-5.229c1.015,-1.345 2.25,-2.32 3.705,-2.924c0.796,-0.356 1.524,-0.672 2.183,-0.947c0.686,-0.274 1.331,-0.604 1.935,-0.988c0.631,-0.466 1.111,-1.153 1.441,-2.059c0.274,-0.823 0.412,-1.976 0.412,-3.458l0,-2.594c-0.11,-4.722 -2.965,-7.11 -8.565,-7.165c-5.984,0.165 -8.935,2.69 -8.852,7.577l0,47.474l-1.894,0.576l0,0.947l9.799,0l0,-0.947l-1.853,-0.576l0,-25.034Zm0,-9.965l0,-15.069c0,-1.647 0.316,-2.663 0.947,-3.047c0.549,-0.275 1.071,-0.412 1.565,-0.412c0.576,0 1.167,0.137 1.771,0.412c0.631,0.384 0.974,1.4 1.029,3.047l0,7.164c0,0.906 -0.165,1.688 -0.494,2.347c-0.412,0.686 -0.92,1.304 -1.524,1.853c-0.521,0.576 -1.084,1.139 -1.688,1.688c-0.631,0.576 -1.166,1.249 -1.606,2.017Z" style="fill:#b9121b;fill-rule:nonzero;"/><path d="M200.56,31.746c-0.055,-2.745 -0.563,-6.038 -1.523,-9.881l-3.377,-12.97c-0.384,-1.236 -0.576,-2.416 -0.576,-3.541c0,-0.906 0.302,-1.414 0.906,-1.524l0,-0.823c-5.326,1.29 -9.141,4.68 -11.447,10.17c-2.306,5.517 -3.431,11.899 -3.376,19.146c0,2.306 0.453,5.202 1.359,8.688l3.788,14.781c0.329,1.29 0.494,2.21 0.494,2.759c0,0.467 -0.083,0.837 -0.247,1.112c-0.165,0.329 -0.412,0.521 -0.741,0.576l0,0.865c2.69,-0.577 4.995,-1.784 6.917,-3.624c1.839,-1.811 3.349,-4.09 4.529,-6.834c2.196,-5.792 3.294,-12.092 3.294,-18.9Zm-9.882,-24.869c-0.384,1.18 -0.576,2.58 -0.576,4.2c0,0.631 0.055,1.221 0.164,1.77c0.055,0.632 0.165,1.428 0.33,2.388l3.994,17.253c0.713,4.227 1.07,7.795 1.07,10.705c0,2.608 -0.329,5.174 -0.988,7.7c-0.741,2.58 -1.921,4.68 -3.541,6.299c0.384,-0.988 0.577,-2.251 0.577,-3.788c0,-1.784 -0.316,-3.884 -0.947,-6.299l-3.541,-15.523c-0.714,-3.157 -1.098,-6.698 -1.153,-10.623c0,-2.69 0.357,-5.284 1.07,-7.782c0.686,-2.416 1.867,-4.516 3.541,-6.3Z" style="fill:#b9121b;fill-rule:nonzero;"/><path d="M224.318,59.992l0,-0.947l-1.853,-0.576l0,-20.217c0.521,-0.11 1.029,-0.288 1.523,-0.535l-0.576,-1.153c-1.016,0.329 -2.086,0.494 -3.212,0.494c-2.415,0 -4.515,-0.81 -6.299,-2.429c-1.812,-1.483 -2.745,-3.432 -2.8,-5.847c0,-2.141 0.562,-3.884 1.688,-5.229c1.016,-1.345 2.251,-2.32 3.706,-2.924c0.796,-0.356 1.523,-0.672 2.182,-0.947c0.686,-0.274 1.331,-0.604 1.935,-0.988c0.631,-0.466 1.112,-1.153 1.441,-2.059c0.275,-0.823 0.412,-1.976 0.412,-3.458l0,-2.594c-0.11,-4.722 -2.965,-7.11 -8.564,-7.165c-5.984,0.165 -8.935,2.69 -8.853,7.577l0,47.474l-1.894,0.576l0,0.947l21.164,0Zm-13.217,-1.523l0,-25.034c1.235,2.031 3.005,3.486 5.311,4.364l0,20.67l-5.311,0Zm0,-34.999l0,-15.069c0,-1.647 0.315,-2.663 0.947,-3.047c0.549,-0.275 1.07,-0.412 1.564,-0.412c0.577,0 1.167,0.137 1.771,0.412c0.631,0.384 0.974,1.4 1.029,3.047l0,7.164c0,0.906 -0.164,1.688 -0.494,2.347c-0.412,0.686 -0.919,1.304 -1.523,1.853c-0.522,0.576 -1.085,1.139 -1.688,1.688c-0.632,0.576 -1.167,1.249 -1.606,2.017Z" style="fill:#b9121b;fill-rule:nonzero;"/></g><g><path d="M40,45l-5,0l0,-5l5,0l0,5Z" style="fill:#b9121b;fill-rule:nonzero;"/><path d="M40,50l-5,0l0,-5l5,0l0,5Z" style="fill:#b9121b;fill-rule:nonzero;"/><path d="M40,15l-5,0l0,-5l5,0l0,5Z" style="fill:#b9121b;fill-rule:nonzero;"/><path d="M40,10l-5,0l0,-5l5,0l0,5Z" style="fill:#b9121b;fill-rule:nonzero;"/><path d="M40,5l-5,0l0,-5l5,0l0,5Z" style="fill:#b9121b;fill-rule:nonzero;"/><path d="M60,60l5,0l0,-5l-5,0l0,5Z" style="fill:#b9121b;fill-rule:nonzero;"/><path d="M55,60l5,0l0,-5l-5,0l0,5Z" style="fill:#b9121b;fill-rule:nonzero;"/><path d="M50,60l5,0l0,-5l-5,0l0,5Z" style="fill:#b9121b;fill-rule:nonzero;"/><path d="M45,60l5,0l0,-5l-5,0l0,5Z" style="fill:#b9121b;fill-rule:nonzero;"/><path d="M55,55l5,0l0,-5l-5,0l0,5Z" style="fill:#b9121b;fill-rule:nonzero;"/><path d="M50,55l5,0l0,-5l-5,0l0,5Z" style="fill:#b9121b;fill-rule:nonzero;"/><path d="M45,55l5,0l0,-5l-5,0l0,5Z" style="fill:#b9121b;fill-rule:nonzero;"/><path d="M60,50l5,0l0,-5l-5,0l0,5Z" style="fill:#b9121b;fill-rule:nonzero;"/><path d="M55,50l5,0l0,-5l-5,0l0,5Z" style="fill:#b9121b;fill-rule:nonzero;"/><path d="M50,50l5,0l0,-5l-5,0l0,5Z" style="fill:#b9121b;fill-rule:nonzero;"/><path d="M65,45l5,0l0,-5l-5,0l0,5Z" style="fill:#b9121b;fill-rule:nonzero;"/><path d="M60,45l5,0l0,-5l-5,0l0,5Z" style="fill:#b9121b;fill-rule:nonzero;"/><path d="M55,45l5,0l0,-5l-5,0l0,5Z" style="fill:#b9121b;fill-rule:nonzero;"/><path d="M70,40l5,0l0,-5l-5,0l0,5Z" style="fill:#b9121b;fill-rule:nonzero;"/><path d="M65,40l5,0l0,-5l-5,0l0,5Z" style="fill:#b9121b;fill-rule:nonzero;"/><path d="M60,40l5,0l0,-5l-5,0l0,5Z" style="fill:#b9121b;fill-rule:nonzero;"/><path d="M65,35l5,0l0,-5l-5,0l0,5Z" style="fill:#b9121b;fill-rule:nonzero;"/><path d="M60,35l5,0l0,-5l-5,0l0,5Z" style="fill:#b9121b;fill-rule:nonzero;"/><path d="M55,35l5,0l0,-5l-5,0l0,5Z" style="fill:#b9121b;fill-rule:nonzero;"/><path d="M60,30l5,0l0,-5l-5,0l0,5Z" style="fill:#b9121b;fill-rule:nonzero;"/><path d="M55,30l5,0l0,-5l-5,0l0,5Z" style="fill:#b9121b;fill-rule:nonzero;"/><path d="M50,30l5,0l0,-5l-5,0l0,5Z" style="fill:#b9121b;fill-rule:nonzero;"/><path d="M45,35l5,0l0,-5l-5,0l0,5Z" style="fill:#b9121b;fill-rule:nonzero;"/><path d="M40,40l5,0l0,-5l-5,0l0,5Z" style="fill:#b9121b;fill-rule:nonzero;"/><path d="M50,35l5,0l0,-5l-5,0l0,5Z" style="fill:#b9121b;fill-rule:nonzero;"/><path d="M45,40l5,0l0,-5l-5,0l0,5Z" style="fill:#b9121b;fill-rule:nonzero;"/><path d="M40,45l5,0l0,-5l-5,0l0,5Z" style="fill:#b9121b;fill-rule:nonzero;"/><path d="M55,25l5,0l0,-5l-5,0l0,5Z" style="fill:#b9121b;fill-rule:nonzero;"/><path d="M50,25l5,0l0,-5l-5,0l0,5Z" style="fill:#b9121b;fill-rule:nonzero;"/><path d="M45,25l5,0l0,-5l-5,0l0,5Z" style="fill:#b9121b;fill-rule:nonzero;"/><path d="M50,20l5,0l0,-5l-5,0l0,5Z" style="fill:#b9121b;fill-rule:nonzero;"/><path d="M45,20l5,0l0,-5l-5,0l0,5Z" style="fill:#b9121b;fill-rule:nonzero;"/><path d="M40,20l5,0l0,-5l-5,0l0,5Z" style="fill:#b9121b;fill-rule:nonzero;"/><path d="M45,15l5,0l0,-5l-5,0l0,5Z" style="fill:#b9121b;fill-rule:nonzero;"/><path d="M40,15l5,0l0,-5l-5,0l0,5Z" style="fill:#b9121b;fill-rule:nonzero;"/><path d="M40,10l5,0l0,-5l-5,0l0,5Z" style="fill:#b9121b;fill-rule:nonzero;"/><path d="M40,60l5,0l0,-5l-5,0l0,5Z" style="fill:#b9121b;fill-rule:nonzero;"/><path d="M15,60l-5,0l0,-5l5,0l0,5Z" style="fill:#b9121b;fill-rule:nonzero;"/><path d="M20,60l-5,0l0,-5l5,0l0,5Z" style="fill:#b9121b;fill-rule:nonzero;"/><path d="M25,60l-5,0l0,-5l5,0l0,5Z" style="fill:#b9121b;fill-rule:nonzero;"/><path d="M30,60l-5,0l0,-5l5,0l0,5Z" style="fill:#b9121b;fill-rule:nonzero;"/><path d="M20,55l-5,0l0,-5l5,0l0,5Z" style="fill:#b9121b;fill-rule:nonzero;"/><path d="M25,55l-5,0l0,-5l5,0l0,5Z" style="fill:#b9121b;fill-rule:nonzero;"/><path d="M30,55l-5,0l0,-5l5,0l0,5Z" style="fill:#b9121b;fill-rule:nonzero;"/><path d="M15,50l-5,0l0,-5l5,0l0,5Z" style="fill:#b9121b;fill-rule:nonzero;"/><path d="M20,50l-5,0l0,-5l5,0l0,5Z" style="fill:#b9121b;fill-rule:nonzero;"/><path d="M25,50l-5,0l0,-5l5,0l0,5Z" style="fill:#b9121b;fill-rule:nonzero;"/><path d="M10,45l-5,0l0,-5l5,0l0,5Z" style="fill:#b9121b;fill-rule:nonzero;"/><path d="M15,45l-5,0l0,-5l5,0l0,5Z" style="fill:#b9121b;fill-rule:nonzero;"/><path d="M20,45l-5,0l0,-5l5,0l0,5Z" style="fill:#b9121b;fill-rule:nonzero;"/><path d="M5,40l-5,0l0,-5l5,0l0,5Z" style="fill:#b9121b;fill-rule:nonzero;"/><path d="M10,40l-5,0l0,-5l5,0l0,5Z" style="fill:#b9121b;fill-rule:nonzero;"/><path d="M15,40l-5,0l0,-5l5,0l0,5Z" style="fill:#b9121b;fill-rule:nonzero;"/><path d="M10,35l-5,0l0,-5l5,0l0,5Z" style="fill:#b9121b;fill-rule:nonzero;"/><path d="M15,35l-5,0l0,-5l5,0l0,5Z" style="fill:#b9121b;fill-rule:nonzero;"/><path d="M20,35l-5,0l0,-5l5,0l0,5Z" style="fill:#b9121b;fill-rule:nonzero;"/><path d="M15,30l-5,0l0,-5l5,0l0,5Z" style="fill:#b9121b;fill-rule:nonzero;"/><path d="M20,30l-5,0l0,-5l5,0l0,5Z" style="fill:#b9121b;fill-rule:nonzero;"/><path d="M25,30l-5,0l0,-5l5,0l0,5Z" style="fill:#b9121b;fill-rule:nonzero;"/><path d="M30,35l-5,0l0,-5l5,0l0,5Z" style="fill:#b9121b;fill-rule:nonzero;"/><path d="M35,40l-5,0l0,-5l5,0l0,5Z" style="fill:#b9121b;fill-rule:nonzero;"/><path d="M25,35l-5,0l0,-5l5,0l0,5Z" style="fill:#b9121b;fill-rule:nonzero;"/><path d="M30,40l-5,0l0,-5l5,0l0,5Z" style="fill:#b9121b;fill-rule:nonzero;"/><path d="M35,45l-5,0l0,-5l5,0l0,5Z" style="fill:#b9121b;fill-rule:nonzero;"/><path d="M20,25l-5,0l0,-5l5,0l0,5Z" style="fill:#b9121b;fill-rule:nonzero;"/><path d="M25,25l-5,0l0,-5l5,0l0,5Z" style="fill:#b9121b;fill-rule:nonzero;"/><path d="M30,25l-5,0l0,-5l5,0l0,5Z" style="fill:#b9121b;fill-rule:nonzero;"/><path d="M25,20l-5,0l0,-5l5,0l0,5Z" style="fill:#b9121b;fill-rule:nonzero;"/><path d="M30,20l-5,0l0,-5l5,0l0,5Z" style="fill:#b9121b;fill-rule:nonzero;"/><path d="M35,20l-5,0l0,-5l5,0l0,5Z" style="fill:#b9121b;fill-rule:nonzero;"/><path d="M30,15l-5,0l0,-5l5,0l0,5Z" style="fill:#b9121b;fill-rule:nonzero;"/><path d="M35,15l-5,0l0,-5l5,0l0,5Z" style="fill:#b9121b;fill-rule:nonzero;"/><path d="M35,10l-5,0l0,-5l5,0l0,5Z" style="fill:#b9121b;fill-rule:nonzero;"/><path d="M35,60l-5,0l0,-5l5,0l0,5Z" style="fill:#b9121b;fill-rule:nonzero;"/><path d="M40,25l-5,0l0,5l5,0l0,-5Z" style="fill:#f6e497;fill-rule:nonzero;"/><path d="M40,30l-5,0l0,5l5,0l0,-5Z" style="fill:#f6e497;fill-rule:nonzero;"/><path d="M40,20l-5,0l0,5l5,0l0,-5Z" style="fill:#f6e497;fill-rule:nonzero;"/><path d="M40,25l5,0l0,5l-5,0l0,-5Z" style="fill:#f6e497;fill-rule:nonzero;"/><path d="M35,25l-5,0l0,5l5,0l0,-5Z" style="fill:#f6e497;fill-rule:nonzero;"/><path d="M40,15l-5,0l0,5l5,0l0,-5Z" style="fill:#4c1b1b;fill-rule:nonzero;"/><path d="M45,20l-5,0l0,5l5,0l0,-5Z" style="fill:#4c1b1b;fill-rule:nonzero;"/><path d="M50,25l-5,0l0,5l5,0l0,-5Z" style="fill:#4c1b1b;fill-rule:nonzero;"/><path d="M45,30l-5,0l0,5l5,0l0,-5Z" style="fill:#4c1b1b;fill-rule:nonzero;"/><path d="M40,35l-5,0l0,5l5,0l0,-5Z" style="fill:#4c1b1b;fill-rule:nonzero;"/><path d="M30,20l5,0l0,5l-5,0l0,-5Z" style="fill:#4c1b1b;fill-rule:nonzero;"/><path d="M25,25l5,0l0,5l-5,0l0,-5Z" style="fill:#4c1b1b;fill-rule:nonzero;"/><path d="M30,30l5,0l0,5l-5,0l0,-5Z" style="fill:#4c1b1b;fill-rule:nonzero;"/></g></svg>