<svg viewBox="0 0 25 25" xmlns="http://www.w3.org/2000/svg" fill-rule="evenodd" clip-rule="evenodd" stroke-linejoin="round" stroke-miterlimit="1.414"><path d="M23.788 12.128c0 6.452-5.221 11.654-11.647 11.654C5.701 23.782.5 18.58.5 12.128.5 5.708 5.701.5 12.141.5c6.426 0 11.647 5.208 11.647 11.628z" fill="#bd8d46" fill-rule="nonzero" stroke="#fff"/><g fill="#fff" fill-rule="nonzero"><path d="M5.045 9.143v7.019l4.22-3.511-4.22-3.508zm13.077-2.184H6.166c-.552 0-1.013.403-1.104.93l5.577 4.639.93.773a.935.935 0 001.149 0l.977-.813 5.531-4.599a1.123 1.123 0 00-1.104-.93zm1.121 9.203V9.143l-4.22 3.508 4.22 3.511z"/><path d="M13.474 13.94l-.756.628a.935.935 0 01-1.149 0l-.974-.81-.568-.473-4.56 3.791c.192.154.435.247.699.247h11.956c.264 0 .507-.093.699-.247l-4.561-3.791-.786.655z"/></g></svg>