<svg viewBox="0 0 25 25" xmlns="http://www.w3.org/2000/svg" fill-rule="evenodd" clip-rule="evenodd" stroke-linejoin="round" stroke-miterlimit="1.414"><path d="M23.788 12.128c0 6.452-5.221 11.654-11.647 11.654C5.701 23.782.5 18.58.5 12.128.5 5.708 5.701.5 12.141.5c6.426 0 11.647 5.208 11.647 11.628z" fill="#bd8d46" fill-rule="nonzero" stroke="#fff"/><path d="M11.29 17.384h.001l.089.092.015.014.069.071.021.021.063.062a18.411 18.411 0 00.181.178l.046.046.023.021a.737.737 0 00.06.057 1.182 1.182 0 00.11.097.1.1 0 00.02.011.265.265 0 00.039.023c.007.004.015.005.023.009.012.004.024.009.036.011a.069.069 0 00.025.004c.011.003.022.004.033.005h.006a.246.246 0 00.026-.002l.023-.003.033-.009.021-.007c.012-.005.024-.013.036-.019l.017-.009c.017-.013.034-.025.051-.042.017-.016.036-.032.055-.051l.012-.012.053-.05.01-.01c.068-.065.145-.139.229-.224l.003-.002c.083-.082.174-.174.27-.274l.009-.008c1.368-1.411 3.903-4.408 3.903-7.257 0-2.721-2.236-4.927-4.757-4.927-2.521 0-4.756 2.206-4.756 4.927 0 2.849 2.533 5.845 3.902 7.257z" fill="#fff"/><path d="M9.584 10.021a2.56 2.56 0 115.12 0 2.56 2.56 0 01-5.12 0z" fill="#bd8d46"/><path d="M13.688 10.021a1.544 1.544 0 10-3.089 0 1.544 1.544 0 003.089 0zm-.151 7.449c-.355.375-.661.673-.873.872a.742.742 0 01-.514.212.786.786 0 01-.547-.232 21.093 21.093 0 01-.851-.852c-.736.154-1.226.428-1.226.738 0 .482 1.172.874 2.618.874s2.618-.392 2.618-.874c0-.31-.489-.584-1.225-.738z" fill="#fff" fill-rule="nonzero"/></svg>