<svg viewBox="0 0 25 25" xmlns="http://www.w3.org/2000/svg" fill-rule="evenodd" clip-rule="evenodd" stroke-linejoin="round" stroke-miterlimit="1.414"><path d="M23.788 12.128c0 6.452-5.221 11.654-11.647 11.654C5.701 23.782.5 18.58.5 12.128.5 5.708 5.701.5 12.141.5c6.426 0 11.647 5.208 11.647 11.628z" fill="#40004c" fill-rule="nonzero" stroke="#fff"/><path d="M23.788 12.128c0 6.452-5.221 11.654-11.647 11.654C5.701 23.782.5 18.58.5 12.128.5 5.708 5.701.5 12.141.5c6.426 0 11.647 5.208 11.647 11.628z" fill="#bd8d46" fill-rule="nonzero" stroke="#fff"/><g fill="#fff"><path d="M15.495 19.205l-1.349-.216c-2.955-.858-5.169-2.692-6.957-5.136-.681-.924-1.291-1.867-1.507-3.007-.242-1.362.151-2.522 1.173-3.465l1.703-.236.308.347 1.1 2.634-.039.511-.799 1.067-.066.734c1.049 1.73 2.49 3 4.37 3.754l.694-.157.944-1.18.72-.19c.636.276 1.251.577 1.88.878l.413.19c.635.321.622.321.57 1.029-.105 1.349-1.127 2.037-2.339 2.358l-.819.085zm1.173-10.54c.491.426.845.989 1.14 1.585l.458 1.5-.039.321-.852.046-.157-.111a4.409 4.409 0 00-1.199-2.542c-.976-1.061-2.194-1.572-3.635-1.533h-.164l-.039-.937.268-.104c.603 0 1.173.065 1.736.229l1.33.603.347.262.38.321.426.36z"/><path d="M15.273 9.464c.786.681 1.271 1.54 1.428 2.561l-.131.177-.76.066-.112-.112c-.131-.904-.583-1.604-1.316-2.122a3.038 3.038 0 00-1.848-.55l-.15-.131-.066-.767.105-.111c1.074-.046 2.018.301 2.85.989z"/><path d="M14.211 12.392c-.111-.838-.74-1.415-1.572-1.434l-.118-.092-.072-.773.085-.098c1.245-.092 2.516.982 2.654 2.227l-.092.085-.885.085z"/></g></svg>