<svg viewBox="0 0 31 31" xmlns="http://www.w3.org/2000/svg" fill-rule="evenodd" clip-rule="evenodd" stroke-linejoin="round" stroke-miterlimit="1.414"><circle cx="15.279" cy="15.279" r="14.051" fill="#fff"/><path d="M29.33 15.279c0 7.732-6.268 14-14 14s-14-6.268-14-14 6.268-14.001 14-14.001 14 6.269 14 14.001z" fill="#ef3d37" fill-rule="nonzero"/><path d="M13.307 17.758l5.107-2.649-5.107-2.664v5.313zm-4.504 2.946c-.62-.203-1.039-.611-1.263-1.226-.546-1.503-.707-7.789.344-9.028.36-.423.823-.67 1.374-.73 2.836-.305 11.6-.261 12.609.103.592.212 1.012.6 1.24 1.192.598 1.554.619 7.206-.079 8.703-.189.405-.497.691-.889.897-1.057.555-11.945.548-13.336.089z" fill="#fff"/><path d="M15.378 0l.098.001.099.002.098.002.098.003.098.003.098.004.195.01.098.006.097.007.097.007.096.007.097.009.097.008.096.01.096.01.096.011.096.011.096.012.095.012.095.013.095.014.095.014.095.015.094.015.095.016.094.017.094.017.094.018.093.018.093.019.094.019.092.02.093.02.093.021.092.022.092.022.092.023.091.023.092.024.091.025.091.025.091.025.09.026.09.026.09.028.09.027.09.028.089.029.089.03.089.029.088.031.089.03.088.032.088.032.175.065.087.033.087.034.086.035.087.035.086.035.086.036.085.037.085.037.085.038.085.037.085.039.168.079.166.08.084.041.083.041.082.043.082.042.082.043.082.043.081.044.081.045.081.044.08.046.16.092.08.047.158.094.078.048.079.049.078.049.155.099.077.051.153.102.151.104.076.052.075.054.149.107.074.054.074.055.073.055.073.056.073.056.072.056.072.057.072.058.071.057.071.059.071.058.07.059.07.06.069.06.069.06.069.061.069.061.067.061.068.062.068.062.067.063.066.063.066.063.066.064.065.064.13.13.064.065.064.066.063.066.064.067.062.067.062.067.062.068.062.068.061.069.061.068.06.069.06.07.059.07.059.07.059.07.058.071.058.072.057.071.057.072.057.073.056.072.055.073.056.074.054.073.055.074.107.149.053.076.053.075.104.152.102.153.05.077.1.155.049.078.048.078.048.078.095.159.047.079.092.16.045.081.045.08.044.082.044.081.043.081.044.082.042.082.042.083.042.083.041.083.08.167.079.168.038.085.038.084.037.085.038.085.036.086.036.086.036.086.034.086.035.087.034.086.034.087.065.175.032.088.031.089.031.088.03.089.03.089.029.089.029.089.028.089.028.09.027.09.026.09.026.091.026.091.025.09.024.092.024.091.024.092.022.092.022.092.022.092.021.092.021.093.02.093.019.093.019.094.018.093.018.094.016.093.017.095.016.094.016.094.014.095.015.095.013.095.013.096.013.095.012.095.011.096.01.097.01.095.01.097.009.096.008.097.008.097.007.097.007.097.005.098.01.195.004.098.004.097.002.099.003.098.001.099.001.098.001.099-.001.099-.001.098-.001.099-.003.098-.002.098-.004.098-.004.098-.005.097-.005.098-.005.098-.007.097-.007.097-.008.096-.008.097-.009.097-.01.096-.01.096-.01.096-.011.096-.012.096-.013.095-.013.095-.013.095-.015.095-.014.095-.016.094-.016.095-.017.094-.016.094-.018.094-.018.093-.019.093-.019.094-.02.092-.021.093-.021.093-.022.092-.022.092-.022.092-.024.091-.024.092-.024.091-.025.091-.026.091-.026.09-.026.09-.027.09-.028.09-.028.09-.029.089-.029.089-.03.089-.03.088-.031.089-.031.088-.032.088-.033.088-.032.087-.034.087-.034.087-.035.086-.034.087-.036.086-.036.086-.036.085-.038.085-.037.085-.038.085-.038.085-.04.084-.039.084-.04.083-.04.083-.041.084-.042.083-.042.082-.042.082-.044.082-.043.082-.044.081-.044.081-.045.081-.045.08-.046.08-.046.08-.047.08-.047.079-.048.079-.048.078-.048.079-.049.078-.05.077-.05.078-.05.077-.051.076-.051.077-.052.076-.052.075-.053.076-.053.075-.054.075-.053.074-.055.074-.054.074-.056.073-.055.073-.056.073-.057.072-.057.072-.057.072-.058.071-.058.071-.059.071-.059.07-.059.07-.06.069-.06.069-.061.069-.061.069-.062.067-.062.068-.062.068-.062.067-.064.066-.063.066-.064.066-.064.065-.065.065-.065.065-.065.064-.066.064-.066.063-.066.064-.067.062-.068.062-.068.062-.067.062-.069.061-.069.061-.069.06-.069.06-.07.059-.07.059-.071.059-.071.058-.071.058-.072.057-.072.057-.072.057-.073.056-.073.055-.073.056-.074.054-.074.055-.074.053-.075.054-.075.053-.076.053-.075.052-.076.052-.077.051-.076.051-.077.05-.078.05-.077.05-.078.049-.079.048-.078.048-.079.048-.079.047-.08.047-.08.046-.08.046-.08.045-.081.045-.081.044-.081.044-.082.043-.082.044-.082.042-.082.042-.083.042-.084.041-.083.04-.083.04-.084.039-.084.04-.085.038-.085.038-.085.037-.085.038-.085.036-.086.036-.086.036-.087.034-.086.035-.087.034-.087.034-.087.032-.088.033-.088.032-.088.031-.089.031-.088.03-.089.03-.089.029-.089.029-.09.028-.09.028-.09.027-.09.026-.09.026-.091.026-.091.025-.091.024-.092.024-.091.024-.092.022-.092.022-.092.022-.093.021-.093.021-.092.02-.094.019-.093.019-.093.018-.094.018-.094.016-.094.017-.095.016-.094.016-.095.014-.095.015-.095.013-.095.013-.095.013-.096.012-.096.011-.096.01-.096.01-.096.01-.097.009-.097.008-.096.008-.097.007-.097.007-.098.005-.098.005-.097.005-.098.004-.098.004-.098.002-.098.003-.099.001-.098.001-.099.001-.099-.001-.098-.001-.099-.001-.098-.003-.099-.002-.097-.004-.098-.004-.098-.005-.097-.005-.098-.005-.097-.007-.097-.007-.097-.008-.097-.008-.096-.009-.097-.01-.095-.01-.097-.01-.096-.011-.095-.012-.095-.013-.096-.013-.095-.013-.095-.015-.095-.014-.094-.016-.094-.016-.095-.017-.093-.016-.094-.018-.093-.018-.094-.019-.093-.019-.093-.02-.093-.021-.092-.021-.092-.022-.092-.022-.092-.022-.092-.024-.091-.024-.092-.024-.09-.025-.091-.026-.091-.026-.09-.026-.09-.027-.09-.028-.089-.028-.089-.029-.089-.029-.089-.03-.089-.03-.088-.031-.089-.031-.088-.032-.087-.033-.088-.032-.087-.034-.086-.034-.087-.035-.086-.034-.086-.036-.086-.036-.086-.036-.085-.038-.085-.037-.084-.038-.085-.038-.084-.04-.084-.039-.084-.04-.083-.04-.083-.041-.083-.042-.083-.042-.082-.042-.082-.044-.081-.043-.081-.044-.082-.044-.08-.045-.081-.045-.08-.046-.08-.046-.079-.047-.079-.047-.08-.048-.078-.048-.078-.048-.078-.049-.078-.05-.077-.05-.077-.05-.077-.051-.076-.051-.076-.052-.076-.052-.075-.053-.076-.053-.074-.054-.075-.053-.074-.055-.073-.054-.074-.056-.073-.055-.072-.056-.073-.057-.072-.057-.071-.057-.072-.058-.071-.058-.07-.059-.07-.059-.07-.059-.07-.06-.069-.06-.068-.061-.069-.061-.068-.062-.068-.062-.067-.062-.067-.062-.067-.064-.066-.063-.066-.064-.065-.064-.065-.065-.065-.065-.064-.065-.064-.066-.063-.066-.063-.066-.063-.067-.062-.068-.062-.068-.061-.067-.061-.069-.061-.069-.06-.069-.06-.069-.06-.07-.059-.07-.058-.071-.059-.071-.057-.071-.058-.072-.057-.072-.056-.072-.056-.073-.056-.073-.055-.073-.055-.074-.054-.074-.054-.074-.053-.075-.054-.075-.052-.076-.052-.075-.052-.076-.051-.077-.051-.076-.051-.077-.049-.078-.05-.077-.049-.078-.049-.079-.048-.078-.047-.079-.047-.079-.047-.08-.046-.08-.046-.08-.046-.08-.044-.081-.045-.081-.044-.081-.043-.082-.043-.082-.042-.082-.043-.082-.041-.083-.041-.084-.04-.083-.04-.083-.04-.084-.039-.084-.039-.085-.037-.085-.038-.085-.037-.085-.037-.085-.036-.086-.035-.086-.035-.087-.035-.086-.034-.087-.033-.087-.033-.087-.032-.088-.032-.088-.032-.088-.03-.089-.031-.088-.029-.089-.03-.089-.029-.089-.028-.09-.027-.09-.028-.09-.026-.09-.026-.09-.025-.091-.025-.091-.025-.091-.024-.092-.023-.091-.023-.092-.022-.092-.022-.092-.021-.093-.02-.093-.02-.092-.019-.094-.019-.093-.018-.093-.018-.094-.017-.094-.017-.094-.016-.095-.015-.094-.015-.095-.014-.095-.014-.095-.013-.095-.012-.095-.012-.096-.011-.096-.011-.096-.01-.096-.01-.096-.008-.097-.009-.097-.007-.096-.007-.097-.007-.097-.006-.098-.005-.098-.005-.097-.004-.098-.003-.098-.003-.098-.002-.098-.002-.099L0 15.378v-.198l.001-.098.002-.099.002-.098.003-.099.003-.097.004-.098.005-.098.005-.097.006-.098.007-.097.007-.097.007-.097.009-.097.008-.096.01-.097.01-.095.011-.097.011-.096.012-.095.012-.095.013-.096.014-.095.014-.095.015-.095.015-.094.016-.094.017-.095.017-.093.018-.094.018-.093.019-.094.019-.093.02-.093.02-.093.021-.092.022-.092.022-.092.023-.092.023-.092.024-.091.025-.092.025-.09.025-.091.026-.091.026-.09.028-.09.027-.09.028-.089.029-.089.03-.089.029-.089.031-.089.03-.088.032-.089.032-.088.032-.087.033-.088.033-.087.034-.086.035-.087.035-.086.035-.086.036-.086.037-.086.037-.085.038-.085.037-.084.039-.085.039-.084.04-.084.04-.084.04-.083.041-.083.041-.083.043-.083.042-.082.043-.082.043-.081.044-.081.045-.082.044-.08.046-.081.046-.08.046-.08.047-.079.047-.079.047-.08.048-.078.049-.078.049-.078.05-.078.049-.077.051-.077.051-.077.051-.076.052-.076.052-.076.052-.075.054-.076.053-.074.054-.075.054-.074.055-.073.055-.074.056-.073.056-.072.056-.073.057-.072.058-.071.057-.072.059-.071.058-.07.059-.07.06-.07.06-.07.06-.069.061-.068.061-.069.061-.068.062-.068.062-.067.063-.067.063-.067.063-.066.064-.066.064-.065.065-.065.065-.065.065-.064.066-.064.066-.063.067-.063.067-.063.067-.062.068-.062.068-.061.069-.061.068-.061.069-.06.07-.06.07-.06.07-.059.07-.058.071-.059.072-.057.071-.058.072-.057.073-.056.072-.056.073-.056.074-.055.073-.055.074-.054.075-.054.074-.053.076-.054.075-.052.076-.052.076-.052.076-.051.077-.051.077-.051.077-.049.078-.05.078-.049.078-.049.078-.048.08-.047.079-.047.079-.047.08-.046.08-.046.081-.046.08-.044.082-.045.081-.044.081-.043.082-.043.082-.042.083-.043.083-.041.083-.041.083-.04.084-.04.084-.04.084-.039.085-.039.084-.037.085-.038.085-.037.086-.037.086-.036.086-.035.086-.035.087-.035.086-.034.087-.033L9.94.96l.087-.032.088-.032.089-.032.088-.03.089-.031.089-.029.089-.03.089-.029.089-.028.09-.027.09-.028.09-.026.091-.026.091-.025.09-.025.092-.025.091-.024.092-.023.092-.023.092-.022.092-.022.092-.021.093-.02.093-.02.093-.019.094-.019.093-.018.094-.018.093-.017.095-.017.094-.016.094-.015.095-.015.095-.014.095-.014.096-.013.095-.012.095-.012.096-.011.097-.011.095-.01.097-.01.096-.008.097-.009.097-.007.097-.007.097-.007.098-.006.097-.005.098-.005.098-.004.097-.003.099-.003.098-.002.099-.002L15.18 0h.198zm-.185 2.093l-.085.001-.085.001-.085.002-.085.003-.085.003-.084.003-.085.004-.084.005-.084.005-.084.005-.084.006-.084.007-.083.007-.083.008-.084.008-.083.009-.083.009-.082.01-.083.01-.082.011-.082.011-.082.012-.082.012-.082.013-.081.013-.082.014-.081.014-.081.015-.081.015-.081.016-.08.016-.08.017-.08.017-.08.018-.08.018-.079.019-.08.018-.079.02-.079.02-.079.021-.078.021-.079.021-.078.022-.078.023-.078.022-.077.024-.078.024-.077.024-.077.025-.077.025-.076.026-.076.026-.077.026-.075.027-.076.028-.076.028-.075.028-.075.029-.075.029-.075.03-.074.03-.074.031-.074.031-.074.031-.074.032-.073.033-.073.033-.073.033-.072.033-.073.034-.072.035-.072.035-.071.035-.072.036-.071.036-.071.037-.071.037-.07.037-.07.038-.07.039-.07.038-.069.039-.069.04-.069.04-.069.04-.068.041-.068.041-.068.041-.068.042-.067.042-.067.043-.067.043-.066.044-.066.044-.066.044-.066.045-.065.045-.065.045-.065.046-.065.046-.064.047-.064.047-.064.047-.063.048-.063.048-.063.048-.062.049-.063.049-.061.05-.062.05-.061.05-.061.05-.061.051-.06.052-.06.051-.06.053-.06.052-.059.053-.058.053-.059.053-.058.054-.058.054-.057.055-.057.054-.057.056-.057.055-.056.056-.056.056-.055.057-.056.057-.054.057-.055.057-.054.058-.054.058-.053.059-.053.058-.053.059-.052.06-.053.06-.051.06-.052.06-.051.061-.05.061-.05.061-.05.062-.05.061-.049.063-.049.062-.048.063-.048.063-.048.063-.047.064-.047.064-.047.064-.046.065-.046.065-.045.065-.045.065-.045.066-.044.066-.044.066-.044.066-.043.067-.043.067-.042.067-.042.068-.041.068-.041.068-.041.068-.04.069-.04.069-.04.069-.039.069-.038.07-.039.07-.038.07-.037.07-.037.071-.037.071-.036.071-.036.072-.035.071-.035.072-.035.072-.034.073-.033.072-.033.073-.033.073-.033.073-.032.074-.031.074-.031.074-.031.074-.03.074-.03.075-.029.075-.029.075-.028.075-.028.076-.028.076-.027.075-.026.077-.026.076-.026.076-.025.077-.025.077-.024.077-.024.078-.024.077-.022.078-.023.078-.022.078-.021.079-.021.078-.021.079-.02.079-.02.079-.018.08-.019.079-.018.08-.018.08-.017.08-.017.08-.016.08-.016.081-.015.081-.015.081-.014.081-.014.082-.013.081-.013.082-.012.082-.012.082-.011.082-.011.082-.01.083-.01.082-.009.083-.009.083-.008.084-.008.083-.007.083-.007.084-.006.084-.005.084-.005.084-.005.084-.004.085-.003.084-.003.085-.003.085-.002.085-.001.085-.001.085v.171l.001.086.001.085.002.085.003.084.003.085.007.17.005.084.005.084.005.084.006.084.007.083.007.084.008.083.008.083.009.083.009.083.01.083.01.082.011.083.011.082.012.082.012.082.013.082.013.081.014.081.014.081.015.081.015.081.016.081.016.08.017.08.017.081.018.08.018.079.037.159.02.079.02.079.021.079.021.078.021.079.022.078.023.078.022.078.024.078.024.077.024.077.025.077.025.077.026.076.026.077.026.076.027.076.028.076.028.075.028.075.029.076.029.075.03.074.03.075.031.074.031.074.031.073.032.074.033.073.033.073.033.073.033.073.034.072.035.072.035.072.035.072.072.142.037.071.037.071.037.07.038.07.077.14.039.07.04.069.04.068.04.069.041.069.041.067.041.068.042.068.042.068.043.066.043.067.044.067.044.066.044.066.045.066.045.065.091.13.046.064.047.065.047.064.047.063.048.063.048.064.048.062.049.063.049.062.05.062.05.062.05.061.05.061.051.06.052.061.051.06.053.06.052.059.053.059.106.117.054.058.054.058.055.058.054.057.056.057.055.056.056.056.056.056.057.056.057.055.057.055.057.054.058.054.058.054.117.107.059.052.06.053.06.052.06.052.06.051.061.051.061.051.061.05.062.05.061.049.063.05.062.048.063.049.063.048.063.048.064.047.064.047.064.047.065.046.13.091.065.045.066.044.066.045.066.044.066.043.067.043.067.043.067.042.068.042.068.042.068.041.068.041.069.04.069.04.069.039.069.039.14.077.07.038.07.038.071.037.071.036.143.072.071.036.072.035.072.034.073.034.072.034.073.033.073.033.073.032.074.032.074.032.074.03.074.031.074.031.075.029.075.029.075.029.075.029.076.028.076.027.075.027.077.027.076.026.076.025.077.026.077.025.077.024.078.024.078.023.077.023.078.022.078.022.079.022.078.021.079.02.079.02.079.02.159.038.08.018.08.018.08.017.08.017.081.016.08.015.081.016.081.015.081.014.163.027.082.013.082.012.082.011.082.012.082.011.083.01.082.009.083.01.083.008.084.009.083.007.083.007.084.007.084.006.084.006.084.005.084.004.169.008.085.003.085.002.085.002.085.001.085.001.086.001.085-.001.086-.001.085-.001.085-.002.084-.002.085-.003.085-.004.085-.004.084-.004.084-.005.084-.006.084-.006.083-.007.084-.007.083-.007.083-.009.083-.008.083-.01.083-.009.082-.01.083-.011.082-.012.082-.011.082-.012.081-.013.082-.014.081-.013.081-.014.081-.015.081-.016.081-.015.08-.016.08-.017.081-.017.08-.018.079-.018.08-.019.079-.019.079-.02.079-.02.079-.02.078-.021.079-.022.078-.022.078-.022.078-.023.078-.023.077-.024.077-.024.077-.025.077-.026.076-.025.077-.026.076-.027.076-.027.076-.027.075-.028.075-.029.076-.029.075-.029.074-.029.075-.031.074-.031.074-.03.073-.032.074-.032.073-.032.073-.033.073-.033.073-.034.072-.034.072-.034.072-.035.072-.036.071-.036.071-.036.071-.036.071-.037.07-.038.07-.038.07-.038.07-.039.07-.039.069-.039.068-.04.069-.04.069-.041.067-.041.068-.042.068-.042.068-.042.066-.043.067-.043.067-.043.066-.044.066-.045.066-.044.065-.045.065-.046.065-.045.064-.046.065-.047.064-.047.063-.047.063-.048.064-.048.062-.049.063-.048.062-.05.062-.049.062-.05.061-.05.061-.051.06-.051.061-.051.06-.052.06-.052.059-.053.059-.052.059-.054.058-.053.058-.054.058-.054.058-.054.057-.055.057-.055.056-.056.056-.056.056-.056.056-.056.055-.057.055-.057.054-.058.054-.058.054-.058.053-.058.054-.059.052-.059.053-.059.052-.06.052-.06.051-.061.051-.06.051-.061.05-.061.05-.062.049-.062.05-.062.048-.063.049-.062.048-.064.048-.063.047-.063.047-.064.047-.065.046-.064.045-.065.046-.065.045-.065.044-.066.045-.066.044-.066.043-.067.043-.067.043-.066.042-.068.042-.068.042-.068.041-.067.041-.069.04-.069.04-.068.039-.069.039-.07.039-.07.038-.07.038-.07.038-.07.037-.071.036-.071.036-.071.036-.071.036-.072.035-.072.034-.072.034-.072.034-.073.033-.073.033-.073.032-.073.032-.074.032-.073.03-.074.031-.074.031-.075.029-.074.029-.075.029-.076.029-.075.028-.075.027-.076.027-.076.027-.076.026-.077.025-.076.026-.077.025-.077.024-.077.024-.077.023-.078.023-.078.022-.078.022-.078.022-.079.021-.078.02-.079.02-.079.02-.079.019-.079.019-.08.018-.079.018-.08.017-.081.017-.08.016-.08.015-.081.016-.081.015-.081.014-.081.013-.081.014-.082.013-.081.012-.082.011-.082.012-.082.011-.083.01-.082.009-.083.01-.083.008-.083.009-.083.007-.083.007-.084.007-.083.006-.084.006-.084.005-.084.004-.084.004-.085.004-.085.003-.085.002-.084.002-.085.001-.085.001-.086.001-.085-.001-.086-.001-.085-.001-.085-.002-.085-.002-.085-.003-.085-.004-.084-.004-.085-.004-.084-.005-.084-.006-.084-.006-.084-.007-.084-.007-.083-.007-.083-.009-.084-.008-.083-.01-.083-.009-.082-.01-.083-.011-.082-.012-.082-.011-.082-.012-.082-.013-.082-.014-.081-.013-.082-.014-.081-.015-.081-.016-.081-.015-.08-.016-.081-.017-.08-.017-.08-.018-.08-.018-.08-.019-.079-.019-.08-.02-.079-.02-.079-.02-.079-.021-.078-.022-.079-.022-.078-.022-.078-.023-.077-.023-.078-.024-.078-.024-.077-.025-.077-.026-.077-.025-.076-.026-.076-.027-.077-.027-.075-.027-.076-.028-.076-.029-.075-.029-.075-.029-.075-.029-.075-.031-.074-.031-.074-.03-.074-.032-.074-.032-.074-.032-.073-.033-.073-.033-.073-.034-.072-.034-.073-.034-.072-.035-.072-.036-.071-.036-.072-.036-.071-.036-.071-.037-.071-.038-.07-.038-.07-.038-.07-.039-.07-.039-.069-.039-.069-.04-.069-.04-.069-.041-.068-.041-.068-.042-.068-.042-.068-.042-.067-.043-.067-.043-.067-.043-.066-.044-.066-.045-.066-.044-.066-.045-.065-.046-.065-.045-.065-.046-.065-.047-.064-.047-.064-.047-.064-.048-.063-.048-.063-.049-.063-.048-.062-.05-.063-.049-.061-.05-.062-.05-.061-.051-.061-.051-.061-.051-.06-.052-.06-.052-.06-.053-.06-.052-.059-.054-.058-.053-.059-.054-.058-.054-.058-.054-.057-.055-.057-.055-.057-.056-.057-.056-.056-.056-.056-.056-.055-.057-.056-.057-.054-.058-.055-.058-.054-.058-.054-.058-.053-.059-.053-.059-.053-.059-.052-.06-.053-.06-.051-.061-.052-.06-.051-.061-.05-.061-.05-.062-.05-.062-.05-.062-.049-.063-.049-.062-.048-.064-.048-.063-.048-.063-.047-.064-.047-.065-.047-.064-.046-.065-.046-.065-.045-.065-.045-.066-.045-.066-.044-.066-.044-.067-.044-.067-.043-.066-.043-.068-.042-.068-.042-.068-.041-.067-.041-.069-.041-.069-.04-.068-.04-.069-.04-.07-.039-.07-.038-.07-.039-.07-.038-.07-.037-.071-.037-.071-.037-.071-.036-.071-.036-.072-.035-.072-.035-.072-.035-.072-.034-.073-.033-.073-.033-.073-.033-.073-.033-.074-.032-.073-.031-.074-.031-.074-.031-.075-.03-.074-.03-.075-.029-.076-.029-.075-.028-.075-.028-.076-.028-.076-.027-.076-.026-.077-.026-.076-.026-.077-.025-.077-.025-.077-.024-.077-.024-.078-.024-.078-.022-.078-.023-.078-.022-.079-.021-.078-.021-.079-.021-.079-.02-.079-.02-.079-.018-.08-.019-.079-.018-.08-.018-.081-.017-.08-.017-.08-.016-.081-.016-.081-.015-.081-.015-.081-.014-.081-.014-.081-.013-.082-.013-.082-.012-.082-.012-.082-.011-.083-.011-.082-.01-.083-.01-.083-.009-.083-.009-.083-.008-.083-.008-.084-.007-.083-.007-.084-.006-.084-.005-.084-.005-.084-.005-.085-.004-.085-.003-.085-.003-.084-.003-.085-.002-.085-.001-.086-.001h-.171z" fill="#41639e"/></svg>