<?xml version="1.0" encoding="UTF-8" standalone="no"?><!DOCTYPE svg PUBLIC "-//W3C//DTD SVG 1.1//EN" "http://www.w3.org/Graphics/SVG/1.1/DTD/svg11.dtd"><svg width="100%" height="100%" viewBox="0 0 70 14" version="1.1" xmlns="http://www.w3.org/2000/svg" xmlns:xlink="http://www.w3.org/1999/xlink" xml:space="preserve" xmlns:serif="http://www.serif.com/" style="fill-rule:evenodd;clip-rule:evenodd;stroke-linejoin:round;stroke-miterlimit:1.41421;"><g><path d="M4.5,0l1.25,2.1l0.9,2.8l1.05,-2.85l1.2,-2l2.4,1.3l-1.3,2.15l-2.3,2.4l3.4,-0.6l2.4,0l0,2.8l-2.3,0l-3.2,-0.6l2.3,2.4l1.15,1.95l-2.35,1.4l-1.3,-2.1l-1.15,-3.05l-0.95,2.9l-1.25,2.1l-2.5,-1.4l1.35,-2.1l2.1,-2.1l-2.9,0.6l-2.5,0l0,-2.8l2.5,0l3.1,0.6l-2.25,-2.2l-1.3,-2.3l2.45,-1.4Z" style="fill:#bd8d46;fill-rule:nonzero;"/><path d="M32.4,0l1.25,2.1l0.9,2.8l1.05,-2.85l1.2,-2l2.4,1.3l-1.3,2.15l-2.3,2.4l3.4,-0.6l2.4,0l0,2.8l-2.3,0l-3.2,-0.6l2.3,2.4l1.15,1.95l-2.35,1.4l-1.3,-2.1l-1.15,-3.05l-0.95,2.9l-1.25,2.1l-2.5,-1.4l1.35,-2.1l2.1,-2.1l-2.9,0.6l-2.5,0l0,-2.8l2.5,0l3.1,0.6l-2.25,-2.2l-1.3,-2.3l2.45,-1.4Z" style="fill:#bd8d46;fill-rule:nonzero;"/><path d="M60.3,0l1.25,2.1l0.9,2.8l1.05,-2.85l1.2,-2l2.4,1.3l-1.3,2.15l-2.3,2.4l3.4,-0.6l2.4,0l0,2.8l-2.3,0l-3.2,-0.6l2.3,2.4l1.15,1.95l-2.35,1.4l-1.3,-2.1l-1.15,-3.05l-0.95,2.9l-1.25,2.1l-2.5,-1.4l1.35,-2.1l2.1,-2.1l-2.9,0.6l-2.5,0l0,-2.8l2.5,0l3.1,0.6l-2.25,-2.2l-1.3,-2.3l2.45,-1.4Z" style="fill:#bd8d46;fill-rule:nonzero;"/></g></svg>