<?xml version="1.0" encoding="UTF-8" standalone="no"?><!DOCTYPE svg PUBLIC "-//W3C//DTD SVG 1.1//EN" "http://www.w3.org/Graphics/SVG/1.1/DTD/svg11.dtd"><svg width="100%" height="100%" viewBox="0 0 25 25" version="1.1" xmlns="http://www.w3.org/2000/svg" xmlns:xlink="http://www.w3.org/1999/xlink" xml:space="preserve" xmlns:serif="http://www.serif.com/" style="fill-rule:evenodd;clip-rule:evenodd;stroke-linejoin:round;stroke-miterlimit:1.41421;"><g><g><path d="M23.788,12.128c0,6.452 -5.221,11.654 -11.647,11.654c-6.44,0 -11.641,-5.202 -11.641,-11.654c0,-6.42 5.201,-11.628 11.641,-11.628c6.426,0 11.647,5.208 11.647,11.628Z" style="fill:#40004c;fill-rule:nonzero;stroke:#fff;stroke-width:1px;"/><path d="M23.788,12.128c0,6.452 -5.221,11.654 -11.647,11.654c-6.44,0 -11.641,-5.202 -11.641,-11.654c0,-6.42 5.201,-11.628 11.641,-11.628c6.426,0 11.647,5.208 11.647,11.628Z" style="fill:#bd8d46;fill-rule:nonzero;stroke:#fff;stroke-width:1px;"/><g><path d="M15.495,19.205l-1.349,-0.216c-2.955,-0.858 -5.169,-2.692 -6.957,-5.136c-0.681,-0.924 -1.291,-1.867 -1.507,-3.007c-0.242,-1.362 0.151,-2.522 1.173,-3.465l1.703,-0.236l0.308,0.347c0.367,0.878 0.734,1.756 1.1,2.634l-0.039,0.511l-0.799,1.067l-0.066,0.734c1.049,1.73 2.49,3 4.37,3.754l0.694,-0.157l0.944,-1.18l0.72,-0.19c0.636,0.276 1.251,0.577 1.88,0.878l0.413,0.19c0.635,0.321 0.622,0.321 0.57,1.029c-0.105,1.349 -1.127,2.037 -2.339,2.358l-0.819,0.085Z" style="fill:#fff;"/><path d="M16.668,8.665c0.491,0.426 0.845,0.989 1.14,1.585l0.458,1.5l-0.039,0.321l-0.852,0.046l-0.157,-0.111c-0.124,-0.983 -0.53,-1.841 -1.199,-2.542c-0.976,-1.061 -2.194,-1.572 -3.635,-1.533l-0.164,0l-0.039,-0.937l0.268,-0.104c0.603,0 1.173,0.065 1.736,0.229l1.33,0.603l0.347,0.262l0.38,0.321l0.426,0.36Z" style="fill:#fff;"/><path d="M15.273,9.464c0.786,0.681 1.271,1.54 1.428,2.561l-0.131,0.177l-0.76,0.066l-0.112,-0.112c-0.131,-0.904 -0.583,-1.604 -1.316,-2.122c-0.551,-0.38 -1.173,-0.57 -1.848,-0.55l-0.15,-0.131l-0.066,-0.767l0.105,-0.111c1.074,-0.046 2.018,0.301 2.85,0.989Z" style="fill:#fff;"/><path d="M14.211,12.392c-0.111,-0.838 -0.74,-1.415 -1.572,-1.434l-0.118,-0.092l-0.072,-0.773l0.085,-0.098c1.245,-0.092 2.516,0.982 2.654,2.227l-0.092,0.085l-0.885,0.085Z" style="fill:#fff;"/></g></g></g></svg>