<?xml version="1.0" encoding="UTF-8" standalone="no"?><!DOCTYPE svg PUBLIC "-//W3C//DTD SVG 1.1//EN" "http://www.w3.org/Graphics/SVG/1.1/DTD/svg11.dtd"><svg width="100%" height="100%" viewBox="0 0 65 97" version="1.1" xmlns="http://www.w3.org/2000/svg" xmlns:xlink="http://www.w3.org/1999/xlink" xml:space="preserve" xmlns:serif="http://www.serif.com/" style="fill-rule:evenodd;clip-rule:evenodd;stroke-linejoin:round;stroke-miterlimit:1.5;"><path d="M63.061,89.647l-14,-62.793l-33.943,0l-14,62.793c20.648,6.708 41.295,7.367 61.943,0Z" style="fill:#fff;"/><g><path d="M53.061,1.12l-4,28.077l-33.943,0l-4,-28.077l8.981,0c0.875,6.101 5.913,10.786 11.99,10.786c6.077,0 11.116,-4.685 11.99,-10.786l8.982,0Z" style="fill:#bd8d46;stroke:#000;stroke-width:2.24px;"/><path d="M63.061,89.829l-14,-60.632l-33.943,0l-14,60.632c20.648,6.477 41.295,7.113 61.943,0Z" style="fill:none;stroke:#000;stroke-width:2.24px;"/><path d="M14.877,21.99l35.832,0" style="fill:none;stroke:#000;stroke-width:2.26px;"/><path d="M26.397,29.197l-5.627,64.245" style="fill:none;stroke:#000;stroke-width:2.26px;"/><path d="M37.931,29.197l5.627,64.245" style="fill:none;stroke:#000;stroke-width:2.26px;"/><path d="M32.089,29.197l0,65.731" style="fill:none;stroke:#000;stroke-width:2.26px;"/><path d="M20.604,29.197l-9.915,62.864" style="fill:none;stroke:#000;stroke-width:2.26px;"/><path d="M43.724,29.197l9.916,62.864" style="fill:none;stroke:#000;stroke-width:2.26px;"/></g></svg>