<?xml version="1.0" encoding="UTF-8" standalone="no"?><!DOCTYPE svg PUBLIC "-//W3C//DTD SVG 1.1//EN" "http://www.w3.org/Graphics/SVG/1.1/DTD/svg11.dtd"><svg width="100%" height="100%" viewBox="0 0 103 106" version="1.1" xmlns="http://www.w3.org/2000/svg" xmlns:xlink="http://www.w3.org/1999/xlink" xml:space="preserve" xmlns:serif="http://www.serif.com/" style="fill-rule:evenodd;clip-rule:evenodd;stroke-linejoin:round;stroke-miterlimit:1.5;"><path d="M15.849,81.651c-8.376,-1.707 -14.686,-9.122 -14.686,-17.999c0,-3.345 0.895,-6.482 2.46,-9.185c-1.565,-2.702 -2.46,-5.839 -2.46,-9.184c0,-6.754 3.653,-12.661 9.089,-15.853c1.623,-9.776 10.128,-17.24 20.362,-17.24c0.417,0 0.832,0.012 1.243,0.037c3.679,-6.598 10.729,-11.064 18.813,-11.064c8.109,0 15.176,4.493 18.846,11.124c0.663,-0.064 1.335,-0.097 2.014,-0.097c10.234,0 18.738,7.464 20.362,17.24c5.436,3.192 9.089,9.099 9.089,15.853c0,3.345 -0.896,6.482 -2.461,9.184c1.565,2.703 2.461,5.84 2.461,9.185c0,8.877 -6.311,16.292 -14.687,17.999l0,-13.498c0,-19.238 -15.618,-34.857 -34.857,-34.857l-0.731,0c-19.238,0 -34.857,15.619 -34.857,34.857l0,13.498Z" style="fill:#fff;"/><g><path d="M51.003,54.58l35.291,17.667l0,-4.094c0,-19.238 -15.618,-34.857 -34.857,-34.857l-0.731,0c-19.238,0 -34.857,15.619 -34.857,34.857l0,4.094l35.154,-17.667Z" style="fill:#bd8d46;"/><path d="M15.789,72.679l35.146,-18.099l35.283,18.099" style="fill:none;stroke:#000;stroke-width:2.33px;"/><path d="M86.226,93.755l0,-25.602c0,-19.238 -15.619,-34.857 -34.857,-34.857l-0.731,0c-19.238,0 -34.857,15.619 -34.857,34.857l0,25.602" style="fill:none;stroke:#000;stroke-width:2.33px;"/><g><circle cx="15.789" cy="101.069" r="4.602"/><circle cx="86.218" cy="101.069" r="4.602"/></g><circle cx="12.299" cy="48.635" r="3.482"/><circle cx="89.7" cy="48.635" r="3.482"/><circle cx="50.652" cy="12.465" r="2.348"/><circle cx="27.525" cy="21.856" r="2.348"/><circle cx="73.818" cy="21.856" r="2.348"/><g><circle cx="51.003" cy="42.432" r="2.348"/><g><circle cx="55.699" cy="47.128" r="2.348"/><circle cx="46.308" cy="47.128" r="2.348"/></g></g><g><g><path d="M71.757,54.009c0.335,1.252 -0.409,2.54 -1.66,2.875c-1.252,0.336 -2.54,-0.408 -2.876,-1.66c-0.335,-1.251 0.409,-2.54 1.661,-2.875c1.251,-0.335 2.539,0.409 2.875,1.66Z"/><path d="M69.47,46.52c0.336,1.252 -0.408,2.54 -1.66,2.876c-1.251,0.335 -2.54,-0.409 -2.875,-1.66c-0.335,-1.252 0.409,-2.54 1.66,-2.876c1.252,-0.335 2.54,0.409 2.875,1.66Z"/></g><g><path d="M30.25,54.009c-0.335,1.252 0.408,2.54 1.66,2.875c1.252,0.336 2.54,-0.408 2.875,-1.66c0.336,-1.251 -0.408,-2.54 -1.66,-2.875c-1.251,-0.335 -2.54,0.409 -2.875,1.66Z"/><path d="M32.536,46.52c-0.335,1.252 0.409,2.54 1.66,2.876c1.252,0.335 2.54,-0.409 2.876,-1.66c0.335,-1.252 -0.409,-2.54 -1.66,-2.876c-1.252,-0.335 -2.54,0.409 -2.876,1.66Z"/></g></g><circle cx="50.652" cy="22.173" r="2.348"/><circle cx="27.525" cy="31.563" r="2.348"/><circle cx="73.818" cy="31.563" r="2.348"/><g><circle cx="55.064" cy="14.813" r="2.348"/><circle cx="46.24" cy="14.813" r="2.348"/><circle cx="55.064" cy="19.508" r="2.348"/><circle cx="46.24" cy="19.508" r="2.348"/></g><g><circle cx="31.937" cy="24.203" r="2.348"/><circle cx="23.113" cy="24.203" r="2.348"/><circle cx="31.937" cy="28.899" r="2.348"/><circle cx="23.113" cy="28.899" r="2.348"/></g><g><circle cx="78.23" cy="24.203" r="2.348"/><circle cx="69.406" cy="24.203" r="2.348"/><circle cx="78.23" cy="28.899" r="2.348"/><circle cx="69.406" cy="28.899" r="2.348"/></g><path d="M15.849,81.651c-8.376,-1.707 -14.686,-9.122 -14.686,-17.999c0,-3.345 0.895,-6.482 2.46,-9.185c-1.565,-2.702 -2.46,-5.839 -2.46,-9.184c0,-6.754 3.653,-12.661 9.089,-15.853c1.623,-9.776 10.128,-17.24 20.362,-17.24c0.417,0 0.832,0.012 1.243,0.037c3.679,-6.598 10.729,-11.064 18.813,-11.064c8.109,0 15.176,4.493 18.846,11.124c0.663,-0.064 1.335,-0.097 2.014,-0.097c10.234,0 18.738,7.464 20.362,17.24c5.436,3.192 9.089,9.099 9.089,15.853c0,3.345 -0.896,6.482 -2.461,9.184c1.565,2.703 2.461,5.84 2.461,9.185c0,8.877 -6.311,16.292 -14.687,17.999l0,-13.498c0,-19.238 -15.618,-34.857 -34.857,-34.857l-0.731,0c-19.238,0 -34.857,15.619 -34.857,34.857l0,13.498Z" style="fill:none;stroke:#000;stroke-width:2.33px;"/></g></svg>