<?xml version="1.0" encoding="UTF-8" standalone="no"?><!DOCTYPE svg PUBLIC "-//W3C//DTD SVG 1.1//EN" "http://www.w3.org/Graphics/SVG/1.1/DTD/svg11.dtd"><svg width="100%" height="100%" viewBox="0 0 69 102" version="1.1" xmlns="http://www.w3.org/2000/svg" xmlns:xlink="http://www.w3.org/1999/xlink" xml:space="preserve" xmlns:serif="http://www.serif.com/" style="fill-rule:evenodd;clip-rule:evenodd;stroke-linejoin:round;stroke-miterlimit:1.5;"><g><path d="M21.478,100.516c-11.929,-4.951 -20.328,-16.716 -20.328,-30.428c0,-10.765 5.177,-20.33 13.175,-26.34c-3.822,-4.511 -6.129,-10.346 -6.129,-16.716c0,-14.285 11.598,-25.882 25.882,-25.882c14.285,0 25.882,11.597 25.882,25.882c0,6.37 -2.306,12.205 -6.129,16.716c7.998,6.01 13.175,15.575 13.175,26.34c0,13.712 -8.399,25.477 -20.328,30.428l-25.2,0Z" style="fill:#fff;"/><clipPath id="_clip1"><path d="M21.478,100.516c-11.929,-4.951 -20.328,-16.716 -20.328,-30.428c0,-10.765 5.177,-20.33 13.175,-26.34c-3.822,-4.511 -6.129,-10.346 -6.129,-16.716c0,-14.285 11.598,-25.882 25.882,-25.882c14.285,0 25.882,11.597 25.882,25.882c0,6.37 -2.306,12.205 -6.129,16.716c7.998,6.01 13.175,15.575 13.175,26.34c0,13.712 -8.399,25.477 -20.328,30.428l-25.2,0Z"/></clipPath><g clip-path="url(#_clip1)"><path d="M31.321,-10.265c4.785,-8.408 16.597,15.957 26.954,15.957c15.348,0 27.808,12.461 27.808,27.808c0,15.348 -12.46,27.808 -27.808,27.808c-10.357,0 -19.399,-5.674 -24.185,-14.081c-4.785,8.407 -13.827,14.081 -24.184,14.081c-15.348,0 -27.808,-12.46 -27.808,-27.808c0,-15.347 12.46,-27.808 27.808,-27.808c10.357,0 16.629,-24.365 21.415,-15.957Z" style="fill:#bd8d46;"/></g><path d="M21.478,100.516c-11.929,-4.951 -20.328,-16.716 -20.328,-30.428c0,-10.765 5.177,-20.33 13.175,-26.34c-3.822,-4.511 -6.129,-10.346 -6.129,-16.716c0,-14.285 11.598,-25.882 25.882,-25.882c14.285,0 25.882,11.597 25.882,25.882c0,6.37 -2.306,12.205 -6.129,16.716c7.998,6.01 13.175,15.575 13.175,26.34c0,13.712 -8.399,25.477 -20.328,30.428l-25.2,0Z" style="fill:none;stroke:#000;stroke-width:2.3px;"/><path d="M55.888,60.14c-0.69,0.066 -1.39,0.1 -2.098,0.1c-8.757,0 -16.306,-5.212 -19.712,-12.701c-3.405,7.489 -10.955,12.701 -19.712,12.701c-0.708,0 -1.408,-0.034 -2.098,-0.1" style="fill:#fff;stroke:#000;stroke-width:2.3px;stroke-linecap:round;"/><path d="M34.078,69.388c2.993,-5.081 8.979,-5.081 11.972,-2.54c2.994,2.54 2.994,7.62 0,12.7c-2.095,3.81 -7.482,7.62 -11.972,10.16c-4.49,-2.54 -9.877,-6.35 -11.972,-10.16c-2.993,-5.08 -2.993,-10.16 0,-12.7c2.993,-2.541 8.979,-2.541 11.972,2.54Z" style="fill:#bd8d46;stroke:#000;stroke-width:2.89px;"/><circle cx="34.09" cy="23.258" r="16.175" style="fill:#fff;"/><clipPath id="_clip2"><circle cx="34.09" cy="23.258" r="16.175"/></clipPath><g clip-path="url(#_clip2)"><path d="M31.321,-48.316c4.785,-8.407 16.597,15.957 26.954,15.957c15.348,0 27.808,12.461 27.808,27.809c0,15.347 -12.46,27.808 -27.808,27.808c-10.357,0 -19.399,-5.675 -24.185,-14.082c-4.785,8.407 -13.827,14.082 -24.184,14.082c-15.348,0 -27.808,-12.461 -27.808,-27.808c0,-15.348 12.46,-27.809 27.808,-27.809c10.357,0 16.629,-24.364 21.415,-15.957Z" style="fill:#704300;stroke:#000;stroke-width:2.3px;"/></g><circle cx="34.09" cy="23.258" r="16.175" style="fill:none;stroke:#000;stroke-width:2.3px;"/><g><path d="M39.456,21.919l-1.366,0c-0.895,0 -1.62,0.725 -1.62,1.62c0,0.894 0.725,1.619 1.62,1.619l1.366,0c0.894,0 1.62,-0.725 1.62,-1.619c0,-0.895 -0.726,-1.62 -1.62,-1.62Z" style="fill:#292929;fill-rule:nonzero;"/><path d="M30.316,21.919l-1.591,0c-0.895,0 -1.62,0.725 -1.62,1.62c0,0.894 0.725,1.619 1.62,1.619l1.591,0c0.894,0 1.619,-0.725 1.619,-1.619c0,-0.895 -0.725,-1.62 -1.619,-1.62Z" style="fill:#292929;fill-rule:nonzero;"/></g></g></svg>