<?xml version="1.0" encoding="UTF-8" standalone="no"?><!DOCTYPE svg PUBLIC "-//W3C//DTD SVG 1.1//EN" "http://www.w3.org/Graphics/SVG/1.1/DTD/svg11.dtd"><svg width="100%" height="100%" viewBox="0 0 216 207" version="1.1" xmlns="http://www.w3.org/2000/svg" xmlns:xlink="http://www.w3.org/1999/xlink" xml:space="preserve" xmlns:serif="http://www.serif.com/" style="fill-rule:evenodd;clip-rule:evenodd;stroke-linejoin:round;stroke-miterlimit:2;"><rect x="0" y="0" width="215.355" height="206.142" style="fill:none;"/><g><path d="M172.505,100.973l-5.116,-5.116l5.116,-5.117c0.75,-0.749 0.75,-1.965 0,-2.714l-11.652,-11.653c-0.36,-0.36 -0.848,-0.562 -1.357,-0.562c-0.509,0 -0.998,0.202 -1.357,0.562l-5.102,5.102l-3.749,-3.75l5.101,-5.101c0.749,-0.75 0.749,-1.965 0,-2.715l-11.963,-11.962c-0.749,-0.75 -1.965,-0.75 -2.714,0l-5.116,5.116l-5.117,-5.116l-0.991,-0.991l5.116,-5.117c0.75,-0.749 0.75,-1.965 0,-2.714l-11.652,-11.653c-0.36,-0.36 -0.848,-0.562 -1.357,-0.562c-0.51,0 -0.998,0.202 -1.358,0.562l-5.116,5.116l-5.116,-5.116c-0.36,-0.36 -0.848,-0.562 -1.358,-0.562c-0.509,0 -0.997,0.202 -1.357,0.562l-5.116,5.116l-5.116,-5.116c-0.36,-0.36 -0.849,-0.562 -1.358,-0.562c-0.509,0 -0.997,0.202 -1.357,0.562l-5.116,5.116l-5.116,-5.116c-0.36,-0.36 -0.848,-0.562 -1.358,-0.562c-0.509,0 -0.997,0.202 -1.357,0.562l-5.116,5.116l-5.116,-5.116c-0.36,-0.36 -0.848,-0.562 -1.357,-0.562c-0.51,0 -0.998,0.202 -1.358,0.562l-5.116,5.116l-5.116,-5.116c-0.36,-0.36 -0.848,-0.562 -1.358,-0.562c-0.509,0 -0.997,0.202 -1.357,0.562l-11.652,11.653c-0.75,0.749 -0.75,1.965 0,2.714l5.116,5.116l-5.116,5.117c-0.75,0.749 -0.75,1.965 0,2.714l5.116,5.116l-5.116,5.117c-0.75,0.749 -0.75,1.965 0,2.714l5.116,5.116l-5.116,5.116c-0.75,0.75 -0.75,1.965 0,2.715l5.116,5.116l-5.116,5.117c-0.75,0.749 -0.75,1.965 0,2.714l5.116,5.116l-5.116,5.117c-0.75,0.749 -0.75,1.965 0,2.714l11.652,11.652c0.375,0.375 0.866,0.562 1.357,0.562c0.491,0 0.983,-0.187 1.358,-0.562l5.116,-5.116l6.107,6.108l-5.116,5.116c-0.75,0.75 -0.75,1.965 0,2.714l11.949,11.949c0.36,0.36 0.848,0.562 1.357,0.562c0.509,0 0.997,-0.202 1.357,-0.562l5.116,-5.116l3.764,3.763l-5.116,5.117c-0.75,0.749 -0.75,1.965 0,2.714l11.652,11.652c0.749,0.75 1.965,0.75 2.714,0l5.117,-5.116l5.116,5.116c0.749,0.75 1.965,0.75 2.714,0l5.116,-5.116l5.117,5.116c0.749,0.75 1.965,0.75 2.714,0l5.116,-5.116l5.117,5.116c0.749,0.75 1.965,0.75 2.714,0l5.116,-5.116l5.117,5.116c0.374,0.375 0.866,0.562 1.357,0.562c0.491,0 0.982,-0.187 1.357,-0.562l5.116,-5.116l5.117,5.116c0.749,0.75 1.965,0.75 2.714,0l5.165,-5.165c0.005,-0.005 0.009,-0.009 0.014,-0.014l6.473,-6.473c0.75,-0.75 0.75,-1.965 0,-2.714l-5.116,-5.117l5.116,-5.116c0.75,-0.75 0.75,-1.965 0,-2.714l-5.116,-5.117l5.116,-5.116c0.75,-0.75 0.75,-1.965 0,-2.714l-5.115,-5.117l5.116,-5.116c0.75,-0.749 0.75,-1.965 0,-2.714l-5.116,-5.117l5.116,-5.116c0.75,-0.749 0.75,-1.965 0,-2.714Zm-89.385,24.525l-10.608,-10.608c-0.057,-0.057 -0.118,-0.108 -0.18,-0.157l-4.936,-4.936l3.754,-3.754l10.597,10.597c0.031,0.03 0.063,0.056 0.094,0.084l5.026,5.026l-3.747,3.748Zm-0.016,-12.931l-10.507,-10.507c-0.028,-0.031 -0.054,-0.064 -0.085,-0.094l-5.116,-5.116l3.773,-3.772l10.416,10.416c0.051,0.067 0.105,0.132 0.166,0.193l5.116,5.116l-3.763,3.764Zm0.018,-12.965l-10.61,-10.609c-0.061,-0.061 -0.126,-0.116 -0.193,-0.167l-4.923,-4.923l3.757,-3.757l10.595,10.594c0.012,0.012 0.025,0.023 0.037,0.034l5.082,5.082l-3.745,3.746Zm-0.015,-12.932l-10.561,-10.56c-0.011,-0.012 -0.022,-0.026 -0.034,-0.038l-5.116,-5.116l3.112,-3.111l15.712,15.712l-3.113,3.113Zm5.828,-5.828l-15.713,-15.712l3.112,-3.112l5.116,5.116c0.005,0.006 0.011,0.01 0.016,0.015l10.581,10.581l-3.112,3.112Zm12.3,0.647l-15.712,-15.713l3.758,-3.758l5.116,5.116c0.03,0.03 0.062,0.057 0.093,0.085l10.508,10.507l-3.763,3.763Zm12.951,-0.004l-15.713,-15.712l3.755,-3.755l5.116,5.116c0.048,0.049 0.099,0.093 0.151,0.136l10.453,10.453l-3.762,3.762Zm12.95,-0.003l-15.712,-15.712l3.751,-3.752l5.116,5.117c0.056,0.056 0.117,0.107 0.179,0.155l10.429,10.429l-3.763,3.763Zm12.951,-0.004l-15.713,-15.712l3.748,-3.748l5.116,5.117c0.065,0.064 0.134,0.122 0.206,0.176l10.406,10.405l-3.763,3.762Zm0.982,-19.46l9.248,9.248l-3.744,3.744l-9.248,-9.248l3.744,-3.744Zm-80.093,57.02l-5.116,5.117l-8.938,-8.938l5.116,-5.116c0.75,-0.75 0.75,-1.966 0,-2.715l-5.116,-5.116l5.116,-5.116c0.75,-0.75 0.75,-1.965 0,-2.715l-5.116,-5.116l5.116,-5.116c0.75,-0.75 0.75,-1.965 0,-2.715l-5.116,-5.116l5.116,-5.116c0.75,-0.75 0.75,-1.965 0,-2.715l-5.116,-5.116l5.116,-5.116c0.75,-0.75 0.75,-1.965 0,-2.715l-5.116,-5.116l8.938,-8.938l5.116,5.116c0.36,0.36 0.848,0.563 1.357,0.563c0.509,0 0.997,-0.203 1.357,-0.563l5.117,-5.116l5.116,5.116c0.36,0.36 0.848,0.563 1.357,0.563c0.509,0 0.997,-0.203 1.357,-0.563l5.116,-5.116l5.117,5.116c0.36,0.36 0.848,0.563 1.357,0.563c0.509,0 0.997,-0.203 1.357,-0.563l5.116,-5.116l5.117,5.116c0.36,0.36 0.848,0.563 1.357,0.563c0.509,0 0.997,-0.203 1.357,-0.563l5.116,-5.116l5.117,5.116c0.359,0.36 0.848,0.563 1.357,0.563c0.509,0 0.997,-0.203 1.357,-0.563l5.116,-5.116l8.938,8.938l-5.116,5.116c-0.75,0.75 -0.75,1.965 0,2.715l0.991,0.991l-3.759,3.759l-5.116,-5.116c-0.36,-0.361 -0.848,-0.563 -1.357,-0.563c-0.509,0 -0.998,0.202 -1.357,0.563l-5.117,5.116l-5.116,-5.116c-0.36,-0.361 -0.848,-0.563 -1.357,-0.563c-0.509,0 -0.998,0.202 -1.357,0.563l-5.117,5.116l-5.116,-5.116c-0.36,-0.361 -0.848,-0.563 -1.357,-0.563c-0.509,0 -0.998,0.202 -1.357,0.563l-5.117,5.116l-5.116,-5.116c-0.36,-0.361 -0.848,-0.563 -1.357,-0.563c-0.51,0 -0.998,0.202 -1.358,0.563l-11.652,11.652c-0.749,0.75 -0.749,1.965 0,2.714l5.117,5.117l-5.117,5.116c-0.749,0.75 -0.749,1.965 0,2.714l5.117,5.117l-5.117,5.116c-0.749,0.749 -0.749,1.965 0,2.714l5.117,5.117l-5.117,5.116c-0.749,0.749 -0.749,1.965 0,2.714l5.117,5.116l-3.76,3.76l-0.991,-0.992c-0.36,-0.36 -0.848,-0.562 -1.357,-0.562c-0.509,0 -0.997,0.202 -1.357,0.562Zm6.42,3.706l3.771,-3.77l10.427,10.427c0.049,0.062 0.1,0.123 0.157,0.18l5.117,5.117l-3.765,3.764l-10.49,-10.491c-0.033,-0.037 -0.065,-0.075 -0.1,-0.11l-5.117,-5.117Zm9.235,22.182l-9.235,-9.235l3.754,-3.754l9.234,9.235l-3.753,3.754Zm86.686,-37.48c-0.749,0.75 -0.749,1.965 0,2.715l5.117,5.116l-5.117,5.116c-0.749,0.75 -0.749,1.965 0,2.715l5.117,5.116l-5.117,5.116c-0.749,0.75 -0.749,1.965 0,2.715l5.117,5.116l-5.117,5.116c-0.749,0.75 -0.749,1.965 0,2.714l5.117,5.117l-3.811,3.811c-0.004,0.003 -0.007,0.007 -0.011,0.01l-5.116,5.117l-5.117,-5.117c-0.374,-0.374 -0.866,-0.562 -1.357,-0.562c-0.491,0 -0.982,0.187 -1.357,0.562l-5.116,5.117l-5.116,-5.117c-0.75,-0.749 -1.965,-0.749 -2.715,0l-5.116,5.117l-5.116,-5.117c-0.75,-0.749 -1.965,-0.749 -2.715,0l-5.116,5.117l-5.116,-5.117c-0.75,-0.749 -1.965,-0.749 -2.715,0l-5.116,5.117l-5.116,-5.117c-0.75,-0.749 -1.965,-0.749 -2.715,0l-5.116,5.117l-8.938,-8.938l5.117,-5.117c0.749,-0.749 0.749,-1.965 0,-2.714l-5.117,-5.116l5.117,-5.116c0.749,-0.75 0.749,-1.965 0,-2.715l-5.117,-5.116l5.117,-5.116c0.749,-0.75 0.749,-1.965 0,-2.715l-5.117,-5.116l5.117,-5.116c0.749,-0.75 0.749,-1.965 0,-2.715l-5.117,-5.116l5.117,-5.116c0.749,-0.75 0.749,-1.965 0,-2.715l-5.117,-5.116l8.938,-8.938l5.116,5.117c0.36,0.36 0.848,0.562 1.358,0.562c0.509,0 0.997,-0.202 1.357,-0.562l5.116,-5.117l5.116,5.117c0.36,0.36 0.848,0.562 1.357,0.562c0.51,0 0.998,-0.202 1.358,-0.562l5.116,-5.117l5.116,5.117c0.36,0.36 0.848,0.562 1.357,0.562c0.509,0 0.998,-0.202 1.358,-0.562l5.116,-5.117l5.116,5.117c0.36,0.36 0.848,0.562 1.357,0.562c0.509,0 0.998,-0.202 1.358,-0.562l5.116,-5.117l5.116,5.117c0.36,0.36 0.848,0.562 1.357,0.562c0.509,0 0.998,-0.202 1.357,-0.562l5.117,-5.117l8.938,8.938l-5.117,5.116c-0.749,0.75 -0.749,1.965 0,2.715l5.117,5.116l-5.117,5.116Z" style="fill-rule:nonzero;"/><path d="M83.12,125.498l-10.608,-10.608c-0.057,-0.057 -0.118,-0.108 -0.18,-0.157l-4.936,-4.936l3.754,-3.754l10.597,10.597c0.031,0.03 0.063,0.056 0.094,0.084l5.026,5.026l-3.747,3.748Z" style="fill:#bd8d46;"/><path d="M83.104,112.567l-10.507,-10.507c-0.028,-0.031 -0.054,-0.064 -0.085,-0.094l-5.116,-5.116l3.773,-3.772l10.416,10.416c0.051,0.067 0.105,0.132 0.166,0.193l5.116,5.116l-3.763,3.764Z" style="fill:#bd8d46;"/><path d="M83.122,99.602l-10.61,-10.609c-0.061,-0.061 -0.126,-0.116 -0.193,-0.167l-4.923,-4.923l3.757,-3.757l10.595,10.594c0.012,0.012 0.025,0.023 0.037,0.034l5.082,5.082l-3.745,3.746Z" style="fill:#bd8d46;"/><path d="M83.107,86.67l-10.561,-10.56c-0.011,-0.012 -0.022,-0.026 -0.034,-0.038l-5.116,-5.116l3.112,-3.111l15.712,15.712l-3.113,3.113Z" style="fill:#bd8d46;"/><path d="M88.935,80.842l-15.713,-15.712l3.112,-3.112l5.116,5.116c0.005,0.006 0.011,0.01 0.016,0.015l10.581,10.581l-3.112,3.112Z" style="fill:#bd8d46;"/><path d="M101.235,81.489l-15.712,-15.713l3.758,-3.758l5.116,5.116c0.03,0.03 0.062,0.057 0.093,0.085l10.508,10.507l-3.763,3.763Z" style="fill:#bd8d46;"/><path d="M114.186,81.485l-15.713,-15.712l3.755,-3.755l5.116,5.116c0.048,0.049 0.099,0.093 0.151,0.136l10.453,10.453l-3.762,3.762Z" style="fill:#bd8d46;"/><path d="M127.136,81.482l-15.712,-15.712l3.751,-3.752l5.116,5.117c0.056,0.056 0.117,0.107 0.179,0.155l10.429,10.429l-3.763,3.763Z" style="fill:#bd8d46;"/><path d="M140.087,81.478l-15.713,-15.712l3.748,-3.748l5.116,5.117c0.065,0.064 0.134,0.122 0.206,0.176l10.406,10.405l-3.763,3.762Z" style="fill:#bd8d46;"/><path d="M141.069,62.018l9.248,9.248l-3.744,3.744l-9.248,-9.248l3.744,-3.744Z" style="fill:#bd8d46;"/><path d="M67.396,122.744l3.771,-3.77l10.427,10.427c0.049,0.062 0.1,0.123 0.157,0.18l5.117,5.117l-3.765,3.764l-10.49,-10.491c-0.033,-0.037 -0.065,-0.075 -0.1,-0.11l-5.117,-5.117Z" style="fill:#bd8d46;"/><path d="M76.631,144.926l-9.235,-9.235l3.754,-3.754l9.234,9.235l-3.753,3.754Z" style="fill:#bd8d46;"/></g></svg>