<?xml version="1.0" encoding="UTF-8" standalone="no"?><!DOCTYPE svg PUBLIC "-//W3C//DTD SVG 1.1//EN" "http://www.w3.org/Graphics/SVG/1.1/DTD/svg11.dtd"><svg width="100%" height="100%" viewBox="0 0 216 207" version="1.1" xmlns="http://www.w3.org/2000/svg" xmlns:xlink="http://www.w3.org/1999/xlink" xml:space="preserve" xmlns:serif="http://www.serif.com/" style="fill-rule:evenodd;clip-rule:evenodd;stroke-linejoin:round;stroke-miterlimit:2;"><rect x="0" y="0" width="215.355" height="206.142" style="fill:none;"/><g><path d="M177.113,158.871l-8.916,-90.277c-0.6,-7.222 -5.142,-13.574 -12.152,-16.992l-7.806,-3.807c-0.048,-2.147 -0.358,-8.205 -2.257,-15.303c-0.004,-0.018 -0.009,-0.036 -0.013,-0.053l0,0c-0.013,-0.054 -0.028,-0.109 -0.046,-0.162c-0.505,-1.707 -1.73,-3.2 -3.641,-4.436c-7.947,-5.142 -16.359,-7.417 -22.921,-8.394c-6.165,-0.919 -17.201,-0.919 -23.366,0c-6.562,0.978 -14.973,3.252 -22.92,8.393c-1.888,1.222 -3.107,2.694 -3.623,4.376c-0.034,0.092 -0.06,0.186 -0.078,0.281c-1.899,7.095 -2.208,13.15 -2.256,15.297l-7.804,3.808c-7.008,3.417 -11.552,9.769 -12.154,16.967l-8.917,90.327c-0.203,2.427 0.292,4.879 1.432,7.09l1.367,2.646l-0.364,6.959c-0.046,0.873 0.606,1.65 1.543,1.839l11.164,2.254c0.518,0.103 1.062,0.014 1.508,-0.252c0.444,-0.266 0.753,-0.684 0.854,-1.16l1.499,-7.022c1.086,-1.069 1.98,-2.282 2.66,-3.61c0.765,-1.489 1.235,-3.077 1.395,-4.72l4.614,-38.151c0.1,13.477 0.022,28.619 -0.617,38.157c-0.214,3.19 1.373,6.174 4.022,8.048l0,10.978c0,0.841 0.64,1.57 1.541,1.754c12.044,2.452 24.431,3.679 36.818,3.679c12.386,0 24.772,-1.227 36.814,-3.679c0.901,-0.184 1.541,-0.913 1.541,-1.754l0,-10.977c2.649,-1.874 4.236,-4.858 4.022,-8.048c-0.639,-9.54 -0.717,-24.69 -0.617,-38.17l4.618,38.163c0.305,3.108 1.736,6.043 4.051,8.329l1.499,7.025c0.102,0.475 0.41,0.893 0.855,1.159c0.324,0.193 0.7,0.294 1.081,0.294c0.143,0 0.286,-0.014 0.427,-0.042l11.164,-2.254c0.937,-0.189 1.588,-0.965 1.543,-1.839l-0.364,-6.959l1.366,-2.645c1.139,-2.201 1.636,-4.653 1.434,-7.117Zm-33.488,-118.362c0.493,3.323 0.628,5.937 0.664,7.214c-6.939,4.751 -16.167,7.979 -23.663,10.021c2.399,-1.348 4.96,-2.854 7.485,-4.453c7.544,-4.777 12.696,-9.014 15.514,-12.782Zm-54.128,9.832c-5.393,-3.415 -9.56,-6.612 -12.344,-9.419c7.46,-4.355 15.297,-6.148 21.138,-6.863c5.428,-0.665 13.378,-0.676 18.851,-0.001c5.826,0.719 13.621,2.516 21.063,6.863c-2.779,2.803 -6.937,5.993 -12.317,9.402c-7.617,4.826 -15.579,8.787 -18.21,10.062c-2.626,-1.273 -10.566,-5.223 -18.181,-10.044Zm-16.279,-17.04c0.003,-0.012 0.007,-0.024 0.009,-0.036c0,0 0,-0.001 0,-0.002c0.002,-0.006 0.004,-0.011 0.005,-0.018c0.001,-0.004 0.002,-0.007 0.003,-0.011c0.256,-0.889 0.97,-1.718 2.124,-2.465c6.701,-4.335 13.871,-6.462 19.734,-7.49c7.122,-1.249 18.071,-1.26 25.224,0c5.846,1.029 12.986,3.158 19.681,7.49c1.154,0.747 1.868,1.576 2.124,2.465c0.001,0.004 0.002,0.008 0.003,0.011c0.005,0.019 0.009,0.038 0.014,0.056c0,0.001 0.001,0.002 0.001,0.003c0.345,1.295 -0.179,2.91 -1.498,4.774c-8.344,-4.96 -17.022,-6.919 -23.406,-7.658c-5.067,-0.586 -14.046,-0.586 -19.11,0c-6.384,0.739 -15.063,2.697 -23.41,7.659c-1.321,-1.865 -1.845,-3.483 -1.498,-4.778Zm-1.488,7.207c2.819,3.767 7.971,8.006 15.517,12.783c2.527,1.601 5.091,3.108 7.493,4.459c-7.494,-2.041 -16.724,-5.27 -23.673,-10.027c0.035,-1.276 0.169,-3.888 0.663,-7.215Zm-27.033,133.742l0.2,-3.833l8.21,1.403l-0.845,3.957l-7.565,-1.527Zm28.567,6.257l0,-7.8c22.52,5.378 46.307,5.378 68.826,0l0,7.8c-22.547,4.381 -46.275,4.381 -68.826,0Zm89.828,-4.73l-0.844,-3.957l8.209,-1.403l0.201,3.833l-7.566,1.527Zm9.018,-11.321l-1.146,2.219l-10.319,1.763c-1.517,-1.649 -2.453,-3.696 -2.661,-5.853c-0.002,-0.013 -0.003,-0.027 -0.005,-0.039l-8.086,-66.832c-0.113,-0.94 -1.02,-1.641 -2.044,-1.597c-1.037,0.04 -1.862,0.805 -1.887,1.751c-0.013,0.464 -1.221,46.712 0.158,67.279c0.186,2.78 -1.829,5.316 -4.792,6.029c-22.015,5.298 -45.288,5.298 -67.303,0c-2.963,-0.713 -4.977,-3.249 -4.79,-6.029c1.378,-20.567 0.17,-66.815 0.158,-67.279c-0.026,-0.946 -0.851,-1.711 -1.888,-1.751c-1.046,-0.043 -1.931,0.657 -2.044,1.597l-8.083,66.832c-0.001,0.013 -0.003,0.026 -0.004,0.039c-0.119,1.231 -0.469,2.419 -1.043,3.535c-0.43,0.84 -0.973,1.617 -1.62,2.318l-10.321,-1.763l-1.146,-2.218c-0.851,-1.649 -1.22,-3.478 -1.071,-5.263l8.917,-90.328c0.502,-5.992 4.272,-11.262 10.086,-14.096l7.955,-3.883c6.009,4.02 14.083,7.446 24.037,10.192c0.373,0.103 0.741,0.202 1.106,0.3l3.944,0.991c5.101,1.204 8.682,1.75 9.113,1.813c0.113,0.019 0.229,0.028 0.346,0.028l0.002,0c0.118,0 0.233,-0.009 0.346,-0.028c0.432,-0.063 4.012,-0.609 9.113,-1.813l3.944,-0.991c0.365,-0.097 0.733,-0.197 1.107,-0.3c9.952,-2.746 18.027,-6.171 24.035,-10.191l7.959,3.882c5.815,2.836 9.584,8.105 10.083,14.121l8.916,90.275c0.149,1.819 -0.221,3.648 -1.072,5.29Z" style="fill-rule:nonzero;"/><g><path d="M143.625,40.509c0.493,3.323 0.628,5.937 0.664,7.214c-6.939,4.751 -16.167,7.979 -23.663,10.021c2.399,-1.348 4.96,-2.854 7.485,-4.453c7.544,-4.777 12.696,-9.014 15.514,-12.782Z" style="fill:#bd8d46;"/><path d="M73.218,33.301c0.003,-0.012 0.007,-0.024 0.009,-0.036c0,0 0,-0.001 0,-0.002c0.002,-0.006 0.004,-0.011 0.005,-0.018c0.001,-0.004 0.002,-0.007 0.003,-0.011c0.256,-0.889 0.97,-1.718 2.124,-2.465c6.701,-4.335 13.871,-6.462 19.734,-7.49c7.122,-1.249 18.071,-1.26 25.224,0c5.846,1.029 12.986,3.158 19.681,7.49c1.154,0.747 1.868,1.576 2.124,2.465c0.001,0.004 0.002,0.008 0.003,0.011c0.005,0.019 0.009,0.038 0.014,0.056c0,0.001 0.001,0.002 0.001,0.003c0.345,1.295 -0.179,2.91 -1.498,4.774c-8.344,-4.96 -17.022,-6.919 -23.406,-7.658c-5.067,-0.586 -14.046,-0.586 -19.11,0c-6.384,0.739 -15.063,2.697 -23.41,7.659c-1.321,-1.865 -1.845,-3.483 -1.498,-4.778Z" style="fill:#bd8d46;"/><path d="M71.73,40.508c2.819,3.767 7.971,8.006 15.517,12.783c2.527,1.601 5.091,3.108 7.493,4.459c-7.494,-2.041 -16.724,-5.27 -23.673,-10.027c0.035,-1.276 0.169,-3.888 0.663,-7.215Z" style="fill:#bd8d46;"/><path d="M44.697,174.25l0.2,-3.833l8.21,1.403l-0.845,3.957l-7.565,-1.527Z" style="fill:#bd8d46;"/><path d="M73.264,180.507l0,-7.8c22.52,5.378 46.307,5.378 68.826,0l0,7.8c-22.547,4.381 -46.275,4.381 -68.826,0Z" style="fill:#bd8d46;"/><path d="M163.092,175.777l-0.844,-3.957l8.209,-1.403l0.201,3.833l-7.566,1.527Z" style="fill:#bd8d46;"/></g></g></svg>