<?xml version="1.0" encoding="UTF-8" standalone="no"?><!DOCTYPE svg PUBLIC "-//W3C//DTD SVG 1.1//EN" "http://www.w3.org/Graphics/SVG/1.1/DTD/svg11.dtd"><svg width="100%" height="100%" viewBox="0 0 103 69" version="1.1" xmlns="http://www.w3.org/2000/svg" xmlns:xlink="http://www.w3.org/1999/xlink" xml:space="preserve" xmlns:serif="http://www.serif.com/" style="fill-rule:evenodd;clip-rule:evenodd;stroke-linejoin:round;stroke-miterlimit:2;"><g><rect x="0" y="52.639" width="3.096" height="3.096" style="fill:#b9121b;fill-rule:nonzero;"/><rect x="3.096" y="49.543" width="3.096" height="3.096" style="fill:#b9121b;fill-rule:nonzero;"/><rect x="3.096" y="52.639" width="3.096" height="3.096" style="fill:#b9121b;fill-rule:nonzero;"/><rect x="3.096" y="55.735" width="3.096" height="3.096" style="fill:#b9121b;fill-rule:nonzero;"/><rect x="6.193" y="52.639" width="3.096" height="3.096" style="fill:#b9121b;fill-rule:nonzero;"/><rect x="6.193" y="55.735" width="3.096" height="3.096" style="fill:#b9121b;fill-rule:nonzero;"/><rect x="6.193" y="58.832" width="3.096" height="3.096" style="fill:#b9121b;fill-rule:nonzero;"/><rect x="9.289" y="55.735" width="3.096" height="3.096" style="fill:#b9121b;fill-rule:nonzero;"/><rect x="9.289" y="58.832" width="3.096" height="3.096" style="fill:#b9121b;fill-rule:nonzero;"/><rect x="9.289" y="43.35" width="3.096" height="3.096" style="fill:#b9121b;fill-rule:nonzero;"/><rect x="12.386" y="40.253" width="3.096" height="3.096" style="fill:#b9121b;fill-rule:nonzero;"/><rect x="12.386" y="43.35" width="3.096" height="3.096" style="fill:#b9121b;fill-rule:nonzero;"/><rect x="12.386" y="46.446" width="3.096" height="3.096" style="fill:#b9121b;fill-rule:nonzero;"/><rect x="15.482" y="43.35" width="3.096" height="3.096" style="fill:#b9121b;fill-rule:nonzero;"/><rect x="15.482" y="46.446" width="3.096" height="3.096" style="fill:#b9121b;fill-rule:nonzero;"/><rect x="15.482" y="49.543" width="3.096" height="3.096" style="fill:#b9121b;fill-rule:nonzero;"/><rect x="18.578" y="46.446" width="3.096" height="3.096" style="fill:#b9121b;fill-rule:nonzero;"/><rect x="18.578" y="49.543" width="3.096" height="3.096" style="fill:#b9121b;fill-rule:nonzero;"/><rect x="18.578" y="34.06" width="3.096" height="3.096" style="fill:#b9121b;fill-rule:nonzero;"/><rect x="21.675" y="30.964" width="3.096" height="3.096" style="fill:#b9121b;fill-rule:nonzero;"/><rect x="21.675" y="34.06" width="3.096" height="3.096" style="fill:#b9121b;fill-rule:nonzero;"/><rect x="21.675" y="37.157" width="3.096" height="3.096" style="fill:#b9121b;fill-rule:nonzero;"/><rect x="24.771" y="34.06" width="3.096" height="3.096" style="fill:#b9121b;fill-rule:nonzero;"/><rect x="24.771" y="37.157" width="3.096" height="3.096" style="fill:#b9121b;fill-rule:nonzero;"/><rect x="24.771" y="40.253" width="3.096" height="3.096" style="fill:#b9121b;fill-rule:nonzero;"/><rect x="27.868" y="37.157" width="3.096" height="3.096" style="fill:#b9121b;fill-rule:nonzero;"/><rect x="27.868" y="40.253" width="3.096" height="3.096" style="fill:#b9121b;fill-rule:nonzero;"/><rect x="27.868" y="24.771" width="3.096" height="3.096" style="fill:#b9121b;fill-rule:nonzero;"/><rect x="30.964" y="21.675" width="3.096" height="3.096" style="fill:#b9121b;fill-rule:nonzero;"/><rect x="30.964" y="24.771" width="3.096" height="3.096" style="fill:#b9121b;fill-rule:nonzero;"/><rect x="30.964" y="27.868" width="3.096" height="3.096" style="fill:#b9121b;fill-rule:nonzero;"/><rect x="34.06" y="24.771" width="3.096" height="3.096" style="fill:#b9121b;fill-rule:nonzero;"/><rect x="34.06" y="27.868" width="3.096" height="3.096" style="fill:#b9121b;fill-rule:nonzero;"/><rect x="34.06" y="30.964" width="3.096" height="3.096" style="fill:#b9121b;fill-rule:nonzero;"/><rect x="37.157" y="27.868" width="3.096" height="3.096" style="fill:#b9121b;fill-rule:nonzero;"/><rect x="37.157" y="30.964" width="3.096" height="3.096" style="fill:#b9121b;fill-rule:nonzero;"/><rect x="37.157" y="15.482" width="3.096" height="3.096" style="fill:#b9121b;fill-rule:nonzero;"/><rect x="40.253" y="12.386" width="3.096" height="3.096" style="fill:#b9121b;fill-rule:nonzero;"/><rect x="40.253" y="15.482" width="3.096" height="3.096" style="fill:#b9121b;fill-rule:nonzero;"/><rect x="40.253" y="18.578" width="3.096" height="3.096" style="fill:#b9121b;fill-rule:nonzero;"/><rect x="43.35" y="15.482" width="3.096" height="3.096" style="fill:#b9121b;fill-rule:nonzero;"/><rect x="43.35" y="18.578" width="3.096" height="3.096" style="fill:#b9121b;fill-rule:nonzero;"/><rect x="43.35" y="21.675" width="3.096" height="3.096" style="fill:#b9121b;fill-rule:nonzero;"/><rect x="46.446" y="18.578" width="3.096" height="3.096" style="fill:#b9121b;fill-rule:nonzero;"/><rect x="46.446" y="21.675" width="3.096" height="3.096" style="fill:#b9121b;fill-rule:nonzero;"/><rect x="99.085" y="52.639" width="3.096" height="3.096" style="fill:#b9121b;fill-rule:nonzero;"/><rect x="95.989" y="49.543" width="3.096" height="3.096" style="fill:#b9121b;fill-rule:nonzero;"/><rect x="95.989" y="52.639" width="3.096" height="3.096" style="fill:#b9121b;fill-rule:nonzero;"/><rect x="95.989" y="55.735" width="3.096" height="3.096" style="fill:#b9121b;fill-rule:nonzero;"/><rect x="92.892" y="52.639" width="3.096" height="3.096" style="fill:#b9121b;fill-rule:nonzero;"/><rect x="92.892" y="55.735" width="3.096" height="3.096" style="fill:#b9121b;fill-rule:nonzero;"/><rect x="92.892" y="58.832" width="3.096" height="3.096" style="fill:#b9121b;fill-rule:nonzero;"/><rect x="89.796" y="55.735" width="3.096" height="3.096" style="fill:#b9121b;fill-rule:nonzero;"/><rect x="89.796" y="58.832" width="3.096" height="3.096" style="fill:#b9121b;fill-rule:nonzero;"/><rect x="89.796" y="43.35" width="3.096" height="3.096" style="fill:#b9121b;fill-rule:nonzero;"/><rect x="86.699" y="40.253" width="3.096" height="3.096" style="fill:#b9121b;fill-rule:nonzero;"/><rect x="86.699" y="43.35" width="3.096" height="3.096" style="fill:#b9121b;fill-rule:nonzero;"/><rect x="86.699" y="46.446" width="3.096" height="3.096" style="fill:#b9121b;fill-rule:nonzero;"/><rect x="83.603" y="43.35" width="3.096" height="3.096" style="fill:#b9121b;fill-rule:nonzero;"/><rect x="83.603" y="46.446" width="3.096" height="3.096" style="fill:#b9121b;fill-rule:nonzero;"/><rect x="83.603" y="49.543" width="3.096" height="3.096" style="fill:#b9121b;fill-rule:nonzero;"/><rect x="80.507" y="46.446" width="3.096" height="3.096" style="fill:#b9121b;fill-rule:nonzero;"/><rect x="80.507" y="49.543" width="3.096" height="3.096" style="fill:#b9121b;fill-rule:nonzero;"/><rect x="80.507" y="34.06" width="3.096" height="3.096" style="fill:#b9121b;fill-rule:nonzero;"/><rect x="77.41" y="30.964" width="3.096" height="3.096" style="fill:#b9121b;fill-rule:nonzero;"/><rect x="77.41" y="34.06" width="3.096" height="3.096" style="fill:#b9121b;fill-rule:nonzero;"/><rect x="77.41" y="37.157" width="3.096" height="3.096" style="fill:#b9121b;fill-rule:nonzero;"/><rect x="74.314" y="34.06" width="3.096" height="3.096" style="fill:#b9121b;fill-rule:nonzero;"/><rect x="74.314" y="37.157" width="3.096" height="3.096" style="fill:#b9121b;fill-rule:nonzero;"/><rect x="74.314" y="40.253" width="3.096" height="3.096" style="fill:#b9121b;fill-rule:nonzero;"/><rect x="71.217" y="37.157" width="3.096" height="3.096" style="fill:#b9121b;fill-rule:nonzero;"/><rect x="71.217" y="40.253" width="3.096" height="3.096" style="fill:#b9121b;fill-rule:nonzero;"/><rect x="71.217" y="24.771" width="3.096" height="3.096" style="fill:#b9121b;fill-rule:nonzero;"/><rect x="68.121" y="21.675" width="3.096" height="3.096" style="fill:#b9121b;fill-rule:nonzero;"/><rect x="68.121" y="24.771" width="3.096" height="3.096" style="fill:#b9121b;fill-rule:nonzero;"/><rect x="68.121" y="27.868" width="3.096" height="3.096" style="fill:#b9121b;fill-rule:nonzero;"/><rect x="65.025" y="24.771" width="3.096" height="3.096" style="fill:#b9121b;fill-rule:nonzero;"/><rect x="65.025" y="27.868" width="3.096" height="3.096" style="fill:#b9121b;fill-rule:nonzero;"/><rect x="65.025" y="30.964" width="3.096" height="3.096" style="fill:#b9121b;fill-rule:nonzero;"/><rect x="61.928" y="27.868" width="3.096" height="3.096" style="fill:#b9121b;fill-rule:nonzero;"/><rect x="61.928" y="30.964" width="3.096" height="3.096" style="fill:#b9121b;fill-rule:nonzero;"/><rect x="61.928" y="15.482" width="3.096" height="3.096" style="fill:#b9121b;fill-rule:nonzero;"/><rect x="58.832" y="12.386" width="3.096" height="3.096" style="fill:#b9121b;fill-rule:nonzero;"/><rect x="58.832" y="15.482" width="3.096" height="3.096" style="fill:#b9121b;fill-rule:nonzero;"/><rect x="58.832" y="18.578" width="3.096" height="3.096" style="fill:#b9121b;fill-rule:nonzero;"/><rect x="55.735" y="15.482" width="3.096" height="3.096" style="fill:#b9121b;fill-rule:nonzero;"/><rect x="55.735" y="18.578" width="3.096" height="3.096" style="fill:#b9121b;fill-rule:nonzero;"/><rect x="55.735" y="21.675" width="3.096" height="3.096" style="fill:#b9121b;fill-rule:nonzero;"/><rect x="52.639" y="18.578" width="3.096" height="3.096" style="fill:#b9121b;fill-rule:nonzero;"/><rect x="52.639" y="21.675" width="3.096" height="3.096" style="fill:#b9121b;fill-rule:nonzero;"/><rect x="49.543" y="24.771" width="3.096" height="3.096" style="fill:#b9121b;fill-rule:nonzero;"/><rect x="49.543" y="21.675" width="3.096" height="3.096" style="fill:#b9121b;fill-rule:nonzero;"/><rect x="46.446" y="27.868" width="3.096" height="3.096" style="fill:#b9121b;fill-rule:nonzero;"/><rect x="46.446" y="24.771" width="3.096" height="3.096" style="fill:#b9121b;fill-rule:nonzero;"/><rect x="43.35" y="30.964" width="3.096" height="3.096" style="fill:#b9121b;fill-rule:nonzero;"/><rect x="43.35" y="27.868" width="3.096" height="3.096" style="fill:#b9121b;fill-rule:nonzero;"/><rect x="40.253" y="34.06" width="3.096" height="3.096" style="fill:#b9121b;fill-rule:nonzero;"/><rect x="40.253" y="30.964" width="3.096" height="3.096" style="fill:#b9121b;fill-rule:nonzero;"/><rect x="37.157" y="37.157" width="3.096" height="3.096" style="fill:#b9121b;fill-rule:nonzero;"/><rect x="37.157" y="34.06" width="3.096" height="3.096" style="fill:#b9121b;fill-rule:nonzero;"/><rect x="34.06" y="40.253" width="3.096" height="3.096" style="fill:#b9121b;fill-rule:nonzero;"/><rect x="34.06" y="37.157" width="3.096" height="3.096" style="fill:#b9121b;fill-rule:nonzero;"/><rect x="30.964" y="43.35" width="3.096" height="3.096" style="fill:#b9121b;fill-rule:nonzero;"/><rect x="30.964" y="40.253" width="3.096" height="3.096" style="fill:#b9121b;fill-rule:nonzero;"/><rect x="27.868" y="46.446" width="3.096" height="3.096" style="fill:#b9121b;fill-rule:nonzero;"/><rect x="27.868" y="43.35" width="3.096" height="3.096" style="fill:#b9121b;fill-rule:nonzero;"/><rect x="24.771" y="49.543" width="3.096" height="3.096" style="fill:#b9121b;fill-rule:nonzero;"/><rect x="24.771" y="46.446" width="3.096" height="3.096" style="fill:#b9121b;fill-rule:nonzero;"/><rect x="21.675" y="52.639" width="3.096" height="3.096" style="fill:#b9121b;fill-rule:nonzero;"/><rect x="21.675" y="49.543" width="3.096" height="3.096" style="fill:#b9121b;fill-rule:nonzero;"/><rect x="18.578" y="55.735" width="3.096" height="3.096" style="fill:#b9121b;fill-rule:nonzero;"/><rect x="18.578" y="52.639" width="3.096" height="3.096" style="fill:#b9121b;fill-rule:nonzero;"/><rect x="15.482" y="58.832" width="3.096" height="3.096" style="fill:#b9121b;fill-rule:nonzero;"/><rect x="15.482" y="55.735" width="3.096" height="3.096" style="fill:#b9121b;fill-rule:nonzero;"/><rect x="12.386" y="61.928" width="3.096" height="3.096" style="fill:#b9121b;fill-rule:nonzero;"/><rect x="12.386" y="58.832" width="3.096" height="3.096" style="fill:#b9121b;fill-rule:nonzero;"/><rect x="9.289" y="61.928" width="3.096" height="3.096" style="fill:#b9121b;fill-rule:nonzero;"/><rect x="52.639" y="27.868" width="3.096" height="3.096" style="fill:#b9121b;fill-rule:nonzero;"/><rect x="52.639" y="24.771" width="3.096" height="3.096" style="fill:#b9121b;fill-rule:nonzero;"/><rect x="55.735" y="30.964" width="3.096" height="3.096" style="fill:#b9121b;fill-rule:nonzero;"/><rect x="55.735" y="27.868" width="3.096" height="3.096" style="fill:#b9121b;fill-rule:nonzero;"/><rect x="58.832" y="34.06" width="3.096" height="3.096" style="fill:#b9121b;fill-rule:nonzero;"/><rect x="58.832" y="30.964" width="3.096" height="3.096" style="fill:#b9121b;fill-rule:nonzero;"/><rect x="61.928" y="37.157" width="3.096" height="3.096" style="fill:#b9121b;fill-rule:nonzero;"/><rect x="61.928" y="34.06" width="3.096" height="3.096" style="fill:#b9121b;fill-rule:nonzero;"/><rect x="65.025" y="40.253" width="3.096" height="3.096" style="fill:#b9121b;fill-rule:nonzero;"/><rect x="65.025" y="37.157" width="3.096" height="3.096" style="fill:#b9121b;fill-rule:nonzero;"/><rect x="68.121" y="43.35" width="3.096" height="3.096" style="fill:#b9121b;fill-rule:nonzero;"/><rect x="68.121" y="40.253" width="3.096" height="3.096" style="fill:#b9121b;fill-rule:nonzero;"/><rect x="71.217" y="46.446" width="3.096" height="3.096" style="fill:#b9121b;fill-rule:nonzero;"/><rect x="71.217" y="43.35" width="3.096" height="3.096" style="fill:#b9121b;fill-rule:nonzero;"/><rect x="74.314" y="49.543" width="3.096" height="3.096" style="fill:#b9121b;fill-rule:nonzero;"/><rect x="74.314" y="46.446" width="3.096" height="3.096" style="fill:#b9121b;fill-rule:nonzero;"/><rect x="77.41" y="52.639" width="3.096" height="3.096" style="fill:#b9121b;fill-rule:nonzero;"/><rect x="77.41" y="49.543" width="3.096" height="3.096" style="fill:#b9121b;fill-rule:nonzero;"/><rect x="80.507" y="55.735" width="3.096" height="3.096" style="fill:#b9121b;fill-rule:nonzero;"/><rect x="80.507" y="52.639" width="3.096" height="3.096" style="fill:#b9121b;fill-rule:nonzero;"/><rect x="83.603" y="58.832" width="3.096" height="3.096" style="fill:#b9121b;fill-rule:nonzero;"/><rect x="83.603" y="55.735" width="3.096" height="3.096" style="fill:#b9121b;fill-rule:nonzero;"/><rect x="86.699" y="61.928" width="3.096" height="3.096" style="fill:#b9121b;fill-rule:nonzero;"/><rect x="86.699" y="58.832" width="3.096" height="3.096" style="fill:#b9121b;fill-rule:nonzero;"/><rect x="89.796" y="61.928" width="3.096" height="3.096" style="fill:#b9121b;fill-rule:nonzero;"/><rect x="34.06" y="49.543" width="3.096" height="3.096" style="fill:#b9121b;fill-rule:nonzero;"/><rect x="34.06" y="46.446" width="3.096" height="3.096" style="fill:#b9121b;fill-rule:nonzero;"/><rect x="30.964" y="46.446" width="3.096" height="3.096" style="fill:#b9121b;fill-rule:nonzero;"/><rect x="68.121" y="46.446" width="3.096" height="3.096" style="fill:#b9121b;fill-rule:nonzero;"/><rect x="37.157" y="52.639" width="3.096" height="3.096" style="fill:#b9121b;fill-rule:nonzero;"/><rect x="37.157" y="49.543" width="3.096" height="3.096" style="fill:#b9121b;fill-rule:nonzero;"/><rect x="40.253" y="55.735" width="3.096" height="3.096" style="fill:#b9121b;fill-rule:nonzero;"/><rect x="40.253" y="52.639" width="3.096" height="3.096" style="fill:#b9121b;fill-rule:nonzero;"/><rect x="43.35" y="58.832" width="3.096" height="3.096" style="fill:#b9121b;fill-rule:nonzero;"/><rect x="43.35" y="55.735" width="3.096" height="3.096" style="fill:#b9121b;fill-rule:nonzero;"/><rect x="46.446" y="61.928" width="3.096" height="3.096" style="fill:#b9121b;fill-rule:nonzero;"/><rect x="46.446" y="58.832" width="3.096" height="3.096" style="fill:#b9121b;fill-rule:nonzero;"/><rect x="49.543" y="65.025" width="3.096" height="3.096" style="fill:#b9121b;fill-rule:nonzero;"/><rect x="34.06" y="52.639" width="3.096" height="3.096" style="fill:#b9121b;fill-rule:nonzero;"/><rect x="30.964" y="49.543" width="3.096" height="3.096" style="fill:#b9121b;fill-rule:nonzero;"/><rect x="37.157" y="55.735" width="3.096" height="3.096" style="fill:#b9121b;fill-rule:nonzero;"/><rect x="40.253" y="58.832" width="3.096" height="3.096" style="fill:#b9121b;fill-rule:nonzero;"/><rect x="43.35" y="61.928" width="3.096" height="3.096" style="fill:#b9121b;fill-rule:nonzero;"/><rect x="49.543" y="61.928" width="3.096" height="3.096" style="fill:#b9121b;fill-rule:nonzero;"/><rect x="52.639" y="61.928" width="3.096" height="3.096" style="fill:#b9121b;fill-rule:nonzero;"/><rect x="52.639" y="58.832" width="3.096" height="3.096" style="fill:#b9121b;fill-rule:nonzero;"/><rect x="55.735" y="58.832" width="3.096" height="3.096" style="fill:#b9121b;fill-rule:nonzero;"/><rect x="55.735" y="55.735" width="3.096" height="3.096" style="fill:#b9121b;fill-rule:nonzero;"/><rect x="58.832" y="55.735" width="3.096" height="3.096" style="fill:#b9121b;fill-rule:nonzero;"/><rect x="58.832" y="52.639" width="3.096" height="3.096" style="fill:#b9121b;fill-rule:nonzero;"/><rect x="61.928" y="52.639" width="3.096" height="3.096" style="fill:#b9121b;fill-rule:nonzero;"/><rect x="61.928" y="49.543" width="3.096" height="3.096" style="fill:#b9121b;fill-rule:nonzero;"/><rect x="65.025" y="49.543" width="3.096" height="3.096" style="fill:#b9121b;fill-rule:nonzero;"/><rect x="68.121" y="49.543" width="3.096" height="3.096" style="fill:#b9121b;fill-rule:nonzero;"/><rect x="55.735" y="61.928" width="3.096" height="3.096" style="fill:#b9121b;fill-rule:nonzero;"/><rect x="58.832" y="58.832" width="3.096" height="3.096" style="fill:#b9121b;fill-rule:nonzero;"/><rect x="61.928" y="55.735" width="3.096" height="3.096" style="fill:#b9121b;fill-rule:nonzero;"/><rect x="65.025" y="52.639" width="3.096" height="3.096" style="fill:#b9121b;fill-rule:nonzero;"/><rect x="65.025" y="46.446" width="3.096" height="3.096" style="fill:#b9121b;fill-rule:nonzero;"/><rect x="49.543" y="6.193" width="3.096" height="3.096" style="fill:#f6e497;fill-rule:nonzero;"/><rect x="52.639" y="6.193" width="3.096" height="3.096" style="fill:#f6e497;fill-rule:nonzero;"/><rect x="46.446" y="6.193" width="3.096" height="3.096" style="fill:#f6e497;fill-rule:nonzero;"/><rect x="49.543" y="3.096" width="3.096" height="3.096" style="fill:#f6e497;fill-rule:nonzero;"/><rect x="49.543" y="9.289" width="3.096" height="3.096" style="fill:#f6e497;fill-rule:nonzero;"/><rect x="40.253" y="43.35" width="3.096" height="3.096" style="fill:#bd8d46;fill-rule:nonzero;"/><rect x="43.35" y="46.446" width="3.096" height="3.096" style="fill:#bd8d46;fill-rule:nonzero;"/><rect x="46.446" y="49.543" width="3.096" height="3.096" style="fill:#bd8d46;fill-rule:nonzero;"/><rect x="49.543" y="52.639" width="3.096" height="3.096" style="fill:#bd8d46;fill-rule:nonzero;"/><rect x="49.543" y="55.735" width="3.096" height="3.096" style="fill:#bd8d46;fill-rule:nonzero;"/><rect x="52.639" y="52.639" width="3.096" height="3.096" style="fill:#bd8d46;fill-rule:nonzero;"/><rect x="55.735" y="49.543" width="3.096" height="3.096" style="fill:#bd8d46;fill-rule:nonzero;"/><rect x="58.832" y="46.446" width="3.096" height="3.096" style="fill:#bd8d46;fill-rule:nonzero;"/><rect x="61.928" y="43.35" width="3.096" height="3.096" style="fill:#bd8d46;fill-rule:nonzero;"/><rect x="58.832" y="40.253" width="3.096" height="3.096" style="fill:#bd8d46;fill-rule:nonzero;"/><rect x="55.735" y="37.157" width="3.096" height="3.096" style="fill:#bd8d46;fill-rule:nonzero;"/><rect x="52.639" y="34.06" width="3.096" height="3.096" style="fill:#bd8d46;fill-rule:nonzero;"/><rect x="49.543" y="30.964" width="3.096" height="3.096" style="fill:#bd8d46;fill-rule:nonzero;"/><rect x="46.446" y="34.06" width="3.096" height="3.096" style="fill:#bd8d46;fill-rule:nonzero;"/><rect x="43.35" y="37.157" width="3.096" height="3.096" style="fill:#bd8d46;fill-rule:nonzero;"/><rect x="40.253" y="40.253" width="3.096" height="3.096" style="fill:#bd8d46;fill-rule:nonzero;"/><rect x="37.157" y="43.35" width="3.096" height="3.096" style="fill:#bd8d46;fill-rule:nonzero;"/><rect x="40.253" y="46.446" width="3.096" height="3.096" style="fill:#bd8d46;fill-rule:nonzero;"/><rect x="43.35" y="49.543" width="3.096" height="3.096" style="fill:#bd8d46;fill-rule:nonzero;"/><rect x="46.446" y="52.639" width="3.096" height="3.096" style="fill:#bd8d46;fill-rule:nonzero;"/><rect x="52.639" y="49.543" width="3.096" height="3.096" style="fill:#bd8d46;fill-rule:nonzero;"/><rect x="55.735" y="46.446" width="3.096" height="3.096" style="fill:#bd8d46;fill-rule:nonzero;"/><rect x="58.832" y="43.35" width="3.096" height="3.096" style="fill:#bd8d46;fill-rule:nonzero;"/><rect x="55.735" y="40.253" width="3.096" height="3.096" style="fill:#bd8d46;fill-rule:nonzero;"/><rect x="52.639" y="37.157" width="3.096" height="3.096" style="fill:#bd8d46;fill-rule:nonzero;"/><rect x="49.543" y="34.06" width="3.096" height="3.096" style="fill:#bd8d46;fill-rule:nonzero;"/><rect x="46.446" y="37.157" width="3.096" height="3.096" style="fill:#bd8d46;fill-rule:nonzero;"/><rect x="43.35" y="40.253" width="3.096" height="3.096" style="fill:#bd8d46;fill-rule:nonzero;"/><rect x="49.543" y="43.35" width="3.096" height="3.096" style="fill:#4c1b1b;fill-rule:nonzero;"/><rect x="49.543" y="58.832" width="3.096" height="3.096" style="fill:#4c1b1b;fill-rule:nonzero;"/><rect x="46.446" y="55.735" width="3.096" height="3.096" style="fill:#4c1b1b;fill-rule:nonzero;"/><rect x="43.35" y="52.639" width="3.096" height="3.096" style="fill:#4c1b1b;fill-rule:nonzero;"/><rect x="40.253" y="49.543" width="3.096" height="3.096" style="fill:#4c1b1b;fill-rule:nonzero;"/><rect x="37.157" y="46.446" width="3.096" height="3.096" style="fill:#4c1b1b;fill-rule:nonzero;"/><rect x="34.06" y="43.35" width="3.096" height="3.096" style="fill:#4c1b1b;fill-rule:nonzero;"/><rect x="37.157" y="40.253" width="3.096" height="3.096" style="fill:#4c1b1b;fill-rule:nonzero;"/><rect x="40.253" y="37.157" width="3.096" height="3.096" style="fill:#4c1b1b;fill-rule:nonzero;"/><rect x="43.35" y="34.06" width="3.096" height="3.096" style="fill:#4c1b1b;fill-rule:nonzero;"/><rect x="46.446" y="30.964" width="3.096" height="3.096" style="fill:#4c1b1b;fill-rule:nonzero;"/><rect x="49.543" y="27.868" width="3.096" height="3.096" style="fill:#4c1b1b;fill-rule:nonzero;"/><rect x="52.639" y="30.964" width="3.096" height="3.096" style="fill:#4c1b1b;fill-rule:nonzero;"/><rect x="55.735" y="34.06" width="3.096" height="3.096" style="fill:#4c1b1b;fill-rule:nonzero;"/><rect x="58.832" y="37.157" width="3.096" height="3.096" style="fill:#4c1b1b;fill-rule:nonzero;"/><rect x="61.928" y="40.253" width="3.096" height="3.096" style="fill:#4c1b1b;fill-rule:nonzero;"/><rect x="65.025" y="43.35" width="3.096" height="3.096" style="fill:#4c1b1b;fill-rule:nonzero;"/><rect x="61.928" y="46.446" width="3.096" height="3.096" style="fill:#4c1b1b;fill-rule:nonzero;"/><rect x="58.832" y="49.543" width="3.096" height="3.096" style="fill:#4c1b1b;fill-rule:nonzero;"/><rect x="55.735" y="52.639" width="3.096" height="3.096" style="fill:#4c1b1b;fill-rule:nonzero;"/><rect x="52.639" y="55.735" width="3.096" height="3.096" style="fill:#4c1b1b;fill-rule:nonzero;"/><rect x="43.35" y="6.193" width="3.096" height="3.096" style="fill:#4c1b1b;fill-rule:nonzero;"/><rect x="46.446" y="3.096" width="3.096" height="3.096" style="fill:#4c1b1b;fill-rule:nonzero;"/><rect x="49.543" y="0" width="3.096" height="3.096" style="fill:#4c1b1b;fill-rule:nonzero;"/><rect x="52.639" y="3.096" width="3.096" height="3.096" style="fill:#4c1b1b;fill-rule:nonzero;"/><rect x="55.735" y="6.193" width="3.096" height="3.096" style="fill:#4c1b1b;fill-rule:nonzero;"/><rect x="46.446" y="9.289" width="3.096" height="3.096" style="fill:#4c1b1b;fill-rule:nonzero;"/><rect x="49.543" y="12.386" width="3.096" height="3.096" style="fill:#4c1b1b;fill-rule:nonzero;"/><rect x="52.639" y="9.289" width="3.096" height="3.096" style="fill:#4c1b1b;fill-rule:nonzero;"/><rect x="43.35" y="43.35" width="3.096" height="3.096" style="fill:#4c1b1b;fill-rule:nonzero;"/><rect x="46.446" y="40.253" width="3.096" height="3.096" style="fill:#4c1b1b;fill-rule:nonzero;"/><rect x="49.543" y="37.157" width="3.096" height="3.096" style="fill:#4c1b1b;fill-rule:nonzero;"/><rect x="52.639" y="40.253" width="3.096" height="3.096" style="fill:#4c1b1b;fill-rule:nonzero;"/><rect x="55.735" y="43.35" width="3.096" height="3.096" style="fill:#4c1b1b;fill-rule:nonzero;"/><rect x="46.446" y="46.446" width="3.096" height="3.096" style="fill:#4c1b1b;fill-rule:nonzero;"/><rect x="49.543" y="49.543" width="3.096" height="3.096" style="fill:#4c1b1b;fill-rule:nonzero;"/><rect x="52.639" y="46.446" width="3.096" height="3.096" style="fill:#4c1b1b;fill-rule:nonzero;"/></g></svg>