<?xml version="1.0" encoding="UTF-8" standalone="no"?><!DOCTYPE svg PUBLIC "-//W3C//DTD SVG 1.1//EN" "http://www.w3.org/Graphics/SVG/1.1/DTD/svg11.dtd"><svg width="100%" height="100%" viewBox="0 0 98 81" version="1.1" xmlns="http://www.w3.org/2000/svg" xmlns:xlink="http://www.w3.org/1999/xlink" xml:space="preserve" xmlns:serif="http://www.serif.com/" style="fill-rule:evenodd;clip-rule:evenodd;stroke-linejoin:round;stroke-miterlimit:1.41421;"><rect x="45.758" y="11.44" width="5.721" height="5.72" style="fill:#bd8d46;fill-rule:nonzero;"/><rect x="40.037" y="34.32" width="5.721" height="5.72" style="fill:#bd8d46;fill-rule:nonzero;"/><rect x="40.037" y="40.04" width="5.721" height="5.72" style="fill:#bd8d46;fill-rule:nonzero;"/><rect x="40.037" y="45.76" width="5.721" height="5.72" style="fill:#bd8d46;fill-rule:nonzero;"/><rect x="51.48" y="34.32" width="5.718" height="5.72" style="fill:#bd8d46;fill-rule:nonzero;"/><rect x="51.48" y="40.04" width="5.718" height="5.72" style="fill:#bd8d46;fill-rule:nonzero;"/><rect x="51.48" y="45.76" width="5.718" height="5.72" style="fill:#bd8d46;fill-rule:nonzero;"/><rect x="57.197" y="28.6" width="5.721" height="5.72" style="fill:#bd8d46;fill-rule:nonzero;"/><rect x="57.197" y="34.32" width="5.721" height="5.72" style="fill:#bd8d46;fill-rule:nonzero;"/><rect x="57.197" y="40.04" width="5.721" height="5.72" style="fill:#bd8d46;fill-rule:nonzero;"/><rect x="62.918" y="22.88" width="5.721" height="5.72" style="fill:#bd8d46;fill-rule:nonzero;"/><rect x="45.758" y="0" width="5.721" height="5.72" style="fill:#9e0000;fill-rule:nonzero;"/><rect x="45.758" y="5.72" width="5.721" height="5.72" style="fill:#9e0000;fill-rule:nonzero;"/><rect x="45.758" y="17.16" width="5.721" height="5.72" style="fill:#9e0000;fill-rule:nonzero;"/><rect x="51.48" y="5.72" width="5.718" height="5.72" style="fill:#9e0000;fill-rule:nonzero;"/><rect x="51.48" y="11.44" width="5.718" height="5.72" style="fill:#9e0000;fill-rule:nonzero;"/><rect x="51.48" y="17.16" width="5.718" height="5.72" style="fill:#9e0000;fill-rule:nonzero;"/><rect x="40.037" y="5.72" width="5.721" height="5.72" style="fill:#9e0000;fill-rule:nonzero;"/><rect x="40.037" y="11.44" width="5.721" height="5.72" style="fill:#9e0000;fill-rule:nonzero;"/><rect x="40.037" y="17.16" width="5.721" height="5.72" style="fill:#9e0000;fill-rule:nonzero;"/><rect x="45.758" y="22.88" width="5.721" height="5.72" style="fill:#9e0000;fill-rule:nonzero;"/><rect x="68.639" y="22.88" width="5.718" height="5.72" style="fill:#bd8d46;fill-rule:nonzero;"/><rect x="62.918" y="28.6" width="5.721" height="5.72" style="fill:#bd8d46;fill-rule:nonzero;"/><rect x="34.32" y="28.6" width="5.718" height="5.72" style="fill:#bd8d46;fill-rule:nonzero;"/><rect x="34.32" y="34.32" width="5.718" height="5.72" style="fill:#bd8d46;fill-rule:nonzero;"/><rect x="34.32" y="40.04" width="5.718" height="5.72" style="fill:#bd8d46;fill-rule:nonzero;"/><rect x="28.599" y="22.88" width="5.721" height="5.72" style="fill:#bd8d46;fill-rule:nonzero;"/><rect x="22.877" y="22.88" width="5.721" height="5.72" style="fill:#bd8d46;fill-rule:nonzero;"/><rect x="28.599" y="28.6" width="5.721" height="5.72" style="fill:#bd8d46;fill-rule:nonzero;"/><rect x="40.037" y="62.92" width="5.721" height="5.72" style="fill:#bd8d46;fill-rule:nonzero;"/><rect x="40.037" y="68.639" width="5.721" height="5.72" style="fill:#bd8d46;fill-rule:nonzero;"/><rect x="40.037" y="74.36" width="5.721" height="5.72" style="fill:#bd8d46;fill-rule:nonzero;"/><rect x="34.32" y="57.2" width="5.718" height="5.72" style="fill:#bd8d46;fill-rule:nonzero;"/><rect x="34.32" y="62.92" width="5.718" height="5.72" style="fill:#bd8d46;fill-rule:nonzero;"/><rect x="34.32" y="68.639" width="5.718" height="5.72" style="fill:#bd8d46;fill-rule:nonzero;"/><rect x="28.599" y="51.48" width="5.721" height="5.72" style="fill:#bd8d46;fill-rule:nonzero;"/><rect x="28.599" y="57.2" width="5.721" height="5.72" style="fill:#bd8d46;fill-rule:nonzero;"/><rect x="28.599" y="62.92" width="5.721" height="5.72" style="fill:#bd8d46;fill-rule:nonzero;"/><rect x="22.877" y="45.76" width="5.721" height="5.72" style="fill:#bd8d46;fill-rule:nonzero;"/><rect x="22.877" y="51.48" width="5.721" height="5.72" style="fill:#bd8d46;fill-rule:nonzero;"/><rect x="22.877" y="57.2" width="5.721" height="5.72" style="fill:#bd8d46;fill-rule:nonzero;"/><rect x="17.16" y="40.04" width="5.718" height="5.72" style="fill:#bd8d46;fill-rule:nonzero;"/><rect x="17.16" y="45.76" width="5.718" height="5.72" style="fill:#bd8d46;fill-rule:nonzero;"/><rect x="17.16" y="51.48" width="5.718" height="5.72" style="fill:#bd8d46;fill-rule:nonzero;"/><rect x="28.599" y="74.36" width="5.721" height="5.72" style="fill:#bd8d46;fill-rule:nonzero;"/><rect x="22.877" y="74.36" width="5.721" height="5.72" style="fill:#bd8d46;fill-rule:nonzero;"/><rect x="17.16" y="74.36" width="5.718" height="5.72" style="fill:#bd8d46;fill-rule:nonzero;"/><rect x="22.877" y="68.639" width="5.721" height="5.72" style="fill:#bd8d46;fill-rule:nonzero;"/><rect x="17.16" y="68.639" width="5.718" height="5.72" style="fill:#bd8d46;fill-rule:nonzero;"/><rect x="11.439" y="68.639" width="5.721" height="5.72" style="fill:#bd8d46;fill-rule:nonzero;"/><rect x="17.16" y="62.92" width="5.718" height="5.72" style="fill:#bd8d46;fill-rule:nonzero;"/><rect x="11.439" y="62.92" width="5.721" height="5.72" style="fill:#bd8d46;fill-rule:nonzero;"/><rect x="5.718" y="62.92" width="5.721" height="5.72" style="fill:#bd8d46;fill-rule:nonzero;"/><rect x="11.439" y="57.2" width="5.721" height="5.72" style="fill:#bd8d46;fill-rule:nonzero;"/><rect x="5.718" y="57.2" width="5.721" height="5.72" style="fill:#bd8d46;fill-rule:nonzero;"/><rect x="0" y="57.2" width="5.718" height="5.72" style="fill:#bd8d46;fill-rule:nonzero;"/><rect x="51.48" y="62.92" width="5.718" height="5.72" style="fill:#bd8d46;fill-rule:nonzero;"/><rect x="51.48" y="68.639" width="5.718" height="5.72" style="fill:#bd8d46;fill-rule:nonzero;"/><rect x="51.48" y="74.36" width="5.718" height="5.72" style="fill:#bd8d46;fill-rule:nonzero;"/><rect x="57.197" y="57.2" width="5.721" height="5.72" style="fill:#bd8d46;fill-rule:nonzero;"/><rect x="57.197" y="62.92" width="5.721" height="5.72" style="fill:#bd8d46;fill-rule:nonzero;"/><rect x="57.197" y="68.639" width="5.721" height="5.72" style="fill:#bd8d46;fill-rule:nonzero;"/><rect x="62.918" y="51.48" width="5.721" height="5.72" style="fill:#bd8d46;fill-rule:nonzero;"/><rect x="62.918" y="57.2" width="5.721" height="5.72" style="fill:#bd8d46;fill-rule:nonzero;"/><rect x="62.918" y="62.92" width="5.721" height="5.72" style="fill:#bd8d46;fill-rule:nonzero;"/><rect x="68.639" y="45.76" width="5.718" height="5.72" style="fill:#bd8d46;fill-rule:nonzero;"/><rect x="68.639" y="51.48" width="5.718" height="5.72" style="fill:#bd8d46;fill-rule:nonzero;"/><rect x="68.639" y="57.2" width="5.718" height="5.72" style="fill:#bd8d46;fill-rule:nonzero;"/><rect x="74.357" y="40.04" width="5.721" height="5.72" style="fill:#bd8d46;fill-rule:nonzero;"/><rect x="74.357" y="45.76" width="5.721" height="5.72" style="fill:#bd8d46;fill-rule:nonzero;"/><rect x="74.357" y="51.48" width="5.721" height="5.72" style="fill:#bd8d46;fill-rule:nonzero;"/><rect x="62.918" y="74.36" width="5.721" height="5.72" style="fill:#bd8d46;fill-rule:nonzero;"/><rect x="68.639" y="74.36" width="5.718" height="5.72" style="fill:#bd8d46;fill-rule:nonzero;"/><rect x="74.357" y="74.36" width="5.721" height="5.72" style="fill:#bd8d46;fill-rule:nonzero;"/><rect x="68.639" y="68.639" width="5.718" height="5.72" style="fill:#bd8d46;fill-rule:nonzero;"/><rect x="74.357" y="68.639" width="5.721" height="5.72" style="fill:#bd8d46;fill-rule:nonzero;"/><rect x="80.078" y="68.639" width="5.721" height="5.72" style="fill:#bd8d46;fill-rule:nonzero;"/><rect x="74.357" y="62.92" width="5.721" height="5.72" style="fill:#bd8d46;fill-rule:nonzero;"/><rect x="80.078" y="62.92" width="5.721" height="5.72" style="fill:#bd8d46;fill-rule:nonzero;"/><rect x="85.799" y="62.92" width="5.718" height="5.72" style="fill:#bd8d46;fill-rule:nonzero;"/><rect x="80.078" y="57.2" width="5.721" height="5.72" style="fill:#bd8d46;fill-rule:nonzero;"/><rect x="85.799" y="57.2" width="5.718" height="5.72" style="fill:#bd8d46;fill-rule:nonzero;"/><rect x="91.517" y="57.2" width="5.721" height="5.72" style="fill:#bd8d46;fill-rule:nonzero;"/><rect x="45.758" y="57.2" width="5.721" height="5.72" style="fill:#bd8d46;fill-rule:nonzero;"/><rect x="45.758" y="51.48" width="5.721" height="5.72" style="fill:#bd8d46;fill-rule:nonzero;"/></svg>