<?xml version="1.0" encoding="UTF-8" standalone="no"?><!DOCTYPE svg PUBLIC "-//W3C//DTD SVG 1.1//EN" "http://www.w3.org/Graphics/SVG/1.1/DTD/svg11.dtd"><svg width="100%" height="100%" viewBox="0 0 25 25" version="1.1" xmlns="http://www.w3.org/2000/svg" xmlns:xlink="http://www.w3.org/1999/xlink" xml:space="preserve" xmlns:serif="http://www.serif.com/" style="fill-rule:evenodd;clip-rule:evenodd;stroke-linejoin:round;stroke-miterlimit:1.41421;"><g><g><path d="M23.788,12.128c0,6.452 -5.221,11.654 -11.647,11.654c-6.44,0 -11.641,-5.202 -11.641,-11.654c0,-6.42 5.201,-11.628 11.641,-11.628c6.426,0 11.647,5.208 11.647,11.628Z" style="fill:#bd8d46;fill-rule:nonzero;stroke:#fff;stroke-width:1px;"/></g><g><path d="M5.045,9.143l0,7.019l4.22,-3.511l-4.22,-3.508Z" style="fill:#fff;fill-rule:nonzero;"/><path d="M18.122,6.959l-11.956,0c-0.552,0 -1.013,0.403 -1.104,0.93l5.577,4.639l0.93,0.773c0.316,0.263 0.833,0.263 1.149,0l0.977,-0.813l5.531,-4.599c-0.091,-0.527 -0.552,-0.93 -1.104,-0.93Z" style="fill:#fff;fill-rule:nonzero;"/><path d="M19.243,16.162l0,-7.019l-4.22,3.508l4.22,3.511Z" style="fill:#fff;fill-rule:nonzero;"/><path d="M13.474,13.94l-0.756,0.628c-0.316,0.263 -0.833,0.263 -1.149,0l-0.974,-0.81l-0.568,-0.473l-4.56,3.791c0.192,0.154 0.435,0.247 0.699,0.247l11.956,0c0.264,0 0.507,-0.093 0.699,-0.247l-4.561,-3.791l-0.786,0.655Z" style="fill:#fff;fill-rule:nonzero;"/></g></g></svg>