<?xml version="1.0" encoding="UTF-8" standalone="no"?><!DOCTYPE svg PUBLIC "-//W3C//DTD SVG 1.1//EN" "http://www.w3.org/Graphics/SVG/1.1/DTD/svg11.dtd"><svg width="100%" height="100%" viewBox="0 0 25 25" version="1.1" xmlns="http://www.w3.org/2000/svg" xmlns:xlink="http://www.w3.org/1999/xlink" xml:space="preserve" xmlns:serif="http://www.serif.com/" style="fill-rule:evenodd;clip-rule:evenodd;stroke-linejoin:round;stroke-miterlimit:1.41421;"><g><g><g><path d="M23.788,12.128c0,6.452 -5.221,11.654 -11.647,11.654c-6.44,0 -11.641,-5.202 -11.641,-11.654c0,-6.42 5.201,-11.628 11.641,-11.628c6.426,0 11.647,5.208 11.647,11.628Z" style="fill:#bd8d46;fill-rule:nonzero;stroke:#fff;stroke-width:1px;"/><path d="M11.29,17.384l0.001,0c0.03,0.032 0.06,0.062 0.089,0.092c0.005,0.006 0.01,0.009 0.015,0.014c0.023,0.024 0.046,0.048 0.069,0.071c0.007,0.008 0.014,0.014 0.021,0.021c0.021,0.022 0.043,0.042 0.063,0.062c0.006,0.007 0.011,0.012 0.017,0.017c0.051,0.051 0.1,0.099 0.146,0.144c0.006,0.006 0.012,0.012 0.018,0.017c0.016,0.017 0.031,0.031 0.046,0.046c0.008,0.007 0.015,0.014 0.023,0.021c0.014,0.014 0.027,0.027 0.041,0.039c0.006,0.007 0.012,0.013 0.019,0.018c0.018,0.018 0.036,0.035 0.053,0.05c0.019,0.018 0.038,0.034 0.057,0.047c0.007,0.005 0.013,0.008 0.02,0.011c0.013,0.009 0.026,0.017 0.039,0.023c0.007,0.004 0.015,0.005 0.023,0.009c0.012,0.004 0.024,0.009 0.036,0.011c0.008,0.003 0.016,0.004 0.025,0.004c0.011,0.003 0.022,0.004 0.033,0.005l0.006,0c0.008,0 0.017,-0.001 0.026,-0.002c0.008,-0.002 0.015,-0.002 0.023,-0.003c0.011,-0.002 0.022,-0.006 0.033,-0.009c0.007,-0.002 0.014,-0.005 0.021,-0.007c0.012,-0.005 0.024,-0.013 0.036,-0.019c0.006,-0.004 0.011,-0.006 0.017,-0.009c0.017,-0.013 0.034,-0.025 0.051,-0.042c0.017,-0.016 0.036,-0.032 0.055,-0.051c0.004,-0.004 0.008,-0.008 0.012,-0.012c0.017,-0.016 0.035,-0.033 0.053,-0.05c0.003,-0.003 0.006,-0.007 0.01,-0.01c0.068,-0.065 0.145,-0.139 0.229,-0.224c0.001,0 0.002,-0.001 0.003,-0.002c0.083,-0.082 0.174,-0.174 0.27,-0.274c0.003,-0.003 0.006,-0.005 0.009,-0.008l0,0c1.368,-1.411 3.903,-4.408 3.903,-7.257c0,-2.721 -2.236,-4.927 -4.757,-4.927c-2.521,0 -4.756,2.206 -4.756,4.927c0,2.849 2.533,5.845 3.902,7.257Z" style="fill:#fff;"/><path d="M9.584,10.021c0,-1.414 1.146,-2.56 2.56,-2.56c1.414,0 2.56,1.146 2.56,2.56c0,1.413 -1.146,2.559 -2.56,2.559c-1.414,0 -2.56,-1.146 -2.56,-2.559Z" style="fill:#bd8d46;"/><path d="M13.688,10.021c0,-0.853 -0.692,-1.544 -1.544,-1.544c-0.852,0 -1.543,0.691 -1.543,1.544c0,0.852 0.691,1.543 1.543,1.543c0.852,0 1.544,-0.691 1.544,-1.543Z" style="fill:#fff;fill-rule:nonzero;"/></g></g><path d="M13.537,17.47c-0.355,0.375 -0.661,0.673 -0.873,0.872c-0.148,0.139 -0.325,0.212 -0.514,0.212c-0.137,0 -0.344,-0.04 -0.547,-0.232c-0.208,-0.196 -0.505,-0.486 -0.851,-0.852c-0.736,0.154 -1.226,0.428 -1.226,0.738c0,0.482 1.172,0.874 2.618,0.874c1.446,0 2.618,-0.392 2.618,-0.874c0,-0.31 -0.489,-0.584 -1.225,-0.738Z" style="fill:#fff;fill-rule:nonzero;"/></g></svg>