<?xml version="1.0" encoding="UTF-8" standalone="no"?><!DOCTYPE svg PUBLIC "-//W3C//DTD SVG 1.1//EN" "http://www.w3.org/Graphics/SVG/1.1/DTD/svg11.dtd"><svg width="100%" height="100%" viewBox="0 0 31 31" version="1.1" xmlns="http://www.w3.org/2000/svg" xmlns:xlink="http://www.w3.org/1999/xlink" xml:space="preserve" xmlns:serif="http://www.serif.com/" style="fill-rule:evenodd;clip-rule:evenodd;stroke-linejoin:round;stroke-miterlimit:1.41421;"><g><circle cx="15.279" cy="15.279" r="14.051" style="fill:#fff;"/><g><g><g><path d="M15.378,0l0.098,0.001l0.099,0.002l0.098,0.002l0.098,0.003l0.098,0.003l0.098,0.004l0.195,0.01l0.098,0.006l0.097,0.007l0.097,0.007l0.096,0.007l0.097,0.009l0.097,0.008l0.096,0.01l0.096,0.01l0.096,0.011l0.096,0.011l0.096,0.012l0.095,0.012l0.095,0.013l0.095,0.014l0.095,0.014l0.095,0.015l0.094,0.015l0.095,0.016l0.094,0.017l0.094,0.017l0.094,0.018l0.093,0.018l0.093,0.019l0.094,0.019l0.092,0.02l0.093,0.02l0.093,0.021l0.092,0.022l0.092,0.022l0.092,0.023l0.091,0.023l0.092,0.024l0.091,0.025l0.091,0.025l0.091,0.025l0.09,0.026l0.09,0.026l0.09,0.028l0.09,0.027l0.09,0.028l0.089,0.029l0.089,0.03l0.089,0.029l0.088,0.031l0.089,0.03l0.088,0.032l0.088,0.032l0.175,0.065l0.087,0.033l0.087,0.034l0.086,0.035l0.087,0.035l0.086,0.035l0.086,0.036l0.085,0.037l0.085,0.037l0.085,0.038l0.085,0.037l0.085,0.039l0.168,0.079l0.166,0.08l0.084,0.041l0.083,0.041l0.082,0.043l0.082,0.042l0.082,0.043l0.082,0.043l0.081,0.044l0.081,0.045l0.081,0.044l0.08,0.046l0.16,0.092l0.08,0.047l0.158,0.094l0.078,0.048l0.079,0.049l0.078,0.049l0.155,0.099l0.077,0.051l0.153,0.102l0.151,0.104l0.076,0.052l0.075,0.054l0.149,0.107l0.074,0.054l0.074,0.055l0.073,0.055l0.073,0.056l0.073,0.056l0.072,0.056l0.072,0.057l0.072,0.058l0.071,0.057l0.071,0.059l0.071,0.058l0.07,0.059l0.07,0.06l0.069,0.06l0.069,0.06l0.069,0.061l0.069,0.061l0.067,0.061l0.068,0.062l0.068,0.062l0.067,0.063l0.066,0.063l0.066,0.063l0.066,0.064l0.065,0.064l0.13,0.13l0.064,0.065l0.064,0.066l0.063,0.066l0.064,0.067l0.062,0.067l0.062,0.067l0.062,0.068l0.062,0.068l0.061,0.069l0.061,0.068l0.06,0.069l0.06,0.07l0.059,0.07l0.059,0.07l0.059,0.07l0.058,0.071l0.058,0.072l0.057,0.071l0.057,0.072l0.057,0.073l0.056,0.072l0.055,0.073l0.056,0.074l0.054,0.073l0.055,0.074l0.107,0.149l0.053,0.076l0.053,0.075l0.104,0.152l0.102,0.153l0.05,0.077l0.1,0.155l0.049,0.078l0.048,0.078l0.048,0.078l0.095,0.159l0.047,0.079l0.092,0.16l0.045,0.081l0.045,0.08l0.044,0.082l0.044,0.081l0.043,0.081l0.044,0.082l0.042,0.082l0.042,0.083l0.042,0.083l0.041,0.083l0.08,0.167l0.079,0.168l0.038,0.085l0.038,0.084l0.037,0.085l0.038,0.085l0.036,0.086l0.036,0.086l0.036,0.086l0.034,0.086l0.035,0.087l0.034,0.086l0.034,0.087l0.065,0.175l0.032,0.088l0.031,0.089l0.031,0.088l0.03,0.089l0.03,0.089l0.029,0.089l0.029,0.089l0.028,0.089l0.028,0.09l0.027,0.09l0.026,0.09l0.026,0.091l0.026,0.091l0.025,0.09l0.024,0.092l0.024,0.091l0.024,0.092l0.022,0.092l0.022,0.092l0.022,0.092l0.021,0.092l0.021,0.093l0.02,0.093l0.019,0.093l0.019,0.094l0.018,0.093l0.018,0.094l0.016,0.093l0.017,0.095l0.016,0.094l0.016,0.094l0.014,0.095l0.015,0.095l0.013,0.095l0.013,0.096l0.013,0.095l0.012,0.095l0.011,0.096l0.01,0.097l0.01,0.095l0.01,0.097l0.009,0.096l0.008,0.097l0.008,0.097l0.007,0.097l0.007,0.097l0.005,0.098l0.01,0.195l0.004,0.098l0.004,0.097l0.002,0.099l0.003,0.098l0.001,0.099l0.001,0.098l0.001,0.099l-0.001,0.099l-0.001,0.098l-0.001,0.099l-0.003,0.098l-0.002,0.098l-0.004,0.098l-0.004,0.098l-0.005,0.097l-0.005,0.098l-0.005,0.098l-0.007,0.097l-0.007,0.097l-0.008,0.096l-0.008,0.097l-0.009,0.097l-0.01,0.096l-0.01,0.096l-0.01,0.096l-0.011,0.096l-0.012,0.096l-0.013,0.095l-0.013,0.095l-0.013,0.095l-0.015,0.095l-0.014,0.095l-0.016,0.094l-0.016,0.095l-0.017,0.094l-0.016,0.094l-0.018,0.094l-0.018,0.093l-0.019,0.093l-0.019,0.094l-0.02,0.092l-0.021,0.093l-0.021,0.093l-0.022,0.092l-0.022,0.092l-0.022,0.092l-0.024,0.091l-0.024,0.092l-0.024,0.091l-0.025,0.091l-0.026,0.091l-0.026,0.09l-0.026,0.09l-0.027,0.09l-0.028,0.09l-0.028,0.09l-0.029,0.089l-0.029,0.089l-0.03,0.089l-0.03,0.088l-0.031,0.089l-0.031,0.088l-0.032,0.088l-0.033,0.088l-0.032,0.087l-0.034,0.087l-0.034,0.087l-0.035,0.086l-0.034,0.087l-0.036,0.086l-0.036,0.086l-0.036,0.085l-0.038,0.085l-0.037,0.085l-0.038,0.085l-0.038,0.085l-0.04,0.084l-0.039,0.084l-0.04,0.083l-0.04,0.083l-0.041,0.084l-0.042,0.083l-0.042,0.082l-0.042,0.082l-0.044,0.082l-0.043,0.082l-0.044,0.081l-0.044,0.081l-0.045,0.081l-0.045,0.08l-0.046,0.08l-0.046,0.08l-0.047,0.08l-0.047,0.079l-0.048,0.079l-0.048,0.078l-0.048,0.079l-0.049,0.078l-0.05,0.077l-0.05,0.078l-0.05,0.077l-0.051,0.076l-0.051,0.077l-0.052,0.076l-0.052,0.075l-0.053,0.076l-0.053,0.075l-0.054,0.075l-0.053,0.074l-0.055,0.074l-0.054,0.074l-0.056,0.073l-0.055,0.073l-0.056,0.073l-0.057,0.072l-0.057,0.072l-0.057,0.072l-0.058,0.071l-0.058,0.071l-0.059,0.071l-0.059,0.07l-0.059,0.07l-0.06,0.069l-0.06,0.069l-0.061,0.069l-0.061,0.069l-0.062,0.067l-0.062,0.068l-0.062,0.068l-0.062,0.067l-0.064,0.066l-0.063,0.066l-0.064,0.066l-0.064,0.065l-0.065,0.065l-0.065,0.065l-0.065,0.064l-0.066,0.064l-0.066,0.063l-0.066,0.064l-0.067,0.062l-0.068,0.062l-0.068,0.062l-0.067,0.062l-0.069,0.061l-0.069,0.061l-0.069,0.06l-0.069,0.06l-0.07,0.059l-0.07,0.059l-0.071,0.059l-0.071,0.058l-0.071,0.058l-0.072,0.057l-0.072,0.057l-0.072,0.057l-0.073,0.056l-0.073,0.055l-0.073,0.056l-0.074,0.054l-0.074,0.055l-0.074,0.053l-0.075,0.054l-0.075,0.053l-0.076,0.053l-0.075,0.052l-0.076,0.052l-0.077,0.051l-0.076,0.051l-0.077,0.05l-0.078,0.05l-0.077,0.05l-0.078,0.049l-0.079,0.048l-0.078,0.048l-0.079,0.048l-0.079,0.047l-0.08,0.047l-0.08,0.046l-0.08,0.046l-0.08,0.045l-0.081,0.045l-0.081,0.044l-0.081,0.044l-0.082,0.043l-0.082,0.044l-0.082,0.042l-0.082,0.042l-0.083,0.042l-0.084,0.041l-0.083,0.04l-0.083,0.04l-0.084,0.039l-0.084,0.04l-0.085,0.038l-0.085,0.038l-0.085,0.037l-0.085,0.038l-0.085,0.036l-0.086,0.036l-0.086,0.036l-0.087,0.034l-0.086,0.035l-0.087,0.034l-0.087,0.034l-0.087,0.032l-0.088,0.033l-0.088,0.032l-0.088,0.031l-0.089,0.031l-0.088,0.03l-0.089,0.03l-0.089,0.029l-0.089,0.029l-0.09,0.028l-0.09,0.028l-0.09,0.027l-0.09,0.026l-0.09,0.026l-0.091,0.026l-0.091,0.025l-0.091,0.024l-0.092,0.024l-0.091,0.024l-0.092,0.022l-0.092,0.022l-0.092,0.022l-0.093,0.021l-0.093,0.021l-0.092,0.02l-0.094,0.019l-0.093,0.019l-0.093,0.018l-0.094,0.018l-0.094,0.016l-0.094,0.017l-0.095,0.016l-0.094,0.016l-0.095,0.014l-0.095,0.015l-0.095,0.013l-0.095,0.013l-0.095,0.013l-0.096,0.012l-0.096,0.011l-0.096,0.01l-0.096,0.01l-0.096,0.01l-0.097,0.009l-0.097,0.008l-0.096,0.008l-0.097,0.007l-0.097,0.007l-0.098,0.005l-0.098,0.005l-0.097,0.005l-0.098,0.004l-0.098,0.004l-0.098,0.002l-0.098,0.003l-0.099,0.001l-0.098,0.001l-0.099,0.001l-0.099,-0.001l-0.098,-0.001l-0.099,-0.001l-0.098,-0.003l-0.099,-0.002l-0.097,-0.004l-0.098,-0.004l-0.098,-0.005l-0.097,-0.005l-0.098,-0.005l-0.097,-0.007l-0.097,-0.007l-0.097,-0.008l-0.097,-0.008l-0.096,-0.009l-0.097,-0.01l-0.095,-0.01l-0.097,-0.01l-0.096,-0.011l-0.095,-0.012l-0.095,-0.013l-0.096,-0.013l-0.095,-0.013l-0.095,-0.015l-0.095,-0.014l-0.094,-0.016l-0.094,-0.016l-0.095,-0.017l-0.093,-0.016l-0.094,-0.018l-0.093,-0.018l-0.094,-0.019l-0.093,-0.019l-0.093,-0.02l-0.093,-0.021l-0.092,-0.021l-0.092,-0.022l-0.092,-0.022l-0.092,-0.022l-0.092,-0.024l-0.091,-0.024l-0.092,-0.024l-0.09,-0.025l-0.091,-0.026l-0.091,-0.026l-0.09,-0.026l-0.09,-0.027l-0.09,-0.028l-0.089,-0.028l-0.089,-0.029l-0.089,-0.029l-0.089,-0.03l-0.089,-0.03l-0.088,-0.031l-0.089,-0.031l-0.088,-0.032l-0.087,-0.033l-0.088,-0.032l-0.087,-0.034l-0.086,-0.034l-0.087,-0.035l-0.086,-0.034l-0.086,-0.036l-0.086,-0.036l-0.086,-0.036l-0.085,-0.038l-0.085,-0.037l-0.084,-0.038l-0.085,-0.038l-0.084,-0.04l-0.084,-0.039l-0.084,-0.04l-0.083,-0.04l-0.083,-0.041l-0.083,-0.042l-0.083,-0.042l-0.082,-0.042l-0.082,-0.044l-0.081,-0.043l-0.081,-0.044l-0.082,-0.044l-0.08,-0.045l-0.081,-0.045l-0.08,-0.046l-0.08,-0.046l-0.079,-0.047l-0.079,-0.047l-0.08,-0.048l-0.078,-0.048l-0.078,-0.048l-0.078,-0.049l-0.078,-0.05l-0.077,-0.05l-0.077,-0.05l-0.077,-0.051l-0.076,-0.051l-0.076,-0.052l-0.076,-0.052l-0.075,-0.053l-0.076,-0.053l-0.074,-0.054l-0.075,-0.053l-0.074,-0.055l-0.073,-0.054l-0.074,-0.056l-0.073,-0.055l-0.072,-0.056l-0.073,-0.057l-0.072,-0.057l-0.071,-0.057l-0.072,-0.058l-0.071,-0.058l-0.07,-0.059l-0.07,-0.059l-0.07,-0.059l-0.07,-0.06l-0.069,-0.06l-0.068,-0.061l-0.069,-0.061l-0.068,-0.062l-0.068,-0.062l-0.067,-0.062l-0.067,-0.062l-0.067,-0.064l-0.066,-0.063l-0.066,-0.064l-0.065,-0.064l-0.065,-0.065l-0.065,-0.065l-0.064,-0.065l-0.064,-0.066l-0.063,-0.066l-0.063,-0.066l-0.063,-0.067l-0.062,-0.068l-0.062,-0.068l-0.061,-0.067l-0.061,-0.069l-0.061,-0.069l-0.06,-0.069l-0.06,-0.069l-0.06,-0.07l-0.059,-0.07l-0.058,-0.071l-0.059,-0.071l-0.057,-0.071l-0.058,-0.072l-0.057,-0.072l-0.056,-0.072l-0.056,-0.073l-0.056,-0.073l-0.055,-0.073l-0.055,-0.074l-0.054,-0.074l-0.054,-0.074l-0.053,-0.075l-0.054,-0.075l-0.052,-0.076l-0.052,-0.075l-0.052,-0.076l-0.051,-0.077l-0.051,-0.076l-0.051,-0.077l-0.049,-0.078l-0.05,-0.077l-0.049,-0.078l-0.049,-0.079l-0.048,-0.078l-0.047,-0.079l-0.047,-0.079l-0.047,-0.08l-0.046,-0.08l-0.046,-0.08l-0.046,-0.08l-0.044,-0.081l-0.045,-0.081l-0.044,-0.081l-0.043,-0.082l-0.043,-0.082l-0.042,-0.082l-0.043,-0.082l-0.041,-0.083l-0.041,-0.084l-0.04,-0.083l-0.04,-0.083l-0.04,-0.084l-0.039,-0.084l-0.039,-0.085l-0.037,-0.085l-0.038,-0.085l-0.037,-0.085l-0.037,-0.085l-0.036,-0.086l-0.035,-0.086l-0.035,-0.087l-0.035,-0.086l-0.034,-0.087l-0.033,-0.087l-0.033,-0.087l-0.032,-0.088l-0.032,-0.088l-0.032,-0.088l-0.03,-0.089l-0.031,-0.088l-0.029,-0.089l-0.03,-0.089l-0.029,-0.089l-0.028,-0.09l-0.027,-0.09l-0.028,-0.09l-0.026,-0.09l-0.026,-0.09l-0.025,-0.091l-0.025,-0.091l-0.025,-0.091l-0.024,-0.092l-0.023,-0.091l-0.023,-0.092l-0.022,-0.092l-0.022,-0.092l-0.021,-0.093l-0.02,-0.093l-0.02,-0.092l-0.019,-0.094l-0.019,-0.093l-0.018,-0.093l-0.018,-0.094l-0.017,-0.094l-0.017,-0.094l-0.016,-0.095l-0.015,-0.094l-0.015,-0.095l-0.014,-0.095l-0.014,-0.095l-0.013,-0.095l-0.012,-0.095l-0.012,-0.096l-0.011,-0.096l-0.011,-0.096l-0.01,-0.096l-0.01,-0.096l-0.008,-0.097l-0.009,-0.097l-0.007,-0.096l-0.007,-0.097l-0.007,-0.097l-0.006,-0.098l-0.005,-0.098l-0.005,-0.097l-0.004,-0.098l-0.003,-0.098l-0.003,-0.098l-0.002,-0.098l-0.002,-0.099l-0.001,-0.098l0,-0.099l0,-0.099l0.001,-0.098l0.002,-0.099l0.002,-0.098l0.003,-0.099l0.003,-0.097l0.004,-0.098l0.005,-0.098l0.005,-0.097l0.006,-0.098l0.007,-0.097l0.007,-0.097l0.007,-0.097l0.009,-0.097l0.008,-0.096l0.01,-0.097l0.01,-0.095l0.011,-0.097l0.011,-0.096l0.012,-0.095l0.012,-0.095l0.013,-0.096l0.014,-0.095l0.014,-0.095l0.015,-0.095l0.015,-0.094l0.016,-0.094l0.017,-0.095l0.017,-0.093l0.018,-0.094l0.018,-0.093l0.019,-0.094l0.019,-0.093l0.02,-0.093l0.02,-0.093l0.021,-0.092l0.022,-0.092l0.022,-0.092l0.023,-0.092l0.023,-0.092l0.024,-0.091l0.025,-0.092l0.025,-0.09l0.025,-0.091l0.026,-0.091l0.026,-0.09l0.028,-0.09l0.027,-0.09l0.028,-0.089l0.029,-0.089l0.03,-0.089l0.029,-0.089l0.031,-0.089l0.03,-0.088l0.032,-0.089l0.032,-0.088l0.032,-0.087l0.033,-0.088l0.033,-0.087l0.034,-0.086l0.035,-0.087l0.035,-0.086l0.035,-0.086l0.036,-0.086l0.037,-0.086l0.037,-0.085l0.038,-0.085l0.037,-0.084l0.039,-0.085l0.039,-0.084l0.04,-0.084l0.04,-0.084l0.04,-0.083l0.041,-0.083l0.041,-0.083l0.043,-0.083l0.042,-0.082l0.043,-0.082l0.043,-0.081l0.044,-0.081l0.045,-0.082l0.044,-0.08l0.046,-0.081l0.046,-0.08l0.046,-0.08l0.047,-0.079l0.047,-0.079l0.047,-0.08l0.048,-0.078l0.049,-0.078l0.049,-0.078l0.05,-0.078l0.049,-0.077l0.051,-0.077l0.051,-0.077l0.051,-0.076l0.052,-0.076l0.052,-0.076l0.052,-0.075l0.054,-0.076l0.053,-0.074l0.054,-0.075l0.054,-0.074l0.055,-0.073l0.055,-0.074l0.056,-0.073l0.056,-0.072l0.056,-0.073l0.057,-0.072l0.058,-0.071l0.057,-0.072l0.059,-0.071l0.058,-0.07l0.059,-0.07l0.06,-0.07l0.06,-0.07l0.06,-0.069l0.061,-0.068l0.061,-0.069l0.061,-0.068l0.062,-0.068l0.062,-0.067l0.063,-0.067l0.063,-0.067l0.063,-0.066l0.064,-0.066l0.064,-0.065l0.065,-0.065l0.065,-0.065l0.065,-0.064l0.066,-0.064l0.066,-0.063l0.067,-0.063l0.067,-0.063l0.067,-0.062l0.068,-0.062l0.068,-0.061l0.069,-0.061l0.068,-0.061l0.069,-0.06l0.07,-0.06l0.07,-0.06l0.07,-0.059l0.07,-0.058l0.071,-0.059l0.072,-0.057l0.071,-0.058l0.072,-0.057l0.073,-0.056l0.072,-0.056l0.073,-0.056l0.074,-0.055l0.073,-0.055l0.074,-0.054l0.075,-0.054l0.074,-0.053l0.076,-0.054l0.075,-0.052l0.076,-0.052l0.076,-0.052l0.076,-0.051l0.077,-0.051l0.077,-0.051l0.077,-0.049l0.078,-0.05l0.078,-0.049l0.078,-0.049l0.078,-0.048l0.08,-0.047l0.079,-0.047l0.079,-0.047l0.08,-0.046l0.08,-0.046l0.081,-0.046l0.08,-0.044l0.082,-0.045l0.081,-0.044l0.081,-0.043l0.082,-0.043l0.082,-0.042l0.083,-0.043l0.083,-0.041l0.083,-0.041l0.083,-0.04l0.084,-0.04l0.084,-0.04l0.084,-0.039l0.085,-0.039l0.084,-0.037l0.085,-0.038l0.085,-0.037l0.086,-0.037l0.086,-0.036l0.086,-0.035l0.086,-0.035l0.087,-0.035l0.086,-0.034l0.087,-0.033l0.088,-0.033l0.087,-0.032l0.088,-0.032l0.089,-0.032l0.088,-0.03l0.089,-0.031l0.089,-0.029l0.089,-0.03l0.089,-0.029l0.089,-0.028l0.09,-0.027l0.09,-0.028l0.09,-0.026l0.091,-0.026l0.091,-0.025l0.09,-0.025l0.092,-0.025l0.091,-0.024l0.092,-0.023l0.092,-0.023l0.092,-0.022l0.092,-0.022l0.092,-0.021l0.093,-0.02l0.093,-0.02l0.093,-0.019l0.094,-0.019l0.093,-0.018l0.094,-0.018l0.093,-0.017l0.095,-0.017l0.094,-0.016l0.094,-0.015l0.095,-0.015l0.095,-0.014l0.095,-0.014l0.096,-0.013l0.095,-0.012l0.095,-0.012l0.096,-0.011l0.097,-0.011l0.095,-0.01l0.097,-0.01l0.096,-0.008l0.097,-0.009l0.097,-0.007l0.097,-0.007l0.097,-0.007l0.098,-0.006l0.097,-0.005l0.098,-0.005l0.098,-0.004l0.097,-0.003l0.099,-0.003l0.098,-0.002l0.099,-0.002l0.098,-0.001l0.099,0l0.099,0Zm-0.185,2.093l-0.085,0.001l-0.085,0.001l-0.085,0.002l-0.085,0.003l-0.085,0.003l-0.084,0.003l-0.085,0.004l-0.084,0.005l-0.084,0.005l-0.084,0.005l-0.084,0.006l-0.084,0.007l-0.083,0.007l-0.083,0.008l-0.084,0.008l-0.083,0.009l-0.083,0.009l-0.082,0.01l-0.083,0.01l-0.082,0.011l-0.082,0.011l-0.082,0.012l-0.082,0.012l-0.082,0.013l-0.081,0.013l-0.082,0.014l-0.081,0.014l-0.081,0.015l-0.081,0.015l-0.081,0.016l-0.08,0.016l-0.08,0.017l-0.08,0.017l-0.08,0.018l-0.08,0.018l-0.079,0.019l-0.08,0.018l-0.079,0.02l-0.079,0.02l-0.079,0.021l-0.078,0.021l-0.079,0.021l-0.078,0.022l-0.078,0.023l-0.078,0.022l-0.077,0.024l-0.078,0.024l-0.077,0.024l-0.077,0.025l-0.077,0.025l-0.076,0.026l-0.076,0.026l-0.077,0.026l-0.075,0.027l-0.076,0.028l-0.076,0.028l-0.075,0.028l-0.075,0.029l-0.075,0.029l-0.075,0.03l-0.074,0.03l-0.074,0.031l-0.074,0.031l-0.074,0.031l-0.074,0.032l-0.073,0.033l-0.073,0.033l-0.073,0.033l-0.072,0.033l-0.073,0.034l-0.072,0.035l-0.072,0.035l-0.071,0.035l-0.072,0.036l-0.071,0.036l-0.071,0.037l-0.071,0.037l-0.07,0.037l-0.07,0.038l-0.07,0.039l-0.07,0.038l-0.069,0.039l-0.069,0.04l-0.069,0.04l-0.069,0.04l-0.068,0.041l-0.068,0.041l-0.068,0.041l-0.068,0.042l-0.067,0.042l-0.067,0.043l-0.067,0.043l-0.066,0.044l-0.066,0.044l-0.066,0.044l-0.066,0.045l-0.065,0.045l-0.065,0.045l-0.065,0.046l-0.065,0.046l-0.064,0.047l-0.064,0.047l-0.064,0.047l-0.063,0.048l-0.063,0.048l-0.063,0.048l-0.062,0.049l-0.063,0.049l-0.061,0.05l-0.062,0.05l-0.061,0.05l-0.061,0.05l-0.061,0.051l-0.06,0.052l-0.06,0.051l-0.06,0.053l-0.06,0.052l-0.059,0.053l-0.058,0.053l-0.059,0.053l-0.058,0.054l-0.058,0.054l-0.057,0.055l-0.057,0.054l-0.057,0.056l-0.057,0.055l-0.056,0.056l-0.056,0.056l-0.055,0.057l-0.056,0.057l-0.054,0.057l-0.055,0.057l-0.054,0.058l-0.054,0.058l-0.053,0.059l-0.053,0.058l-0.053,0.059l-0.052,0.06l-0.053,0.06l-0.051,0.06l-0.052,0.06l-0.051,0.061l-0.05,0.061l-0.05,0.061l-0.05,0.062l-0.05,0.061l-0.049,0.063l-0.049,0.062l-0.048,0.063l-0.048,0.063l-0.048,0.063l-0.047,0.064l-0.047,0.064l-0.047,0.064l-0.046,0.065l-0.046,0.065l-0.045,0.065l-0.045,0.065l-0.045,0.066l-0.044,0.066l-0.044,0.066l-0.044,0.066l-0.043,0.067l-0.043,0.067l-0.042,0.067l-0.042,0.068l-0.041,0.068l-0.041,0.068l-0.041,0.068l-0.04,0.069l-0.04,0.069l-0.04,0.069l-0.039,0.069l-0.038,0.07l-0.039,0.07l-0.038,0.07l-0.037,0.07l-0.037,0.071l-0.037,0.071l-0.036,0.071l-0.036,0.072l-0.035,0.071l-0.035,0.072l-0.035,0.072l-0.034,0.073l-0.033,0.072l-0.033,0.073l-0.033,0.073l-0.033,0.073l-0.032,0.074l-0.031,0.074l-0.031,0.074l-0.031,0.074l-0.03,0.074l-0.03,0.075l-0.029,0.075l-0.029,0.075l-0.028,0.075l-0.028,0.076l-0.028,0.076l-0.027,0.075l-0.026,0.077l-0.026,0.076l-0.026,0.076l-0.025,0.077l-0.025,0.077l-0.024,0.077l-0.024,0.078l-0.024,0.077l-0.022,0.078l-0.023,0.078l-0.022,0.078l-0.021,0.079l-0.021,0.078l-0.021,0.079l-0.02,0.079l-0.02,0.079l-0.018,0.08l-0.019,0.079l-0.018,0.08l-0.018,0.08l-0.017,0.08l-0.017,0.08l-0.016,0.08l-0.016,0.081l-0.015,0.081l-0.015,0.081l-0.014,0.081l-0.014,0.082l-0.013,0.081l-0.013,0.082l-0.012,0.082l-0.012,0.082l-0.011,0.082l-0.011,0.082l-0.01,0.083l-0.01,0.082l-0.009,0.083l-0.009,0.083l-0.008,0.084l-0.008,0.083l-0.007,0.083l-0.007,0.084l-0.006,0.084l-0.005,0.084l-0.005,0.084l-0.005,0.084l-0.004,0.085l-0.003,0.084l-0.003,0.085l-0.003,0.085l-0.002,0.085l-0.001,0.085l-0.001,0.085l0,0.086l0,0.085l0.001,0.086l0.001,0.085l0.002,0.085l0.003,0.084l0.003,0.085l0.007,0.17l0.005,0.084l0.005,0.084l0.005,0.084l0.006,0.084l0.007,0.083l0.007,0.084l0.008,0.083l0.008,0.083l0.009,0.083l0.009,0.083l0.01,0.083l0.01,0.082l0.011,0.083l0.011,0.082l0.012,0.082l0.012,0.082l0.013,0.082l0.013,0.081l0.014,0.081l0.014,0.081l0.015,0.081l0.015,0.081l0.016,0.081l0.016,0.08l0.017,0.08l0.017,0.081l0.018,0.08l0.018,0.079l0.037,0.159l0.02,0.079l0.02,0.079l0.021,0.079l0.021,0.078l0.021,0.079l0.022,0.078l0.023,0.078l0.022,0.078l0.024,0.078l0.024,0.077l0.024,0.077l0.025,0.077l0.025,0.077l0.026,0.076l0.026,0.077l0.026,0.076l0.027,0.076l0.028,0.076l0.028,0.075l0.028,0.075l0.029,0.076l0.029,0.075l0.03,0.074l0.03,0.075l0.031,0.074l0.031,0.074l0.031,0.073l0.032,0.074l0.033,0.073l0.033,0.073l0.033,0.073l0.033,0.073l0.034,0.072l0.035,0.072l0.035,0.072l0.035,0.072l0.072,0.142l0.037,0.071l0.037,0.071l0.037,0.07l0.038,0.07l0.077,0.14l0.039,0.07l0.04,0.069l0.04,0.068l0.04,0.069l0.041,0.069l0.041,0.067l0.041,0.068l0.042,0.068l0.042,0.068l0.043,0.066l0.043,0.067l0.044,0.067l0.044,0.066l0.044,0.066l0.045,0.066l0.045,0.065l0.091,0.13l0.046,0.064l0.047,0.065l0.047,0.064l0.047,0.063l0.048,0.063l0.048,0.064l0.048,0.062l0.049,0.063l0.049,0.062l0.05,0.062l0.05,0.062l0.05,0.061l0.05,0.061l0.051,0.06l0.052,0.061l0.051,0.06l0.053,0.06l0.052,0.059l0.053,0.059l0.106,0.117l0.054,0.058l0.054,0.058l0.055,0.058l0.054,0.057l0.056,0.057l0.055,0.056l0.056,0.056l0.056,0.056l0.057,0.056l0.057,0.055l0.057,0.055l0.057,0.054l0.058,0.054l0.058,0.054l0.117,0.107l0.059,0.052l0.06,0.053l0.06,0.052l0.06,0.052l0.06,0.051l0.061,0.051l0.061,0.051l0.061,0.05l0.062,0.05l0.061,0.049l0.063,0.05l0.062,0.048l0.063,0.049l0.063,0.048l0.063,0.048l0.064,0.047l0.064,0.047l0.064,0.047l0.065,0.046l0.13,0.091l0.065,0.045l0.066,0.044l0.066,0.045l0.066,0.044l0.066,0.043l0.067,0.043l0.067,0.043l0.067,0.042l0.068,0.042l0.068,0.042l0.068,0.041l0.068,0.041l0.069,0.04l0.069,0.04l0.069,0.039l0.069,0.039l0.14,0.077l0.07,0.038l0.07,0.038l0.071,0.037l0.071,0.036l0.143,0.072l0.071,0.036l0.072,0.035l0.072,0.034l0.073,0.034l0.072,0.034l0.073,0.033l0.073,0.033l0.073,0.032l0.074,0.032l0.074,0.032l0.074,0.03l0.074,0.031l0.074,0.031l0.075,0.029l0.075,0.029l0.075,0.029l0.075,0.029l0.076,0.028l0.076,0.027l0.075,0.027l0.077,0.027l0.076,0.026l0.076,0.025l0.077,0.026l0.077,0.025l0.077,0.024l0.078,0.024l0.078,0.023l0.077,0.023l0.078,0.022l0.078,0.022l0.079,0.022l0.078,0.021l0.079,0.02l0.079,0.02l0.079,0.02l0.159,0.038l0.08,0.018l0.08,0.018l0.08,0.017l0.08,0.017l0.081,0.016l0.08,0.015l0.081,0.016l0.081,0.015l0.081,0.014l0.163,0.027l0.082,0.013l0.082,0.012l0.082,0.011l0.082,0.012l0.082,0.011l0.083,0.01l0.082,0.009l0.083,0.01l0.083,0.008l0.084,0.009l0.083,0.007l0.083,0.007l0.084,0.007l0.084,0.006l0.084,0.006l0.084,0.005l0.084,0.004l0.169,0.008l0.085,0.003l0.085,0.002l0.085,0.002l0.085,0.001l0.085,0.001l0.086,0.001l0.085,-0.001l0.086,-0.001l0.085,-0.001l0.085,-0.002l0.084,-0.002l0.085,-0.003l0.085,-0.004l0.085,-0.004l0.084,-0.004l0.084,-0.005l0.084,-0.006l0.084,-0.006l0.083,-0.007l0.084,-0.007l0.083,-0.007l0.083,-0.009l0.083,-0.008l0.083,-0.01l0.083,-0.009l0.082,-0.01l0.083,-0.011l0.082,-0.012l0.082,-0.011l0.082,-0.012l0.081,-0.013l0.082,-0.014l0.081,-0.013l0.081,-0.014l0.081,-0.015l0.081,-0.016l0.081,-0.015l0.08,-0.016l0.08,-0.017l0.081,-0.017l0.08,-0.018l0.079,-0.018l0.08,-0.019l0.079,-0.019l0.079,-0.02l0.079,-0.02l0.079,-0.02l0.078,-0.021l0.079,-0.022l0.078,-0.022l0.078,-0.022l0.078,-0.023l0.078,-0.023l0.077,-0.024l0.077,-0.024l0.077,-0.025l0.077,-0.026l0.076,-0.025l0.077,-0.026l0.076,-0.027l0.076,-0.027l0.076,-0.027l0.075,-0.028l0.075,-0.029l0.076,-0.029l0.075,-0.029l0.074,-0.029l0.075,-0.031l0.074,-0.031l0.074,-0.03l0.073,-0.032l0.074,-0.032l0.073,-0.032l0.073,-0.033l0.073,-0.033l0.073,-0.034l0.072,-0.034l0.072,-0.034l0.072,-0.035l0.072,-0.036l0.071,-0.036l0.071,-0.036l0.071,-0.036l0.071,-0.037l0.07,-0.038l0.07,-0.038l0.07,-0.038l0.07,-0.039l0.07,-0.039l0.069,-0.039l0.068,-0.04l0.069,-0.04l0.069,-0.041l0.067,-0.041l0.068,-0.042l0.068,-0.042l0.068,-0.042l0.066,-0.043l0.067,-0.043l0.067,-0.043l0.066,-0.044l0.066,-0.045l0.066,-0.044l0.065,-0.045l0.065,-0.046l0.065,-0.045l0.064,-0.046l0.065,-0.047l0.064,-0.047l0.063,-0.047l0.063,-0.048l0.064,-0.048l0.062,-0.049l0.063,-0.048l0.062,-0.05l0.062,-0.049l0.062,-0.05l0.061,-0.05l0.061,-0.051l0.06,-0.051l0.061,-0.051l0.06,-0.052l0.06,-0.052l0.059,-0.053l0.059,-0.052l0.059,-0.054l0.058,-0.053l0.058,-0.054l0.058,-0.054l0.058,-0.054l0.057,-0.055l0.057,-0.055l0.056,-0.056l0.056,-0.056l0.056,-0.056l0.056,-0.056l0.055,-0.057l0.055,-0.057l0.054,-0.058l0.054,-0.058l0.054,-0.058l0.053,-0.058l0.054,-0.059l0.052,-0.059l0.053,-0.059l0.052,-0.06l0.052,-0.06l0.051,-0.061l0.051,-0.06l0.051,-0.061l0.05,-0.061l0.05,-0.062l0.049,-0.062l0.05,-0.062l0.048,-0.063l0.049,-0.062l0.048,-0.064l0.048,-0.063l0.047,-0.063l0.047,-0.064l0.047,-0.065l0.046,-0.064l0.045,-0.065l0.046,-0.065l0.045,-0.065l0.044,-0.066l0.045,-0.066l0.044,-0.066l0.043,-0.067l0.043,-0.067l0.043,-0.066l0.042,-0.068l0.042,-0.068l0.042,-0.068l0.041,-0.067l0.041,-0.069l0.04,-0.069l0.04,-0.068l0.039,-0.069l0.039,-0.07l0.039,-0.07l0.038,-0.07l0.038,-0.07l0.038,-0.07l0.037,-0.071l0.036,-0.071l0.036,-0.071l0.036,-0.071l0.036,-0.072l0.035,-0.072l0.034,-0.072l0.034,-0.072l0.034,-0.073l0.033,-0.073l0.033,-0.073l0.032,-0.073l0.032,-0.074l0.032,-0.073l0.03,-0.074l0.031,-0.074l0.031,-0.075l0.029,-0.074l0.029,-0.075l0.029,-0.076l0.029,-0.075l0.028,-0.075l0.027,-0.076l0.027,-0.076l0.027,-0.076l0.026,-0.077l0.025,-0.076l0.026,-0.077l0.025,-0.077l0.024,-0.077l0.024,-0.077l0.023,-0.078l0.023,-0.078l0.022,-0.078l0.022,-0.078l0.022,-0.079l0.021,-0.078l0.02,-0.079l0.02,-0.079l0.02,-0.079l0.019,-0.079l0.019,-0.08l0.018,-0.079l0.018,-0.08l0.017,-0.081l0.017,-0.08l0.016,-0.08l0.015,-0.081l0.016,-0.081l0.015,-0.081l0.014,-0.081l0.013,-0.081l0.014,-0.082l0.013,-0.081l0.012,-0.082l0.011,-0.082l0.012,-0.082l0.011,-0.083l0.01,-0.082l0.009,-0.083l0.01,-0.083l0.008,-0.083l0.009,-0.083l0.007,-0.083l0.007,-0.084l0.007,-0.083l0.006,-0.084l0.006,-0.084l0.005,-0.084l0.004,-0.084l0.004,-0.085l0.004,-0.085l0.003,-0.085l0.002,-0.084l0.002,-0.085l0.001,-0.085l0.001,-0.086l0.001,-0.085l-0.001,-0.086l-0.001,-0.085l-0.001,-0.085l-0.002,-0.085l-0.002,-0.085l-0.003,-0.085l-0.004,-0.084l-0.004,-0.085l-0.004,-0.084l-0.005,-0.084l-0.006,-0.084l-0.006,-0.084l-0.007,-0.084l-0.007,-0.083l-0.007,-0.083l-0.009,-0.084l-0.008,-0.083l-0.01,-0.083l-0.009,-0.082l-0.01,-0.083l-0.011,-0.082l-0.012,-0.082l-0.011,-0.082l-0.012,-0.082l-0.013,-0.082l-0.014,-0.081l-0.013,-0.082l-0.014,-0.081l-0.015,-0.081l-0.016,-0.081l-0.015,-0.08l-0.016,-0.081l-0.017,-0.08l-0.017,-0.08l-0.018,-0.08l-0.018,-0.08l-0.019,-0.079l-0.019,-0.08l-0.02,-0.079l-0.02,-0.079l-0.02,-0.079l-0.021,-0.078l-0.022,-0.079l-0.022,-0.078l-0.022,-0.078l-0.023,-0.077l-0.023,-0.078l-0.024,-0.078l-0.024,-0.077l-0.025,-0.077l-0.026,-0.077l-0.025,-0.076l-0.026,-0.076l-0.027,-0.077l-0.027,-0.075l-0.027,-0.076l-0.028,-0.076l-0.029,-0.075l-0.029,-0.075l-0.029,-0.075l-0.029,-0.075l-0.031,-0.074l-0.031,-0.074l-0.03,-0.074l-0.032,-0.074l-0.032,-0.074l-0.032,-0.073l-0.033,-0.073l-0.033,-0.073l-0.034,-0.072l-0.034,-0.073l-0.034,-0.072l-0.035,-0.072l-0.036,-0.071l-0.036,-0.072l-0.036,-0.071l-0.036,-0.071l-0.037,-0.071l-0.038,-0.07l-0.038,-0.07l-0.038,-0.07l-0.039,-0.07l-0.039,-0.069l-0.039,-0.069l-0.04,-0.069l-0.04,-0.069l-0.041,-0.068l-0.041,-0.068l-0.042,-0.068l-0.042,-0.068l-0.042,-0.067l-0.043,-0.067l-0.043,-0.067l-0.043,-0.066l-0.044,-0.066l-0.045,-0.066l-0.044,-0.066l-0.045,-0.065l-0.046,-0.065l-0.045,-0.065l-0.046,-0.065l-0.047,-0.064l-0.047,-0.064l-0.047,-0.064l-0.048,-0.063l-0.048,-0.063l-0.049,-0.063l-0.048,-0.062l-0.05,-0.063l-0.049,-0.061l-0.05,-0.062l-0.05,-0.061l-0.051,-0.061l-0.051,-0.061l-0.051,-0.06l-0.052,-0.06l-0.052,-0.06l-0.053,-0.06l-0.052,-0.059l-0.054,-0.058l-0.053,-0.059l-0.054,-0.058l-0.054,-0.058l-0.054,-0.057l-0.055,-0.057l-0.055,-0.057l-0.056,-0.057l-0.056,-0.056l-0.056,-0.056l-0.056,-0.055l-0.057,-0.056l-0.057,-0.054l-0.058,-0.055l-0.058,-0.054l-0.058,-0.054l-0.058,-0.053l-0.059,-0.053l-0.059,-0.053l-0.059,-0.052l-0.06,-0.053l-0.06,-0.051l-0.061,-0.052l-0.06,-0.051l-0.061,-0.05l-0.061,-0.05l-0.062,-0.05l-0.062,-0.05l-0.062,-0.049l-0.063,-0.049l-0.062,-0.048l-0.064,-0.048l-0.063,-0.048l-0.063,-0.047l-0.064,-0.047l-0.065,-0.047l-0.064,-0.046l-0.065,-0.046l-0.065,-0.045l-0.065,-0.045l-0.066,-0.045l-0.066,-0.044l-0.066,-0.044l-0.067,-0.044l-0.067,-0.043l-0.066,-0.043l-0.068,-0.042l-0.068,-0.042l-0.068,-0.041l-0.067,-0.041l-0.069,-0.041l-0.069,-0.04l-0.068,-0.04l-0.069,-0.04l-0.07,-0.039l-0.07,-0.038l-0.07,-0.039l-0.07,-0.038l-0.07,-0.037l-0.071,-0.037l-0.071,-0.037l-0.071,-0.036l-0.071,-0.036l-0.072,-0.035l-0.072,-0.035l-0.072,-0.035l-0.072,-0.034l-0.073,-0.033l-0.073,-0.033l-0.073,-0.033l-0.073,-0.033l-0.074,-0.032l-0.073,-0.031l-0.074,-0.031l-0.074,-0.031l-0.075,-0.03l-0.074,-0.03l-0.075,-0.029l-0.076,-0.029l-0.075,-0.028l-0.075,-0.028l-0.076,-0.028l-0.076,-0.027l-0.076,-0.026l-0.077,-0.026l-0.076,-0.026l-0.077,-0.025l-0.077,-0.025l-0.077,-0.024l-0.077,-0.024l-0.078,-0.024l-0.078,-0.022l-0.078,-0.023l-0.078,-0.022l-0.079,-0.021l-0.078,-0.021l-0.079,-0.021l-0.079,-0.02l-0.079,-0.02l-0.079,-0.018l-0.08,-0.019l-0.079,-0.018l-0.08,-0.018l-0.081,-0.017l-0.08,-0.017l-0.08,-0.016l-0.081,-0.016l-0.081,-0.015l-0.081,-0.015l-0.081,-0.014l-0.081,-0.014l-0.081,-0.013l-0.082,-0.013l-0.082,-0.012l-0.082,-0.012l-0.082,-0.011l-0.083,-0.011l-0.082,-0.01l-0.083,-0.01l-0.083,-0.009l-0.083,-0.009l-0.083,-0.008l-0.083,-0.008l-0.084,-0.007l-0.083,-0.007l-0.084,-0.006l-0.084,-0.005l-0.084,-0.005l-0.084,-0.005l-0.085,-0.004l-0.085,-0.003l-0.085,-0.003l-0.084,-0.003l-0.085,-0.002l-0.085,-0.001l-0.086,-0.001l-0.085,0l-0.086,0Z" style="fill:#6280b4;"/><path d="M21.695,17.546c0.63,0.616 1.296,1.195 1.861,1.873c0.25,0.301 0.486,0.611 0.667,0.961c0.256,0.496 0.024,1.043 -0.421,1.073l-2.769,-0.002c-0.714,0.06 -1.284,-0.228 -1.763,-0.716c-0.383,-0.39 -0.738,-0.806 -1.107,-1.21c-0.151,-0.165 -0.309,-0.32 -0.498,-0.442c-0.378,-0.246 -0.706,-0.171 -0.922,0.223c-0.22,0.402 -0.27,0.845 -0.292,1.292c-0.029,0.652 -0.226,0.824 -0.881,0.853c-1.4,0.067 -2.728,-0.145 -3.962,-0.851c-1.088,-0.623 -1.932,-1.502 -2.666,-2.496c-1.43,-1.938 -2.525,-4.066 -3.509,-6.254c-0.221,-0.493 -0.059,-0.758 0.485,-0.767c0.903,-0.018 1.806,-0.017 2.711,-0.002c0.367,0.006 0.609,0.216 0.751,0.563c0.489,1.202 1.087,2.345 1.838,3.405c0.2,0.282 0.403,0.564 0.694,0.763c0.321,0.219 0.565,0.147 0.716,-0.211c0.096,-0.227 0.138,-0.471 0.16,-0.714c0.071,-0.836 0.08,-1.67 -0.045,-2.503c-0.077,-0.52 -0.37,-0.856 -0.888,-0.954c-0.265,-0.05 -0.226,-0.149 -0.097,-0.3c0.222,-0.261 0.432,-0.423 0.848,-0.423l3.13,0c0.493,0.097 0.602,0.319 0.67,0.814l0.002,3.476c-0.005,0.193 0.096,0.762 0.442,0.889c0.276,0.09 0.459,-0.131 0.624,-0.307c0.75,-0.795 1.285,-1.735 1.762,-2.708c0.212,-0.428 0.394,-0.872 0.571,-1.316c0.131,-0.33 0.336,-0.492 0.708,-0.484l3.011,0.003c0.09,0 0.18,0 0.266,0.015c0.508,0.087 0.647,0.306 0.49,0.801c-0.247,0.778 -0.727,1.426 -1.197,2.076c-0.502,0.695 -1.04,1.366 -1.537,2.065c-0.458,0.639 -0.422,0.961 0.147,1.515Z" style="fill:#6280b4;"/></g></g></g></g></svg>